<svg xmlns="http://www.w3.org/2000/svg" width="33.953" height="32.91" viewBox="0 0 33.953 32.91">
  <g id="request" transform="translate(14)">
    <path id="Path_518" data-name="Path 518" d="M209.817,0H197a4.2,4.2,0,0,0-4.2,4.2V23.423a1,1,0,0,0,1.6.8l4.006-3h11.415a4.2,4.2,0,0,0,4.2-4.2V4.2a4.2,4.2,0,0,0-4.2-4.2Zm-7.4,15.877H198.07a1,1,0,1,1,0-1.994h4.343a1,1,0,0,1,0,1.994Zm6.337-4.272H198.07a1,1,0,1,1,0-1.994h10.679a1,1,0,1,1,0,1.994Zm0-4.272H198.07a1,1,0,1,1,0-1.994h10.679a1,1,0,1,1,0,1.994Zm0,0" transform="translate(-194.065)" fill="#bcbcbc"/>
    <path id="Path_519" data-name="Path 519" d="M33.852,245.7a4.713,4.713,0,1,1-4.713-4.713A4.713,4.713,0,0,1,33.852,245.7Zm0,0" transform="translate(-36.802 -224.907)" fill="#bcbcbc"/>
    <path id="Path_520" data-name="Path 520" d="M6.337,382.805A6.337,6.337,0,0,0,0,389.142V390.4a1,1,0,0,0,1,1H11.676a1,1,0,0,0,1-1v-1.254a6.337,6.337,0,0,0-6.337-6.337Zm0,0" transform="translate(-14 -358.483)" fill="#bcbcbc"/>
  </g>
</svg>
