<svg id="call" xmlns="http://www.w3.org/2000/svg" width="32" height="32" viewBox="0 0 32 32">
  <g id="Group_4368" data-name="Group 4368">
    <path id="Path_1040" data-name="Path 1040" d="M29.432,21a18.168,18.168,0,0,1-5.706-.909,2.608,2.608,0,0,0-2.537.535l-3.6,2.716a19.884,19.884,0,0,1-8.94-8.938l2.636-3.5a2.586,2.586,0,0,0,.636-2.621,18.2,18.2,0,0,1-.912-5.715A2.571,2.571,0,0,0,8.444,0H2.568A2.571,2.571,0,0,0,0,2.568,29.465,29.465,0,0,0,29.432,32,2.571,2.571,0,0,0,32,29.432v-5.86A2.571,2.571,0,0,0,29.432,21Z" fill="#bcbcbc"/>
  </g>
</svg>
