<svg xmlns="http://www.w3.org/2000/svg" width="22.33" height="31.062" viewBox="0 0 22.33 31.062">
  <g id="vote" transform="translate(-71.972)">
    <path id="Path_588" data-name="Path 588" d="M85.107,20.081h3.246V.91a.91.91,0,0,0-.91-.91H72.882a.91.91,0,0,0-.91.91V19.171a.91.91,0,0,0,.91.91h4.337a4.464,4.464,0,0,0,.213-1.237V14.621a3.64,3.64,0,1,1,7.28,0v3.256A6.293,6.293,0,0,0,85.107,20.081ZM84.123,4.667,79.9,8.894a.91.91,0,0,1-1.287,0l-2.73-2.73a.91.91,0,0,1,1.287-1.287l2.087,2.087L82.836,3.38a.91.91,0,1,1,1.287,1.287Z" transform="translate(0)" fill="#2f2d64"/>
    <path id="Path_589" data-name="Path 589" d="M172.292,229.262H182.3a.91.91,0,0,0,.882-.69l2.2-8.857a4.545,4.545,0,0,0-1.371-4.485l-2.622-2.359v6.32a.91.91,0,0,1-.91.91h-3.153l.27.405a.91.91,0,0,1-1.514,1.01,14.713,14.713,0,0,1-1.2-1.966l0-.011a8.159,8.159,0,0,1-.77-3.462v-3.256a1.82,1.82,0,1,0-3.64,0v4.223a6.97,6.97,0,0,1-.721,2.932c-1.561,3.342-.147,5.986,1.783,8.879A.91.91,0,0,0,172.292,229.262Z" transform="translate(-91.22 -198.2)" fill="#2f2d64"/>
  </g>
</svg>
