<svg xmlns="http://www.w3.org/2000/svg" width="38" height="38" viewBox="0 0 38 38">
  <g id="Group_2818" data-name="Group 2818" transform="translate(22663 11858)">
    <path id="Path_512" data-name="Path 512" d="M0,0H38V38H0Z" transform="translate(-22663 -11858)" fill="none"/>
    <g id="dashboard" transform="translate(-22660.479 -11855.48)">
      <path id="Path_514" data-name="Path 514" d="M12.7,0H2.4A2.406,2.406,0,0,0,0,2.4v6.18a2.406,2.406,0,0,0,2.4,2.4H12.7a2.406,2.406,0,0,0,2.4-2.4V2.4A2.406,2.406,0,0,0,12.7,0Zm0,0" fill="#2f2d64"/>
      <path id="Path_515" data-name="Path 515" d="M12.7,213.332H2.4a2.406,2.406,0,0,0-2.4,2.4v14.42a2.406,2.406,0,0,0,2.4,2.4H12.7a2.406,2.406,0,0,0,2.4-2.4v-14.42A2.406,2.406,0,0,0,12.7,213.332Zm0,0" transform="translate(0 -199.598)" fill="#2f2d64"/>
      <path id="Path_516" data-name="Path 516" d="M290.036,341.332h-10.3a2.406,2.406,0,0,0-2.4,2.4v6.18a2.406,2.406,0,0,0,2.4,2.4h10.3a2.406,2.406,0,0,0,2.4-2.4v-6.18A2.406,2.406,0,0,0,290.036,341.332Zm0,0" transform="translate(-259.478 -319.358)" fill="#2f2d64"/>
      <path id="Path_517" data-name="Path 517" d="M290.036,0h-10.3a2.406,2.406,0,0,0-2.4,2.4v14.42a2.406,2.406,0,0,0,2.4,2.4h10.3a2.406,2.406,0,0,0,2.4-2.4V2.4A2.406,2.406,0,0,0,290.036,0Zm0,0" transform="translate(-259.478)" fill="#2f2d64"/>
    </g>
  </g>
</svg>
