<svg id="request" xmlns="http://www.w3.org/2000/svg" width="32.752" height="32.752" viewBox="0 0 32.752 32.752">
  <path id="Path_555" data-name="Path 555" d="M23.414,0H.96A.96.96,0,0,0,0,.96V31.792a.96.96,0,0,0,.96.96H23.414a.96.96,0,0,0,.96-.96V.96A.96.96,0,0,0,23.414,0ZM10.074,18.784,7.159,21.7a.959.959,0,0,1-1.357,0L4.428,20.325a.96.96,0,0,1,1.357-1.357l.7.7,2.236-2.236a.96.96,0,0,1,1.357,1.357Zm0-5.821L7.159,15.877a.959.959,0,0,1-1.357,0L4.428,14.5a.96.96,0,0,1,1.357-1.357l.7.7,2.236-2.236a.96.96,0,1,1,1.357,1.357Zm0-5.821L7.159,10.056a.959.959,0,0,1-1.357,0L4.428,8.682A.96.96,0,0,1,5.785,7.325l.7.7L8.717,5.784a.96.96,0,1,1,1.357,1.357Zm9.145,19.737H13.125a.96.96,0,1,1,0-1.919h6.094a.96.96,0,0,1,0,1.919Zm0-6.044H13.125a.96.96,0,1,1,0-1.919h6.094a.96.96,0,0,1,0,1.919Zm0-5.821H13.125a.96.96,0,0,1,0-1.919h6.094a.96.96,0,0,1,0,1.919Zm0-5.821H13.125a.96.96,0,1,1,0-1.919h6.094a.96.96,0,0,1,0,1.919Z" transform="translate(0 0)" fill="#2f2d64"/>
  <path id="Path_556" data-name="Path 556" d="M416.69,3.257a3.257,3.257,0,0,0-6.513,0V6.071h6.513Z" transform="translate(-383.939 0)" fill="#2f2d64"/>
  <path id="Path_557" data-name="Path 557" d="M410.234,389.818a.959.959,0,0,0,.03.727l2.3,5.005a.96.96,0,0,0,1.744,0l2.3-5.005a.959.959,0,0,0,.03-.727l-.59-1.629h-5.22Z" transform="translate(-383.938 -363.357)" fill="#2f2d64"/>
  <path id="Path_558" data-name="Path 558" d="M416.69,138.869V124.906h-6.513v13.963a.96.96,0,0,0,.96.96h4.594A.96.96,0,0,0,416.69,138.869Z" transform="translate(-383.939 -116.916)" fill="#2f2d64"/>
</svg>
