<svg xmlns="http://www.w3.org/2000/svg" width="863.115" height="555.861" viewBox="0 0 863.115 555.861">
  <g id="Group_4447" data-name="Group 4447" transform="translate(-2644.474 -2554.61)">
    <path id="Path_1015" data-name="Path 1015" d="M740.909,495.334a135.58,135.58,0,0,0-19.231-10.344c-6.119-2.622-12.821-2.622-12.092-10.781.291-3.06,1.02-6.41-.437-9.179-1.6-2.914-5.536-4.371-6.41-7.576-.874-3.351,1.894-6.41,4.662-8.6s5.973-4.516,6.119-8.013c.291-4.516-4.662-7.43-8.887-9.033a100.57,100.57,0,0,0-34.092-5.973c0-.146.146-.146.146-.291a19.909,19.909,0,0,1-2.768-.291c-3.5-.874-6.411-3.5-9.179-5.973s-5.536-5.1-6.265-8.742c-.583-3.06.291-6.556-1.457-9.179-1.02-1.457-2.622-2.185-3.934-3.351-4.808-3.788-5.391-10.781-8.3-16.172a19.572,19.572,0,0,0-12.821-9.616c-3.5-.874-7.139-.583-10.781-1.165a26.106,26.106,0,0,1-18.794-13.986,41.1,41.1,0,0,1-3.5-14.569c-5.828-.291-12.675,5.682-17.192,8.742a81.338,81.338,0,0,0-16.172,13.841c-8.887,10.2-14.569,24.185-11.8,37.443.583,2.622,1.457,5.391,3.642,6.848,3.788,2.622,9.179.291,12.238-3.205s4.662-8.013,7.576-11.655c2.914-3.5,8.3-5.973,12.238-3.351,3.205,2.185,3.788,6.556,6.556,9.179,1.6,1.6,3.934,2.331,6.119,3.205a65.881,65.881,0,0,1,12.384,6.265,16.821,16.821,0,0,1,6.265,5.682c1.166,2.04,1.6,4.225,2.622,6.41,2.04,4.225,6.119,6.993,9.179,10.635s4.808,9.324,1.748,12.821c-4.079,4.662-13.258,1.894-16.755,6.993-1.311,1.894-1.748,4.516-3.788,5.391a4.921,4.921,0,0,1-2.914.146c-5.828-.728-12.092-2.331-17.046.728-1.311.874-2.622,2.331-2.331,3.788.291,1.6,1.894,2.477,3.205,3.06,6.993,3.06,14.861,4.808,20.834,9.761A24.139,24.139,0,0,1,617.071,500a14.38,14.38,0,0,1,18.5,5.973c1.02,1.894,1.6,4.079,3.059,5.682,2.622,3.06,7.139,3.642,11.218,3.934,4.225.291,8.6.583,12.821.874-3.788-4.808-7.722-10.053-8.159-16.317-.291-6.119,4.954-12.967,10.927-11.655,3.205.728,5.536,3.205,8.3,4.662a28.467,28.467,0,0,0,6.848,2.04c19.814,3.642,39.482,7.139,59.442,10.344a39.833,39.833,0,0,0,7.285.728,7.4,7.4,0,0,0,.437-2.477C747.61,500.287,744.114,497.519,740.909,495.334Z" transform="translate(2758.827 2543.147)" fill="#efd36a" stroke="#707070" stroke-width="1"/>
    <path id="Path_1017" data-name="Path 1017" d="M830.722,479.537a58.732,58.732,0,0,1-7.285-.728C803.624,475.6,783.81,472.252,764,468.464a23.139,23.139,0,0,1-6.848-2.04c-2.914-1.457-5.245-4.079-8.3-4.662-5.973-1.311-11.364,5.391-10.927,11.655.291,6.119,4.225,11.364,8.159,16.318-4.225-.291-8.6-.583-12.821-.874-4.079-.291-8.6-.874-11.218-3.934-1.457-1.6-2.04-3.788-3.059-5.682a14.815,14.815,0,0,0-16.755-6.556,21.741,21.741,0,0,0-3.351,3.934,10.384,10.384,0,0,1-2.477,3.06c-1.894,1.457-4.371,1.457-6.7,1.894-2.331.291-4.954,1.166-5.828,3.5-.437,1.02-.291,2.185-.583,3.205-.874,2.185-3.642,3.205-5.973,2.622s-4.225-2.04-6.265-3.5c-4.954-3.642-11.073-6.848-17.046-5.536-5.245,1.02-9.47,1.457-12.967,5.536a115.881,115.881,0,0,1-14.861,14.424c-2.914,2.331-6.119,4.516-9.761,5.245-4.371.728-8.6-1.02-12.821-2.331a79.518,79.518,0,0,0-26.807-3.642c-3.06.146-6.265.291-8.742-1.311s-3.642-5.828-1.166-7.576c-1.02-2.331-2.768-9.761-4.953-10.781-2.768-1.311-6.119,2.477-9.47,0-1.6-1.166-1.748-4.079-2.622-5.682a16.832,16.832,0,0,0-5.245-5.391c-3.788-2.622-8.45-3.934-12.821-5.1-3.788-1.02-7.43-2.04-11.218-3.06a11.607,11.607,0,0,1-5.1-2.331c-1.457-1.166-2.185-3.06-3.205-4.516-3.205-4.808-8.6-7.722-13.7-10.344-8.45-4.079-17.192-7.576-24.913-12.967a50.365,50.365,0,0,1-10.2-9.033c-2.768-3.205-3.788-7.43-6.41-10.635-4.516-5.682-15.735-8.3-22.582-9.324-8.013-1.311-16.172-1.166-24.331-1.02-9.616.291-19.377.437-28.993,2.185-4.225.728-8.45,1.748-12.092,3.934a24.515,24.515,0,0,0-4.225,3.5,7.7,7.7,0,0,1,1.894-.146c3.5.146,6.265,3.06,7.867,6.119s2.331,6.556,3.642,9.761c3.788,8.3,11.947,13.549,18.066,20.251,2.331,2.622,4.516,5.536,6.993,8.159,4.516,4.371,10.344,7.139,16.026,10.2,1.748,1.02,3.642,2.04,4.371,3.934.874,2.331-5.1,9.179-6.41,11.51-1.166,2.331-2.04,5.245-.583,7.285a6.663,6.663,0,0,0,5.391,2.331c5.536,0,10.344-3.642,15.152-6.265A50.132,50.132,0,0,1,455.42,479.1a17.328,17.328,0,0,1,6.119.291c5.245,1.311,8.6,6.265,12.384,10.2a40.281,40.281,0,0,0,24.913,11.947,12.132,12.132,0,0,1,4.662,1.02c1.457.874,2.331,2.477,3.5,3.788,8.887,10.635,25.933-.437,34.092-6.7,1.02-.874,2.331-1.748,3.642-1.311.874.291,1.311,1.166,1.748,1.894,3.06,5.973,4.808,14.278,11.364,15.152-3.788,3.351-10.053.874-14.715,3.06-6.7,3.205-5.245,13.986.291,17.483,8.45,5.391,22.728,3.788,31.615.291,4.225-1.748,8.45-4.079,12.967-3.934,3.788.146,7.285,2.04,10.635,3.5,12.821,5.391,26.37,3.5,38.9-1.457,5.682-2.185,10.927-5.536,16.755-7.576,10.2-3.5,21.562-.583,32.052,2.185,5.828,1.6,13.7,1.457,19.523,3.351a181.555,181.555,0,0,0,29.284,6.7,42.3,42.3,0,0,0,12.092.437c4.225-.583,8.3-2.477,12.384-3.642,7.867-2.331,22.437-2.04,26.807-10.344,1.311-2.477,1.311-5.973-.728-8.013-2.185-2.04-6.265-2.331-7.139-5.245a5.394,5.394,0,0,1,.874-4.225c2.477-4.225,6.993-6.848,11.655-8.3s9.47-2.185,14.278-3.351a56.211,56.211,0,0,0,20.251-10.053c2.622-2.04,5.1-4.662,5.682-7.722C830.868,478.809,830.868,479.1,830.722,479.537Z" transform="translate(2675.569 2570.308)" fill="#b3c977" stroke="#707070" stroke-width="1"/>
    <path id="Path_1018" data-name="Path 1018" d="M101.692,239.619c-6.848-7.576-13.841-25.2-1.457-31.615,3.934-2.04,9.179-1.6,12.384-4.662,4.225-3.788,3.06-10.927,6.119-15.735,2.914-4.516,9.033-5.828,14.424-5.828,4.808,0,9.179,1.02,13.841,1.748-.291-2.768-3.934-5.973-5.1-8.742a22.535,22.535,0,0,1-2.185-11.073c.437-7.576,6.119-15.006,13.7-15.88,4.954-.583,9.907,1.6,14.715,2.914,4.954,1.166,10.927,1.02,13.986-3.06,6.119-8.159-6.41-22,.728-29.43,4.953-4.954,13.4-1.6,19.523-1.894,1.166,5.391,2.331,10.927,4.662,15.88,2.477,4.954,6.41,9.47,11.51,11.51,2.04.728,4.225,1.166,5.973,2.331a3.189,3.189,0,0,1,1.311,1.457,4.187,4.187,0,0,1-.437,3.205c-.728,1.748-3.5,5.828-3.351,7.576.291,2.331,2.185,2.04,4.808,2.331,4.953.437,9.907,0,14.715,1.457,5.973,1.748,11.655,9.761,6.993,15.443a24.582,24.582,0,0,0,14.423,1.748,14.443,14.443,0,0,0,9.907-8.887c.874-2.477,1.166-5.391-.437-7.43-2.04-2.768-6.556-3.351-8.013-6.556a7.987,7.987,0,0,1-.583-3.642c-.146-3.351-.146-6.556-.291-9.907a46.938,46.938,0,0,0,21.125-2.331c7.139-2.331,16.172-1.6,23.748-1.166,4.808.291,9.907.874,13.7,3.788,2.185,1.6,3.934,3.934,6.265,5.245a36.717,36.717,0,0,0,5.682,1.748A18.558,18.558,0,0,1,346.6,164.15c.583,3.205.437,6.556,2.04,9.324a15.3,15.3,0,0,0,4.516,4.662c11.51,9.033,23.165,18.211,34.675,27.244,4.954,3.934,10.053,7.867,14.569,12.238a16.51,16.51,0,0,0,3.934,3.205c3.205,1.6,6.993.728,10.49,1.457s6.848,4.954,4.516,7.576c-1.02,1.02-2.477,1.457-3.5,2.477-2.04,2.185,0,6.119,2.914,7.139s5.973.437,8.887.291c3.06,0,6.556.874,7.722,3.642.728,1.748.291,4.079,1.748,5.536,1.02,1.02,2.477,1.166,3.788,1.6,3.788,1.457,5.536,6.265,4.662,10.344s-3.642,7.285-6.556,10.344A114.028,114.028,0,0,1,397.3,299.352c-1.894.728-4.079,1.457-4.808,3.351-1.6,4.225,4.225,5.973,4.808,9.616.728,4.808-4.516,5.1-7.576,3.06-1.894-1.311-3.5-3.205-5.391-4.516a12.769,12.769,0,0,0-16.026,1.6,43.2,43.2,0,0,0-2.185-12.238,23.826,23.826,0,0,1-17.337,4.808c-4.225-.583-8.3-2.331-12.53-3.06-9.907-1.748-19.96,1.894-29.867.583v-3.5c-2.622.291-6.41-.146-6.41-2.914-.146-2.331,2.914-3.351,5.245-3.788,8.742-1.166,17.483-2.331,26.079-3.5,1.6-2.331-2.477-4.371-5.245-4.371-9.47.146-18.94.146-28.41.291-2.768,0-6.119-.291-7.139-2.914-1.6-3.934,4.225-6.7,8.45-6.265,6.265.583,12.967,3.06,18.794.728,2.768-1.166,5.1-3.205,7.867-4.079,4.662-1.457,9.761.583,13.986,3.205s8.3,5.682,13.112,6.41,10.781-2.04,11.073-6.993c.291-3.351-2.04-6.265-4.371-8.6-16.755-16.172-43.125-17.774-61.919-31.469-5.682-4.079-10.781-9.324-17.046-12.384-8.742-4.225-19.086-3.788-28.847-3.934-17.629-.437-35.112-3.351-52.449-6.556-18.211-3.205-36.423-6.7-54.78-7.576-7.43-.437-15.3-.291-22,3.06C110.871,213.831,105.772,227.235,101.692,239.619Z" transform="translate(2551.573 2439.441)" fill="#e0d16c" stroke="#707070" stroke-width="1"/>
    <g id="Group_4297" data-name="Group 4297" transform="translate(2926.292 2951.207)">
      <path id="Path_1019" data-name="Path 1019" d="M399.12,415.183c-1.02-.583-2.185-.874-3.06-1.457-2.914-1.748-3.205-5.682-4.225-8.887a19.041,19.041,0,0,0-14.569-13.258c-11.218-2.185-23.456,5.828-33.509.583-3.351-1.748-6.265-4.808-10.053-4.662-2.185,0-4.225,1.311-6.41,1.894-3.934,1.311-8.159.583-12.384.437a58.184,58.184,0,0,0-28.41,5.682c5.1,2.622,7.576,8.45,9.179,13.986s2.914,11.364,6.7,15.735c2.477,2.768,5.682,4.662,8.013,7.43,2.622,3.205,3.642,7.43,5.682,11.073a24.611,24.611,0,0,0,11.655,10.781c4.662,2.185,10.2,2.914,13.986,6.41,1.748,1.6,4.225,3.642,5.828,2.185l2.622,1.748a58.847,58.847,0,0,0,14.278.874c4.516-.437,12.675-2.768,14.278-7.722,1.6-4.808-3.934-11.364-6.119-15.3-3.06-5.682.291-10.49,2.477-16.172a15.358,15.358,0,0,0,13.986-1.166c3.788-2.331,6.993-6.556,11.218-7.43A2.365,2.365,0,0,0,399.12,415.183Z" transform="translate(-286.5 -387.497)" fill="#b3c977" stroke="#707070" stroke-width="1"/>
    </g>
    <g id="Group_4299" data-name="Group 4299" transform="translate(2662.588 2721.696)">
      <path id="Path_1020" data-name="Path 1020" d="M141.2,232.493c-2.185.437-3.5,0-4.516-.874,4.225,5.1,11.51,8.3,12.238,14.861-6.41,0-12.967.146-19.377.291-4.662.146-9.47.291-13.841,1.894-4.225,1.6-10.344,5.245-10.2,10.053,0,4.808,2.185,13.258,4.662,17.483,2.185,3.788,5.828,6.265,9.179,8.887a107.864,107.864,0,0,1,26.37,29.867,39.412,39.412,0,0,0,5.973,8.6c2.185,2.185,4.954,3.788,7.285,5.536,9.033,6.848,13.841,17.774,19.96,27.244a137.821,137.821,0,0,0,19.96,24.039q5.463,5.463,11.364,10.49c2.622,2.331,5.536,4.225,8.013,6.556,2.331,2.185,4.662,4.662,7.867,5.536a12.5,12.5,0,0,0,3.351.291c6.41.291,12.967.437,19.377.728,3.788.146,7.576.291,11.218.146q5.026-.219,10.053-.874c8.6-.874,17.046-1.894,25.642-2.768a2.812,2.812,0,0,0,1.457-.437,2.35,2.35,0,0,0,.874-2.622c-.291-1.165-1.166-1.748-1.748-2.622-.728-1.311-1.02-2.768-1.6-4.079a36.487,36.487,0,0,0-5.1-8.159c-6.556-8.45-19.231-15.3-17.774-27.681a5.876,5.876,0,0,0,0-1.6c-.291-1.166-1.748-1.6-2.914-1.457s-2.185.728-3.351.874c-4.225.583-7.43-3.934-9.179-7.867-1.6-3.788-2.914-8.159-.874-11.655,2.04-3.351,6.265-4.371,10.053-5.536a72.926,72.926,0,0,0,7.285-2.622,8.369,8.369,0,0,0,3.205-2.185,7.569,7.569,0,0,0,1.02-3.642c.728-8.159,1.166-19.96-8.159-23.748-2.04-.874-4.371-1.02-6.556-1.457a21.746,21.746,0,0,1-14.132-10.053c-1.6-2.768-2.768-5.973-5.1-8.159-3.205-2.914-7.722-3.205-11.947-3.788-9.761-1.311-19.086-4.225-28.41-7.43-9.761-3.205-19.814-6.848-27.39-13.549-5.828-5.245-10.053-12.675-10.344-20.4a74.091,74.091,0,0,0-8.013-.583C146.732,229.579,143.526,232.056,141.2,232.493Z" transform="translate(-105.498 -229.965)" fill="#57bb8b" stroke="#707070" stroke-width="1"/>
    </g>
    <g id="Group_4301" data-name="Group 4301" transform="translate(2973.06 2739.338)">
      <path id="Path_1021" data-name="Path 1021" d="M326.9,306.8c5.682-4.225,14.278-2.331,19.668,2.185,5.536,4.516,8.887,11.073,12.675,17.192s8.45,12.092,15.152,14.569c4.371,1.6,9.179,1.457,13.4,3.5s7.139,7.867,4.079,11.218c5.1,1.748,10.2,3.642,15.3,5.391,2.185.728,4.662,1.894,5.536,4.079.728,2.331-.728,5.245.728,7.285,1.166,1.6,3.788,1.748,4.953,3.351,1.166,1.457.874,3.5,1.02,5.391.728,8.45,11.364,13.112,12.821,21.417,1.02,5.828-1.894,13.7,3.351,16.172,1.457.583,3.06.583,4.516,1.165,5.245,2.04,4.662,9.907,8.887,13.7,1.894,1.748,4.662,2.185,7.139,2.622,15.735,2.768,31.324,5.682,47.058,8.45,8.6,1.6,17.337,3.205,24.913,7.43,8.159,4.516,14.423,11.8,22.145,17.046a50.918,50.918,0,0,0,30.6,8.3c-.583-2.622-1.02-5.828,1.02-7.722,1.894-1.748,4.808-1.311,6.993-2.768,4.516-3.205.583-9.907-1.166-15.152-4.953-15.006,13.549-29.867,9.761-45.31-10.781.583-19.523-8.159-26.662-16.317-5.828-6.556-11.655-12.967-17.337-19.523a78.882,78.882,0,0,1-8.742-11.073c-1.894-3.205-3.351-6.556-5.536-9.47a23.266,23.266,0,0,0-15.88-9.179c-3.5-.291-7.139.146-9.907,2.185-1.894,1.457-3.351,3.642-4.808,5.536A35.416,35.416,0,0,1,472.6,360.851c-7.43-1.894-14.132-6.265-20.251-10.927-2.331-1.748-4.662-3.642-5.973-6.265s-1.166-5.828-1.166-8.742c.146-6.993.291-13.841.583-20.834,0-2.622,0-5.391-1.457-7.43-.583-.874-1.457-1.457-2.185-2.331-3.205-4.225,1.166-10.344,6.119-12.238a19.073,19.073,0,0,1,19.96,4.225c1.311,1.311,2.622,3.06,4.516,3.5,4.662,1.311,7.576-5.391,6.556-10.2-.874-4.808-3.351-9.907-1.02-14.132,2.04-3.642,7.576-5.682,6.556-10.781-.146-.874-.437-2.185.437-2.477-5.245-1.457-11.364-2.768-14.132-8.159-1.748-3.5-2.914-6.993-5.391-10.053-2.185-2.914-2.768-2.04-5.682-.583a38.46,38.46,0,0,1-6.848,2.477c-13.841,3.642-28.556,3.934-42.1,8.45C405,256.39,398.876,259.3,392.32,259.3c-6.7,0-12.967-2.914-19.523-3.788-11.8-1.457-23.165,3.934-34.82,5.973a61.824,61.824,0,0,1-19.377.583,86.57,86.57,0,0,1,7.576,15.152C329.527,286.839,330.692,297.475,326.9,306.8Z" transform="translate(-318.6 -242.074)" fill="#e67b73" stroke="#707070" stroke-width="1"/>
    </g>
    <g id="Group_4303" data-name="Group 4303" transform="translate(3118.897 2687.043)">
      <path id="Path_1022" data-name="Path 1022" d="M422.925,264.923c1.166,2.185,1.748,4.662,2.914,6.848a14.484,14.484,0,0,0,12.529,7.576,13.1,13.1,0,0,0,.291,6.7c4.808-2.622,11.073.437,13.986,5.1s3.351,10.344,4.079,15.735,1.6,11.218,5.245,15.3c5.682,6.556,15.88,6.7,24.622,5.682,5.682-.728,11.51-1.6,16.463-4.516,2.477-1.457,4.662-3.351,7.43-4.079s6.265.437,6.993,3.06c.874,3.205-2.622,6.119-2.477,9.324.146,2.914,3.06,4.954,5.828,5.391s5.682-.437,8.45-1.02a47.106,47.106,0,0,1,16.9-.437c2.914.437,5.828,1.166,8.741.874s5.973-1.6,7.139-4.225c.874-2.04.728-4.225.728-6.41a25.246,25.246,0,0,1,8.45-18.066c3.06-2.622,7.139-5.973,5.536-9.616-.728-1.748-2.622-2.622-4.371-3.5-6.119-3.06-11.947-7.139-16.172-12.529s-6.7-12.384-5.828-19.231c.728-6.41,4.371-12.238,5.1-18.649.437-3.5-.146-6.993.437-10.344,1.02-7.285,5.973-12.967,10.2-19.086l-2.185-.437c-9.033-2.185-17.629-6.119-26.807-7.576-6.993-1.02-13.986-.583-21.125,0-7.576.583-15.3,1.166-22.874,2.477-6.993,1.311-10.927,3.642-16.9,7.139-11.218,6.7-22.145,14.715-29.43,25.933A22.371,22.371,0,0,1,443.176,247c-4.516,3.5-11.51.728-16.463,3.642-2.477,1.311-4.079,3.788-5.973,5.828a25.359,25.359,0,0,1-2.04,1.748c.146.291.291.728.437,1.02C420.011,260.989,421.76,262.738,422.925,264.923Z" transform="translate(-418.7 -206.18)" fill="#fecd67" stroke="#707070" stroke-width="1"/>
    </g>
    <path id="Path_1023" data-name="Path 1023" d="M522.825,219.853c-1.311,3.205-3.642,5.828-5.536,8.887a21.984,21.984,0,0,0-2.185,4.079c-1.166,3.205-1.02,6.7-1.02,10.053a34.406,34.406,0,0,1-1.311,10.2c-1.311,4.225-3.642,8.159-4.371,12.53-1.457,7.722,2.185,15.589,7.43,21.271,4.371,4.662,9.907,8.159,15.443,11.364,2.477,1.457,4.662,3.351,7.139,4.662,2.622,1.457,5.391,2.331,8.013,3.642a51.737,51.737,0,0,1,10.344,5.973c2.914,2.331,5.391,5.391,8.6,7.139,5.682,3.205,12.238,2.331,18.5.291a42.789,42.789,0,0,0,.146-9.616c-.728-4.516-3.788-9.324-5.391-13.549a9.615,9.615,0,0,1-.874-3.934c.291-2.04,2.185-3.642,4.079-4.516,5.1-2.477,11.073-2.185,16.755-2.331a140.38,140.38,0,0,0,44.436-9.033c4.954-1.894,11.51-3.5,14.424.874,2.477,3.642.437,9.616,4.079,12.092a11.418,11.418,0,0,0,3.06,1.311c3.351,1.457,5.391,5.1,8.6,6.993,3.642,2.331,8.45,2.04,12.384.583a24.239,24.239,0,0,0,3.934-1.894v-.146c-1.6-3.642,1.02-7.722,1.02-11.655a9.219,9.219,0,0,0-3.788-7.867c-2.331-1.748-5.828-3.06-5.682-5.973,0-1.166.728-2.185,1.02-3.351.728-4.371-5.828-8.741-3.351-12.384a12.586,12.586,0,0,1,2.04-1.894c2.04-2.04,1.748-5.536.146-8.013-1.6-2.331-4.225-3.788-6.993-4.808a34.983,34.983,0,0,0-25.2.291c-1.6.583-3.059,1.457-4.808,1.311-2.622,0-4.954-2.04-6.265-4.371s-2.04-4.953-3.351-7.285c-5.391-10.053-17.92-12.821-28.41-16.9-11.51-4.516-27.244-17.483-40.211-13.549-6.848,2.04-10.635,9.47-16.463,13.7-7.576,5.536-16.318,5.391-24.622,3.5C524.865,217.667,523.408,218.541,522.825,219.853Z" transform="translate(2741.036 2477.855)" fill="#ffd666" stroke="#707070" stroke-width="1"/>
    <path id="Path_1024" data-name="Path 1024" d="M607.54,335.673c.729-3.642,3.642-6.265,4.954-9.616,2.04-4.954.291-10.927-3.205-15.152-3.351-4.225-8.3-6.993-13.112-9.47a7.54,7.54,0,0,1-3.642-3.06,9.423,9.423,0,0,1-.583-2.914,62.13,62.13,0,0,1,.291-7.285c-6.411,2.04-12.967,2.914-18.5-.291-3.205-1.894-5.682-4.808-8.6-7.139a51.735,51.735,0,0,0-10.344-5.973c-2.622-1.311-5.391-2.185-8.013-3.642-1.166-.728-2.331-1.457-3.5-2.331.146.291.291.437.437.728,1.6,3.642-2.477,6.993-5.536,9.616a25.246,25.246,0,0,0-8.45,18.066,20.774,20.774,0,0,1-.291,5.245,13.666,13.666,0,0,1-.583,5.391c-2.04,6.41-9.033,9.616-15.443,11.073s-13.549,1.748-19.086,5.391a6.127,6.127,0,0,0-2.477,2.622c-.583,1.894.874,3.788,1.748,5.536a14.106,14.106,0,0,1,.728,12.092c-1.02,2.477-2.768,4.516-3.642,6.993a12.89,12.89,0,0,0,3.5,13.258,14.668,14.668,0,0,0,13.549,3.06c4.516-1.311,9.324-4.516,13.4-2.331,2.623,1.457,3.788,4.662,6.411,6.119,3.059,1.6,6.7-.146,9.907-1.6,9.47-4.225,19.814-6.119,30.012-8.013,6.119-1.166,12.238-2.185,18.357-3.351a48.2,48.2,0,0,1,8.013-1.02c8.741-.291,17.192,3.351,24.039,8.742-.583-5.391-1.457-10.49-4.079-15.152C611.328,346.017,606.521,341.355,607.54,335.673Z" transform="translate(2732.808 2509.476)" fill="#d1cd6f" stroke="#707070" stroke-width="1"/>
    <path id="Path_1025" data-name="Path 1025" d="M560.3,282.1Z" transform="translate(2764.896 2515.553)" fill="#d1cd6f" stroke="#707070" stroke-width="1"/>
    <g id="Group_4306" data-name="Group 4306" transform="translate(3095.571 2765.801)">
      <path id="Path_1026" data-name="Path 1026" d="M567.774,375.425c-2.622-1.311-3.788-4.662-6.41-6.119-4.079-2.331-8.887,1.02-13.4,2.331a14.287,14.287,0,0,1-13.549-3.06c-3.5-3.351-5.1-8.742-3.5-13.258.874-2.477,2.622-4.662,3.642-6.993a14.106,14.106,0,0,0-.728-12.092c-1.02-1.748-2.331-3.642-1.748-5.536a4.377,4.377,0,0,1,2.477-2.622c5.682-3.642,12.675-3.934,19.086-5.391s13.549-4.662,15.443-11.073a13.382,13.382,0,0,0,.583-5.391,10.025,10.025,0,0,1-.437,1.166,8.334,8.334,0,0,1-7.139,4.225,44.471,44.471,0,0,1-8.742-.874,47.106,47.106,0,0,0-16.9.437c-2.768.583-5.682,1.457-8.45,1.02s-5.682-2.477-5.828-5.391c-.146-3.351,3.205-6.265,2.477-9.324-.728-2.768-4.225-3.788-6.993-3.06s-4.953,2.622-7.43,4.079c-4.953,2.914-10.781,3.934-16.463,4.516-8.742,1.02-18.794.874-24.622-5.682-3.642-4.079-4.516-9.907-5.245-15.3s-1.165-11.073-4.079-15.735-9.179-7.722-13.986-5.1c0-.146,0-.291-.146-.291-1.748,2.04-4.516,3.934-5.828,6.265-2.331,4.225,0,9.324,1.02,14.132s-1.894,11.51-6.556,10.2c-1.894-.437-3.06-2.185-4.516-3.5a19.072,19.072,0,0,0-19.96-4.225c-4.954,1.894-9.179,8.013-6.119,12.238.583.874,1.457,1.457,2.185,2.331,1.6,2.04,1.6,4.808,1.457,7.43-.146,6.993-.291,13.841-.583,20.834-.146,2.914-.146,6.119,1.166,8.742s3.642,4.516,5.973,6.265c6.119,4.662,12.821,9.033,20.251,10.927a35.416,35.416,0,0,0,35.986-12.384c1.457-1.894,2.768-4.079,4.808-5.536a13.8,13.8,0,0,1,9.907-2.185,22.452,22.452,0,0,1,15.88,9.179c2.185,2.914,3.642,6.41,5.536,9.47a71.285,71.285,0,0,0,8.742,11.073c5.828,6.556,11.655,12.967,17.337,19.523,4.516,5.1,9.47,10.344,15.589,13.549a33.8,33.8,0,0,0,5.245,2.331c2.622.874,4.371-.146,6.848-1.166a20.782,20.782,0,0,1-.437-10.344,8.789,8.789,0,0,1,.874-2.768c2.331-4.371,8.45-3.788,11.51-7.43A6.117,6.117,0,0,1,567.774,375.425Z" transform="translate(-402.69 -260.237)" fill="#84c281" stroke="#707070" stroke-width="1"/>
    </g>
    <path id="Path_1027" data-name="Path 1027" d="M612.743,347.756c-.437-2.914,1.02-9.033-1.6-10.781a48.458,48.458,0,0,0-15.443-6.556c-5.391-1.165-9.907-.728-15.443.291-6.119,1.165-12.238,2.185-18.357,3.351-10.2,1.894-20.542,3.788-30.012,8.013a34.225,34.225,0,0,1-5.391,2.04c-3.059,3.788-9.324,3.205-11.51,7.43a10.16,10.16,0,0,0-.874,2.768,20.784,20.784,0,0,0,.437,10.344c-.291.146-.437.291-.728.437a.508.508,0,0,0-.291.146c0,.146-.146.146-.146.291a1.847,1.847,0,0,0,.146.874,4.958,4.958,0,0,1,.146,1.457,5.174,5.174,0,0,0,.292,1.457,23.6,23.6,0,0,1-.146,3.205c-.437,4.516-2.331,8.887-4.225,13.112a128.41,128.41,0,0,0-5.536,12.967,21.42,21.42,0,0,0-.437,12.821c1.748,5.245,5.828,12.092,1.166,15.152a4.935,4.935,0,0,1-2.185.874c.728.728,1.6,1.457,2.477,2.185a25.73,25.73,0,0,0,18.794,5.245c6.848-1.02,13.112-4.954,19.814-6.41a29.2,29.2,0,0,1,10.053-.437,7.557,7.557,0,0,1,3.205,1.02c2.185,1.748,1.748,5.1,2.477,7.722,1.166,4.079,5.682,6.41,9.761,7.285,4.225.874,8.6.583,12.675,1.6s8.3,4.079,8.741,8.3c.583,5.682-5.682,10.781-4.371,16.318a6.694,6.694,0,0,0,7.722,4.953c3.059-.583,5.245-3.351,8.013-5.1a16.766,16.766,0,0,1,3.642-1.748v-.146c-.291-1.6.874-2.914,2.331-3.788,4.954-3.06,11.218-1.6,17.046-.728a4.92,4.92,0,0,0,2.914-.146c2.04-.874,2.477-3.642,3.788-5.391,3.642-5.1,12.675-2.331,16.755-6.993,3.06-3.5,1.311-9.179-1.748-12.821s-7.139-6.41-9.179-10.635c-1.02-2.04-1.457-4.371-2.622-6.41a16.822,16.822,0,0,0-6.265-5.682,75.918,75.918,0,0,0-12.384-6.265c-2.185-.874-4.371-1.6-6.119-3.205-2.768-2.622-3.5-7.139-6.556-9.179-3.788-2.622-9.179-.146-12.238,3.351-2.914,3.5-4.516,8.013-7.576,11.655-3.06,3.5-8.45,5.828-12.238,3.205-2.185-1.6-3.205-4.225-3.642-6.848-2.768-13.258,2.914-27.244,11.8-37.443a77.443,77.443,0,0,1,16.172-13.841c4.516-3.06,11.51-9.033,17.192-8.742" transform="translate(2738.533 2537.313)" fill="#f3ac6c" stroke="#707070" stroke-width="1"/>
    <path id="Path_1028" data-name="Path 1028" d="M679.114,485.663a23.861,23.861,0,0,0-7.576-24.768c-5.973-4.954-13.841-6.556-20.834-9.761-1.457-.583-3.059-1.457-3.205-3.06v.146a11.986,11.986,0,0,0-3.642,1.748c-2.622,1.748-4.808,4.371-8.013,5.1a6.821,6.821,0,0,1-7.722-4.953c-1.166-5.682,4.953-10.635,4.371-16.318-.437-4.225-4.516-7.285-8.742-8.3-4.079-1.02-8.6-.874-12.675-1.6-4.225-.874-8.6-3.205-9.761-7.285-.874-2.622-.291-6.119-2.477-7.722a5.977,5.977,0,0,0-3.205-1.02,29.2,29.2,0,0,0-10.053.437c-6.848,1.457-12.967,5.391-19.814,6.41a24.926,24.926,0,0,1-18.794-5.245,16.654,16.654,0,0,1-2.477-2.185c-1.748.437-3.5.583-4.808,1.748-2.04,1.894-1.6,5.1-1.02,7.722a49.412,49.412,0,0,1-30.6-8.3c-7.722-5.1-13.986-12.53-22.145-17.046-7.576-4.225-16.318-5.828-24.913-7.43-15.735-2.768-31.324-5.682-47.058-8.45a35.838,35.838,0,0,1-4.225-1.02c-.583,8.013,1.457,17.046,8.6,21.708,2.768,1.748,5.973,2.622,8.887,4.371,2.768,1.748,5.245,4.808,4.516,8.013-.874,4.371-6.119,5.828-9.616,8.6,5.245,1.457,10.635,3.788,13.4,7.43,2.477,3.205,3.642,7.43,6.41,10.635a46.319,46.319,0,0,0,10.2,9.033c7.722,5.245,16.463,8.887,24.913,12.967,5.245,2.477,10.635,5.536,13.7,10.344a20.918,20.918,0,0,0,3.205,4.516,16.213,16.213,0,0,0,5.1,2.331c3.788,1.02,7.43,2.04,11.218,3.06,4.516,1.166,9.033,2.477,12.821,5.1a18.5,18.5,0,0,1,5.245,5.391c1.02,1.748,1.02,4.516,2.622,5.682,3.351,2.477,6.7-1.311,9.47,0,2.185,1.02,3.934,8.6,4.954,10.781-2.477,1.748-1.457,5.973,1.166,7.576s5.828,1.311,8.741,1.311a83.362,83.362,0,0,1,26.807,3.642c4.225,1.311,8.45,3.06,12.821,2.331,3.642-.583,6.848-2.914,9.761-5.245a115.889,115.889,0,0,0,14.861-14.423c3.5-4.079,7.722-4.371,12.967-5.536,6.119-1.311,12.092,1.894,17.046,5.536a17.757,17.757,0,0,0,6.265,3.5c2.331.583,5.245-.437,5.973-2.622.437-1.02.291-2.185.583-3.205.728-2.185,3.5-3.205,5.828-3.5s4.954-.291,6.7-1.894a16.292,16.292,0,0,0,2.477-3.06,7.852,7.852,0,0,0,1.02-1.894A1.961,1.961,0,0,0,679.114,485.663Z" transform="translate(2696.055 2557.772)" fill="#fac569" stroke="#707070" stroke-width="1"/>
    <g id="Group_4310" data-name="Group 4310" transform="translate(2881.128 2801.48)">
      <path id="Path_1029" data-name="Path 1029" d="M364.7,408.437l.437-.437h-.291A.535.535,0,0,1,364.7,408.437Z" transform="translate(-205.605 -228.402)" fill="#ed9470" stroke="#707070" stroke-width="1"/>
      <path id="Path_1030" data-name="Path 1030" d="M364.7,408.3Z" transform="translate(-205.605 -228.265)" fill="#ed9470" stroke="#707070" stroke-width="1"/>
      <path id="Path_1031" data-name="Path 1031" d="M477.826,413.77c-4.225-3.642-3.788-11.655-8.887-13.7-1.457-.583-3.205-.437-4.516-1.166-5.245-2.477-2.331-10.49-3.351-16.172-1.457-8.3-12.092-12.967-12.821-21.417-.146-1.894.146-3.934-1.02-5.391-1.311-1.6-3.788-1.748-4.953-3.351-1.457-2.04,0-4.953-.728-7.285-.728-2.185-3.205-3.351-5.536-4.079-5.1-1.748-10.2-3.642-15.3-5.391,3.06-3.5,0-9.179-4.079-11.218s-9.033-1.894-13.4-3.5c-6.7-2.477-11.364-8.45-15.152-14.569s-7.139-12.675-12.675-17.192c-4.954-4.079-12.384-6.119-17.92-3.351a35.971,35.971,0,0,0-10.053,14.569c-1.02,3.06-1.748,6.41-3.642,8.887-2.331,3.06-6.41,5.245-6.848,9.033-.291,2.622,1.166,5.682-.728,7.43-1.457,1.457-3.642,1.02-5.682,1.02-6.993.146-11.8,9.47-8.013,15.3,4.225,6.556,15.589,7.867,16.318,15.589.291,3.788-2.622,7.43-6.119,8.887-3.642,1.457-7.576,1.311-11.364.728-8.3-1.166-16.318-3.642-24.768-3.934s-17.337,2.04-22.437,8.741c-2.914,3.934-4.225,8.742-6.7,12.967s-7.139,7.867-11.947,6.848c3.06,6.556,6.265,13.258,12.092,17.483,3.934,2.914,8.887,4.225,12.53,7.576,4.808,4.516,6.265,11.51,10.2,16.755a25.147,25.147,0,0,0,10.927,8.159A59.782,59.782,0,0,1,329.22,436.5c4.079.291,8.45.874,12.384-.437,2.185-.729,4.079-1.894,6.41-1.894,3.788-.146,6.7,3.06,10.053,4.662,10.053,5.1,22.437-2.768,33.509-.583A19.284,19.284,0,0,1,406.145,451.5c.874,3.205,1.311,7.139,4.225,8.887,1.02.583,2.185.874,3.06,1.457a2.869,2.869,0,0,1,1.457,2.185h.291a16.848,16.848,0,0,1,3.642-2.914c3.642-2.185,7.867-3.205,12.092-3.934,9.47-1.6,19.231-1.894,28.993-2.185,8.159-.146,16.318-.291,24.331,1.02a85.436,85.436,0,0,1,8.6,1.894c3.5-2.622,8.6-4.225,9.324-8.45.583-3.205-1.748-6.265-4.516-8.013s-6.119-2.622-8.887-4.371c-7.139-4.662-9.324-13.7-8.6-21.708" transform="translate(-255.5 -284.727)" fill="#ed9470" stroke="#707070" stroke-width="1"/>
    </g>
    <g id="Group_4312" data-name="Group 4312" transform="translate(2783.514 2891.333)">
      <path id="Path_1032" data-name="Path 1032" d="M386.641,479.562c-3.788-3.5-9.324-4.225-13.986-6.41A25.344,25.344,0,0,1,361,462.371c-2.04-3.642-3.06-7.867-5.682-11.073-2.331-2.914-5.536-4.808-8.013-7.43-3.788-4.371-5.1-10.2-6.7-15.735s-4.079-11.364-9.179-13.986c.146,0,.291-.146.437-.146a24.061,24.061,0,0,1-10.927-8.159c-3.934-5.245-5.391-12.238-10.2-16.755-3.642-3.351-8.6-4.808-12.53-7.576-5.1-3.642-8.3-9.47-11.073-15.3-9.033-6.993-17.192-15.88-27.39-19.814l-.437.437a4.273,4.273,0,0,1-1.457.437c-8.6.874-17.046,1.894-25.642,2.768-3.351.291-6.7.728-10.053.874-3.788.146-7.576,0-11.218-.146-6.41-.291-12.967-.437-19.377-.728a21.736,21.736,0,0,1-3.06-.291,151.9,151.9,0,0,0,9.033,15.735,32.756,32.756,0,0,0,6.556,7.576c3.351,2.477,7.43,3.642,11.218,5.245,3.788,1.748,7.43,4.516,8.45,8.45.728,3.205-.146,6.848,1.6,9.616,1.457,2.04,4.225,2.914,5.682,5.1,1.02,1.457,1.166,3.5,1.748,5.245,2.622,8.887,13.841,12.821,16.755,21.562,1.166,3.351,1.02,7.285,3.351,9.907.874,1.02,2.185,1.748,3.06,2.914,1.894,2.622,1.02,6.119-.291,9.033-2.331,5.245-5.828,9.907-7.43,15.3-1.748,5.391-1.311,12.092,3.205,15.735,2.331,1.894,5.245,2.622,8.013,3.642a34.579,34.579,0,0,1,17.774,15.006c1.02,1.894,2.04,3.934,3.642,5.245,2.185,1.894,5.245,2.185,8.159,2.477a107.286,107.286,0,0,0,38.463-4.516,45.82,45.82,0,0,1,6.41-1.6,51.411,51.411,0,0,1,6.7,0c8.6.146,17.192-2.04,25.5.146,2.477.728,4.954,1.894,7.576,2.185s5.536-.291,7.139-2.477c.728-1.02,1.02-2.477,1.894-3.5,2.477-2.622,6.993-.728,10.053-2.622,3.934-2.477,1.748-8.6-.874-12.529-.146-.146-.291-.437-.437-.583C389.992,482.622,388.1,480.874,386.641,479.562Z" transform="translate(-188.5 -346.4)" fill="#fac569" stroke="#707070" stroke-width="1"/>
    </g>
    <g id="Group_4314" data-name="Group 4314" transform="translate(2721.887 2719.29)">
      <path id="Path_1033" data-name="Path 1033" d="M325.5,285.6Z" transform="translate(-64.275 -202.138)" fill="#efd36a" stroke="#707070" stroke-width="1"/>
      <path id="Path_1034" data-name="Path 1034" d="M188.5,348.7h0a10.909,10.909,0,0,0,3.06.291A10.913,10.913,0,0,1,188.5,348.7Z" transform="translate(-126.872 -173.307)" fill="#efd36a" stroke="#707070" stroke-width="1"/>
      <path id="Path_1035" data-name="Path 1035" d="M194.133,231.353a87.1,87.1,0,0,1-12.384,1.457,92.7,92.7,0,0,1-19.086-1.02,80.5,80.5,0,0,1-11.8-2.331c-1.6-.437-3.351-.874-4.662,0a31.385,31.385,0,0,0,10.49,22.291c7.722,6.848,17.629,10.344,27.39,13.549,9.324,3.06,18.794,6.119,28.41,7.43,4.225.583,8.742,1.02,11.947,3.788,2.331,2.185,3.5,5.391,5.1,8.159a21.745,21.745,0,0,0,14.132,10.053c2.185.437,4.516.583,6.556,1.457,9.179,3.642,8.742,15.443,8.159,23.748a7.57,7.57,0,0,1-1.02,3.642,8.369,8.369,0,0,1-3.205,2.185,61.819,61.819,0,0,1-7.285,2.622c-3.788,1.166-8.013,2.185-10.053,5.536-2.04,3.5-.728,8.013.874,11.655,1.748,3.934,4.808,8.45,9.179,7.867,1.166-.146,2.185-.728,3.351-.874a2.641,2.641,0,0,1,2.914,1.457,2.98,2.98,0,0,1,0,1.6c-1.6,12.384,11.073,19.231,17.774,27.681a36.487,36.487,0,0,1,5.1,8.159c.583,1.311,1.02,2.914,1.6,4.079.583.874,1.457,1.457,1.748,2.622a2.212,2.212,0,0,1-.874,2.622l.437-.437c10.2,3.934,18.357,12.821,27.39,19.814-.291-.728-.728-1.457-1.02-2.185,4.808,1.166,9.324-2.622,11.947-6.848,2.477-4.225,3.788-9.179,6.7-12.967,5.1-6.556,14.132-9.033,22.437-8.742s16.463,2.768,24.768,3.934c3.788.583,7.867.728,11.364-.728,3.642-1.457,6.556-5.1,6.119-8.887-.728-7.722-12.092-9.033-16.318-15.589-3.788-5.828,1.02-15.152,8.013-15.3,2.04,0,4.225.437,5.682-1.02,1.894-1.894.437-4.953.728-7.43.437-3.788,4.516-5.973,6.848-9.033,1.894-2.622,2.622-5.828,3.642-8.887a35.116,35.116,0,0,1,6.848-11.655,2.071,2.071,0,0,0-.874-.291c-5.391-1.748-11.364.146-16.755-1.457-5.536-1.6-9.324-6.556-13.7-10.2-9.033-7.576-21.271-10.053-31.761-15.443-10.2-5.245-18.794-13.258-29.43-17.629-6.265-2.622-13.112-3.788-19.523-5.973-15.88-5.391-29.721-16.9-46.184-20.105-2.914-.583-5.828-.874-8.45-2.331-3.934-2.04-6.265-6.119-9.761-8.887C218.755,225.234,205.642,229.168,194.133,231.353Z" transform="translate(-146.2 -228.313)" fill="#efd36a" stroke="#707070" stroke-width="1"/>
    </g>
    <g id="Group_4316" data-name="Group 4316" transform="translate(2653.703 2644.062)">
      <path id="Path_1036" data-name="Path 1036" d="M167.438,253.053c1.311-.874,3.205-.437,4.662,0,3.788,1.02,7.867,1.6,11.8,2.331a92.7,92.7,0,0,0,19.086,1.02,89.654,89.654,0,0,0,12.384-1.457c11.51-2.185,24.622-6.119,33.8,1.166,3.5,2.768,5.828,6.848,9.761,8.887,2.622,1.311,5.536,1.748,8.45,2.331,16.463,3.351,30.3,14.715,46.184,20.105,6.41,2.185,13.258,3.5,19.523,5.973,10.635,4.371,19.231,12.384,29.43,17.629,10.49,5.391,22.582,7.867,31.761,15.443,4.371,3.642,8.159,8.6,13.7,10.2,5.391,1.6,11.364.728,17.774.874,4.808,0,3.06-23.893.583-30.158a101.488,101.488,0,0,0-6.119-12.675c-2.04-.728-4.079-1.311-6.119-1.894a64.911,64.911,0,0,1-21.854-11.8,7.818,7.818,0,0,1,2.477,3.788c.728,4.808-4.516,5.1-7.576,3.06-1.894-1.311-3.5-3.205-5.391-4.516a12.769,12.769,0,0,0-16.026,1.6,43.2,43.2,0,0,0-2.185-12.238,23.826,23.826,0,0,1-17.337,4.808c-4.225-.583-8.3-2.331-12.53-3.06-9.907-1.748-19.96,1.894-29.867.583v-3.5c-2.622.291-6.41-.146-6.41-2.914-.146-2.331,2.914-3.351,5.245-3.788,8.742-1.166,17.483-2.331,26.079-3.5,1.6-2.331-2.477-4.371-5.245-4.371-9.47.146-18.94.146-28.41.291-2.768,0-6.119-.291-7.139-2.914-1.6-3.934,4.225-6.7,8.45-6.265,6.265.583,12.967,3.06,18.794.728,2.768-1.166,5.1-3.205,7.867-4.079,4.662-1.457,9.761.583,13.986,3.205s8.3,5.682,13.112,6.41,10.781-2.04,11.073-6.993c.291-3.351-2.04-6.265-4.371-8.6C340.083,222.6,313.713,221,294.918,207.305c-5.682-4.079-10.781-9.324-17.046-12.384-8.742-4.225-19.086-3.788-28.847-3.934-17.629-.437-35.112-3.351-52.449-6.556-18.211-3.205-36.423-6.7-54.78-7.576-7.43-.437-15.3-.291-22,3.06-11.218,5.682-16.463,18.5-20.4,30.6,1.457,4.371,4.371,8.45,7.285,12.092a184.2,184.2,0,0,0,16.9,18.357,181.7,181.7,0,0,0,17.192,14.569c.583.437,1.311.874,1.894,1.311a6.534,6.534,0,0,0,1.6-.146c2.185-.437,5.536-2.914,15.589-2.477,2.622.146,5.245.291,8.013.583Z" transform="translate(-99.4 -176.678)" fill="#f5b56a" stroke="#707070" stroke-width="1"/>
    </g>
    <text id="_10" data-name="10" transform="translate(2827.15 2646)" fill="#fff" font-size="30" font-family="SegoeUI-Bold, Segoe UI" font-weight="700"><tspan x="0" y="0">10</tspan></text>
    <text id="_11" data-name="11" transform="translate(2739.15 2698)" fill="#fff" font-size="30" font-family="SegoeUI-Bold, Segoe UI" font-weight="700"><tspan x="0" y="0">11</tspan></text>
    <text id="_42" data-name="42" transform="translate(2742.15 2815)" fill="#fff" font-size="30" font-family="SegoeUI-Bold, Segoe UI" font-weight="700"><tspan x="0" y="0">42</tspan></text>
    <text id="_41" data-name="41" transform="translate(2865.15 2832)" fill="#fff" font-size="30" font-family="SegoeUI-Bold, Segoe UI" font-weight="700"><tspan x="0" y="0">41</tspan></text>
    <text id="_43" data-name="43" transform="translate(2865.15 2986)" fill="#fff" font-size="30" font-family="SegoeUI-Bold, Segoe UI" font-weight="700"><tspan x="0" y="0">43</tspan></text>
    <text id="_44" data-name="44" transform="translate(2962.15 2996)" fill="#fff" font-size="30" font-family="SegoeUI-Bold, Segoe UI" font-weight="700"><tspan x="0" y="0">44</tspan></text>
    <text id="_45" data-name="45" transform="translate(2987.15 2911)" fill="#fff" font-size="30" font-family="SegoeUI-Bold, Segoe UI" font-weight="700"><tspan x="0" y="0">45</tspan></text>
    <text id="_40" data-name="40" transform="translate(3033.15 2803)" fill="#fff" font-size="30" font-family="SegoeUI-Bold, Segoe UI" font-weight="700"><tspan x="0" y="0">40</tspan></text>
    <text id="_39" data-name="39" transform="translate(3144.15 2911)" fill="#fff" font-size="30" font-family="SegoeUI-Bold, Segoe UI" font-weight="700"><tspan x="0" y="0">39</tspan></text>
    <text id="_38" data-name="38" transform="translate(3128.15 2832)" fill="#fff" font-size="30" font-family="SegoeUI-Bold, Segoe UI" font-weight="700"><tspan x="0" y="0">38</tspan></text>
    <text id="_37" data-name="37" transform="translate(3180.15 2763)" fill="#fff" font-size="30" font-family="SegoeUI-Bold, Segoe UI" font-weight="700"><tspan x="0" y="0">37</tspan></text>
    <text id="_32" data-name="32" transform="translate(3304.15 2743)" fill="#fff" font-size="30" font-family="SegoeUI-Bold, Segoe UI" font-weight="700"><tspan x="0" y="0">32</tspan></text>
    <text id="_36" data-name="36" transform="translate(3272.15 2850)" fill="#fff" font-size="30" font-family="SegoeUI-Bold, Segoe UI" font-weight="700"><tspan x="0" y="0">36</tspan></text>
    <text id="_47" data-name="47" transform="translate(3263.15 2931)" fill="#fff" font-size="30" font-family="SegoeUI-Bold, Segoe UI" font-weight="700"><tspan x="0" y="0">47</tspan></text>
    <text id="_46" data-name="46" transform="translate(3237.15 3025)" fill="#fff" font-size="30" font-family="SegoeUI-Bold, Segoe UI" font-weight="700"><tspan x="0" y="0">46</tspan></text>
    <text id="_46-2" data-name="46" transform="translate(3401.15 3006)" fill="#fff" font-size="30" font-family="SegoeUI-Bold, Segoe UI" font-weight="700"><tspan x="0" y="0">46</tspan></text>
  </g>
</svg>
