<svg xmlns="http://www.w3.org/2000/svg" width="736.362" height="474.261" viewBox="0 0 736.362 474.261">
  <g id="Group_4501" data-name="Group 4501" transform="translate(-591.852 -391.402)">
    <path id="Path_1015" data-name="Path 1015" d="M712.394,472.857a115.641,115.641,0,0,0-16.4-8.823c-5.219-2.237-10.935-2.237-10.314-9.2.249-2.61.87-5.468-.373-7.829-1.367-2.485-4.722-3.728-5.468-6.462-.746-2.858,1.615-5.468,3.977-7.332s5.095-3.852,5.219-6.835c.249-3.852-3.977-6.338-7.58-7.7a85.78,85.78,0,0,0-29.078-5.095c0-.124.124-.124.124-.249a16.981,16.981,0,0,1-2.361-.249c-2.982-.746-5.468-2.982-7.829-5.095s-4.722-4.349-5.344-7.456c-.5-2.61.249-5.592-1.243-7.829-.87-1.243-2.237-1.864-3.355-2.858-4.1-3.231-4.6-9.2-7.083-13.794a16.694,16.694,0,0,0-10.935-8.2c-2.982-.746-6.089-.5-9.2-.994a22.267,22.267,0,0,1-16.03-11.93A35.056,35.056,0,0,1,586.14,342.5c-4.971-.249-10.811,4.846-14.663,7.456a69.375,69.375,0,0,0-13.794,11.805c-7.58,8.7-12.427,20.628-10.066,31.936.5,2.237,1.243,4.6,3.107,5.841,3.231,2.237,7.829.249,10.438-2.734s3.977-6.835,6.462-9.941c2.485-2.982,7.083-5.095,10.438-2.858,2.734,1.864,3.231,5.592,5.592,7.829,1.367,1.367,3.355,1.988,5.219,2.734a56.192,56.192,0,0,1,10.563,5.343,14.347,14.347,0,0,1,5.343,4.846c.994,1.74,1.367,3.6,2.237,5.468,1.74,3.6,5.219,5.965,7.829,9.071s4.1,7.953,1.491,10.935c-3.479,3.976-11.308,1.615-14.291,5.965-1.118,1.615-1.491,3.852-3.231,4.6a4.2,4.2,0,0,1-2.485.124c-4.971-.621-10.314-1.988-14.539.621-1.118.746-2.237,1.988-1.988,3.231.249,1.367,1.615,2.112,2.734,2.61,5.965,2.61,12.675,4.1,17.77,8.326a20.589,20.589,0,0,1,6.462,21.125,12.265,12.265,0,0,1,15.782,5.095c.87,1.615,1.367,3.479,2.61,4.846,2.237,2.61,6.089,3.107,9.569,3.355,3.6.249,7.332.5,10.935.746-3.231-4.1-6.586-8.574-6.959-13.918-.249-5.219,4.225-11.06,9.32-9.941,2.734.621,4.722,2.734,7.083,3.977a24.282,24.282,0,0,0,5.841,1.74c16.9,3.107,33.676,6.089,50.7,8.823a33.975,33.975,0,0,0,6.213.621,6.312,6.312,0,0,0,.373-2.113C718.111,477.082,715.128,474.721,712.394,472.857Z" transform="translate(609.017 331.33)" fill="#efd36a" stroke="#707070" stroke-width="1"/>
    <g id="Group_4296" data-name="Group 4296" transform="translate(929.6 747.691)">
      <path id="Path_1016" data-name="Path 1016" d="M684.824,453.5a3.442,3.442,0,0,1-.124,1.118A3.442,3.442,0,0,0,684.824,453.5Z" transform="translate(-287.173 -389.424)" fill="#b3c977" stroke="#707070" stroke-width="1"/>
      <path id="Path_1017" data-name="Path 1017" d="M762.2,468.125a50.094,50.094,0,0,1-6.213-.621c-16.9-2.734-33.8-5.592-50.7-8.823a19.736,19.736,0,0,1-5.841-1.74c-2.485-1.243-4.474-3.479-7.083-3.977-5.095-1.118-9.693,4.6-9.32,9.941.249,5.219,3.6,9.693,6.959,13.918-3.6-.249-7.332-.5-10.935-.746-3.479-.249-7.332-.746-9.569-3.355-1.243-1.367-1.74-3.231-2.609-4.846a12.636,12.636,0,0,0-14.291-5.592,18.544,18.544,0,0,0-2.858,3.355,8.856,8.856,0,0,1-2.113,2.61c-1.615,1.243-3.728,1.243-5.716,1.615-1.988.249-4.225.994-4.971,2.982a21.082,21.082,0,0,0-.5,2.734,4.375,4.375,0,0,1-5.095,2.237,16.3,16.3,0,0,1-5.343-2.982c-4.225-3.107-9.444-5.841-14.539-4.722-4.474.87-8.077,1.243-11.06,4.722a98.837,98.837,0,0,1-12.675,12.3c-2.485,1.988-5.219,3.852-8.326,4.474-3.728.621-7.332-.87-10.935-1.988a67.824,67.824,0,0,0-22.865-3.107c-2.61.124-5.343.249-7.456-1.118s-3.107-4.971-.994-6.462c-.87-1.988-2.361-8.326-4.225-9.2-2.361-1.118-5.219,2.113-8.077,0-1.367-.994-1.491-3.479-2.237-4.846a14.357,14.357,0,0,0-4.474-4.6c-3.231-2.237-7.207-3.355-10.935-4.349-3.231-.87-6.338-1.74-9.569-2.61a9.9,9.9,0,0,1-4.349-1.988c-1.243-.994-1.864-2.61-2.734-3.852-2.734-4.1-7.332-6.586-11.681-8.823-7.207-3.479-14.663-6.462-21.25-11.06a42.959,42.959,0,0,1-8.7-7.7c-2.361-2.734-3.231-6.338-5.468-9.071-3.852-4.846-13.421-7.083-19.261-7.953-6.835-1.118-13.794-.994-20.752-.87-8.2.249-16.527.373-24.729,1.864a29.612,29.612,0,0,0-10.314,3.355,20.911,20.911,0,0,0-3.6,2.982,6.565,6.565,0,0,1,1.615-.124c2.982.124,5.343,2.61,6.71,5.219s1.988,5.592,3.107,8.326c3.231,7.083,10.19,11.557,15.409,17.273,1.988,2.237,3.852,4.722,5.965,6.959,3.852,3.728,8.823,6.089,13.669,8.7,1.491.87,3.107,1.74,3.728,3.355.746,1.988-4.349,7.829-5.468,9.817-.994,1.988-1.74,4.474-.5,6.213a5.683,5.683,0,0,0,4.6,1.988c4.722,0,8.823-3.107,12.924-5.343a42.76,42.76,0,0,1,15.533-4.846,14.779,14.779,0,0,1,5.219.249c4.474,1.118,7.332,5.343,10.563,8.7a34.358,34.358,0,0,0,21.249,10.19,10.348,10.348,0,0,1,3.977.87c1.243.746,1.988,2.113,2.982,3.231,7.58,9.071,22.119-.373,29.078-5.716.87-.746,1.988-1.491,3.107-1.118.746.249,1.118.994,1.491,1.615,2.61,5.095,4.1,12.178,9.693,12.924-3.231,2.858-8.574.746-12.551,2.61-5.716,2.734-4.474,11.929.249,14.912,7.207,4.6,19.386,3.231,26.966.249,3.6-1.491,7.208-3.479,11.06-3.355,3.231.124,6.213,1.74,9.071,2.982,10.935,4.6,22.492,2.982,33.179-1.243,4.846-1.864,9.32-4.722,14.291-6.462,8.7-2.982,18.391-.5,27.339,1.864,4.971,1.367,11.681,1.243,16.652,2.858a154.852,154.852,0,0,0,24.977,5.716A36.079,36.079,0,0,0,691,519.2c3.6-.5,7.083-2.113,10.563-3.107,6.71-1.988,19.137-1.74,22.865-8.823,1.118-2.112,1.118-5.095-.621-6.835-1.864-1.74-5.343-1.988-6.089-4.474a4.6,4.6,0,0,1,.746-3.6c2.113-3.6,5.965-5.841,9.941-7.083s8.077-1.864,12.178-2.858a47.945,47.945,0,0,0,17.273-8.574c2.237-1.74,4.349-3.977,4.846-6.586C762.327,467.5,762.327,467.752,762.2,468.125Z" transform="translate(-364.8 -401.937)" fill="#b3c977" stroke="#707070" stroke-width="1"/>
    </g>
    <path id="Path_1018" data-name="Path 1018" d="M100.477,221.369c-5.84-6.462-11.805-21.5-1.243-26.966,3.355-1.74,7.829-1.367,10.563-3.977,3.6-3.231,2.61-9.32,5.219-13.421,2.485-3.852,7.7-4.971,12.3-4.971,4.1,0,7.829.87,11.805,1.491-.249-2.361-3.355-5.095-4.349-7.456a19.221,19.221,0,0,1-1.864-9.444c.373-6.462,5.219-12.8,11.681-13.545,4.225-.5,8.45,1.367,12.551,2.485,4.225.994,9.32.87,11.93-2.61,5.219-6.959-5.468-18.764.621-25.1,4.225-4.225,11.432-1.367,16.652-1.615.994,4.6,1.988,9.32,3.977,13.545,2.113,4.225,5.468,8.077,9.817,9.817a22.86,22.86,0,0,1,5.095,1.988,2.72,2.72,0,0,1,1.118,1.243,3.571,3.571,0,0,1-.373,2.734c-.621,1.491-2.982,4.971-2.858,6.462.249,1.988,1.864,1.74,4.1,1.988,4.225.373,8.45,0,12.551,1.243,5.095,1.491,9.941,8.326,5.965,13.172a20.967,20.967,0,0,0,12.3,1.491,12.319,12.319,0,0,0,8.45-7.58c.746-2.113.994-4.6-.373-6.338-1.74-2.361-5.592-2.858-6.835-5.592a6.812,6.812,0,0,1-.5-3.107c-.124-2.858-.124-5.592-.249-8.45a40.036,40.036,0,0,0,18.019-1.988c6.089-1.988,13.794-1.367,20.255-.994,4.1.249,8.45.746,11.681,3.231,1.864,1.367,3.355,3.355,5.343,4.474a31.317,31.317,0,0,0,4.846,1.491A15.829,15.829,0,0,1,309.368,157c.5,2.734.373,5.592,1.74,7.953a13.046,13.046,0,0,0,3.852,3.977c9.817,7.7,19.758,15.533,29.575,23.238,4.225,3.355,8.574,6.71,12.427,10.438a14.081,14.081,0,0,0,3.355,2.734c2.734,1.367,5.965.621,8.947,1.243s5.841,4.225,3.852,6.462c-.87.87-2.113,1.243-2.982,2.113-1.74,1.864,0,5.219,2.485,6.089s5.095.373,7.58.249c2.61,0,5.592.746,6.586,3.107.621,1.491.249,3.479,1.491,4.722.87.87,2.113.994,3.231,1.367,3.231,1.243,4.722,5.343,3.977,8.823s-3.107,6.213-5.592,8.823a97.259,97.259,0,0,1-37.28,23.983c-1.615.621-3.479,1.243-4.1,2.858-1.367,3.6,3.6,5.095,4.1,8.2.621,4.1-3.852,4.349-6.462,2.61-1.615-1.118-2.982-2.734-4.6-3.852a10.891,10.891,0,0,0-13.669,1.367,36.852,36.852,0,0,0-1.864-10.438,20.322,20.322,0,0,1-14.788,4.1c-3.6-.5-7.083-1.988-10.687-2.61-8.45-1.491-17.024,1.615-25.475.5V272.07c-2.237.249-5.468-.124-5.468-2.485-.124-1.988,2.485-2.858,4.474-3.231,7.456-.994,14.912-1.988,22.244-2.982,1.367-1.988-2.113-3.728-4.474-3.728-8.077.124-16.155.124-24.232.249-2.361,0-5.219-.249-6.089-2.485-1.367-3.355,3.6-5.716,7.207-5.343,5.343.5,11.06,2.61,16.03.621,2.361-.994,4.349-2.734,6.71-3.479,3.976-1.243,8.326.5,11.93,2.734s7.083,4.846,11.184,5.468,9.2-1.74,9.444-5.965c.249-2.858-1.74-5.343-3.728-7.332-14.291-13.794-36.783-15.16-52.813-26.841-4.846-3.479-9.2-7.953-14.539-10.563-7.456-3.6-16.279-3.231-24.6-3.355-15.036-.373-29.948-2.858-44.736-5.592-15.533-2.734-31.067-5.716-46.724-6.462-6.338-.373-13.048-.249-18.764,2.61C108.306,199.374,103.956,210.806,100.477,221.369Z" transform="translate(498.948 276.253)" fill="#e0d16c" stroke="#707070" stroke-width="1"/>
    <g id="Group_4298" data-name="Group 4298" transform="translate(832.3 729.747)">
      <g id="Group_4297" data-name="Group 4297">
        <path id="Path_1019" data-name="Path 1019" d="M382.558,411.111c-.87-.5-1.864-.746-2.61-1.243-2.485-1.491-2.734-4.846-3.6-7.58a16.241,16.241,0,0,0-12.427-11.308c-9.569-1.864-20.007,4.971-28.581.5-2.858-1.491-5.343-4.1-8.574-3.977-1.864,0-3.6,1.118-5.468,1.615-3.355,1.118-6.959.5-10.563.373a49.628,49.628,0,0,0-24.232,4.846c4.349,2.237,6.462,7.207,7.829,11.93s2.485,9.693,5.716,13.421c2.113,2.361,4.846,3.977,6.835,6.338,2.237,2.734,3.107,6.338,4.846,9.444a20.991,20.991,0,0,0,9.941,9.2c3.977,1.864,8.7,2.485,11.93,5.468,1.491,1.367,3.6,3.107,4.971,1.864l2.237,1.491a50.192,50.192,0,0,0,12.178.746c3.852-.373,10.811-2.361,12.178-6.586,1.367-4.1-3.355-9.693-5.219-13.048-2.61-4.846.249-8.947,2.113-13.794a13.1,13.1,0,0,0,11.93-.994c3.231-1.988,5.965-5.592,9.569-6.338A2.017,2.017,0,0,0,382.558,411.111Z" transform="translate(-286.5 -387.497)" fill="#b3c977" stroke="#707070" stroke-width="1"/>
      </g>
    </g>
    <g id="Group_4300" data-name="Group 4300" transform="translate(607.376 533.988)">
      <g id="Group_4299" data-name="Group 4299">
        <path id="Path_1020" data-name="Path 1020" d="M135.946,232.121a4.154,4.154,0,0,1-3.852-.746c3.6,4.349,9.817,7.083,10.438,12.675-5.468,0-11.06.124-16.527.249-3.977.124-8.077.249-11.805,1.615-3.6,1.367-8.823,4.474-8.7,8.574a37.005,37.005,0,0,0,3.977,14.912c1.864,3.231,4.971,5.343,7.829,7.58A92,92,0,0,1,139.8,302.456a33.616,33.616,0,0,0,5.095,7.332,54.627,54.627,0,0,0,6.213,4.722c7.7,5.841,11.805,15.161,17.024,23.238a117.551,117.551,0,0,0,17.024,20.5q4.66,4.66,9.693,8.947c2.237,1.988,4.722,3.6,6.835,5.592,1.988,1.864,3.977,3.977,6.71,4.722a10.66,10.66,0,0,0,2.858.249c5.468.249,11.06.373,16.527.621,3.231.124,6.462.249,9.568.124q4.287-.186,8.574-.746c7.332-.746,14.539-1.615,21.871-2.361a2.4,2.4,0,0,0,1.243-.373,2,2,0,0,0,.746-2.237c-.249-.994-.994-1.491-1.491-2.237-.621-1.118-.87-2.361-1.367-3.479a31.12,31.12,0,0,0-4.349-6.959c-5.592-7.207-16.4-13.048-15.16-23.611a5.012,5.012,0,0,0,0-1.367c-.249-.994-1.491-1.367-2.485-1.243s-1.864.621-2.858.746c-3.6.5-6.338-3.355-7.829-6.71-1.367-3.231-2.485-6.959-.746-9.941,1.74-2.858,5.343-3.728,8.574-4.722a62.2,62.2,0,0,0,6.213-2.237,7.138,7.138,0,0,0,2.734-1.864,6.456,6.456,0,0,0,.87-3.107c.621-6.959.994-17.024-6.959-20.255a28.053,28.053,0,0,0-5.592-1.243,18.548,18.548,0,0,1-12.054-8.574c-1.367-2.361-2.361-5.095-4.349-6.959-2.734-2.485-6.586-2.734-10.19-3.231-8.326-1.118-16.279-3.6-24.232-6.338-8.326-2.734-16.9-5.84-23.362-11.557-4.971-4.474-8.574-10.811-8.823-17.4a63.2,63.2,0,0,0-6.835-.5C140.668,229.636,137.934,231.748,135.946,232.121Z" transform="translate(-105.498 -229.965)" fill="#57bb8b" stroke="#707070" stroke-width="1"/>
      </g>
    </g>
    <g id="Group_4302" data-name="Group 4302" transform="translate(872.189 549.036)">
      <g id="Group_4301" data-name="Group 4301">
        <path id="Path_1021" data-name="Path 1021" d="M325.683,297.28c4.846-3.6,12.178-1.988,16.776,1.864,4.722,3.852,7.58,9.444,10.811,14.663s7.207,10.314,12.924,12.427c3.728,1.367,7.829,1.243,11.432,2.982s6.089,6.71,3.479,9.569c4.349,1.491,8.7,3.107,13.048,4.6,1.864.621,3.977,1.615,4.722,3.479.621,1.988-.621,4.474.621,6.213.994,1.367,3.231,1.491,4.225,2.858.994,1.243.746,2.982.87,4.6.621,7.207,9.693,11.184,10.935,18.267.87,4.971-1.615,11.681,2.858,13.794,1.243.5,2.61.5,3.852.994,4.474,1.74,3.977,8.45,7.58,11.681,1.615,1.491,3.976,1.864,6.089,2.237,13.421,2.361,26.717,4.846,40.138,7.207,7.332,1.367,14.788,2.734,21.25,6.338,6.959,3.852,12.3,10.066,18.888,14.539a43.43,43.43,0,0,0,26.1,7.083c-.5-2.237-.87-4.971.87-6.586,1.615-1.491,4.1-1.118,5.965-2.361,3.852-2.734.5-8.45-.994-12.924-4.225-12.8,11.557-25.475,8.326-38.647-9.2.5-16.652-6.959-22.741-13.918-4.971-5.592-9.941-11.06-14.788-16.652a67.281,67.281,0,0,1-7.456-9.444c-1.615-2.734-2.858-5.592-4.722-8.077a19.844,19.844,0,0,0-13.545-7.829c-2.982-.249-6.089.124-8.45,1.864a24.889,24.889,0,0,0-4.1,4.722,30.208,30.208,0,0,1-30.694,10.563c-6.338-1.615-12.054-5.343-17.273-9.32a16.1,16.1,0,0,1-5.095-5.343c-1.118-2.237-.994-4.971-.994-7.456.124-5.965.249-11.805.5-17.77,0-2.237,0-4.6-1.243-6.338-.5-.746-1.243-1.243-1.864-1.988-2.734-3.6.994-8.823,5.219-10.438a16.268,16.268,0,0,1,17.024,3.6c1.118,1.118,2.237,2.61,3.852,2.982,3.977,1.118,6.462-4.6,5.592-8.7-.746-4.1-2.858-8.45-.87-12.054,1.74-3.107,6.462-4.846,5.592-9.2-.124-.746-.373-1.864.373-2.113-4.474-1.243-9.693-2.361-12.054-6.959-1.491-2.982-2.485-5.965-4.6-8.574-1.864-2.485-2.361-1.74-4.846-.5a32.8,32.8,0,0,1-5.841,2.113c-11.805,3.107-24.356,3.355-35.913,7.207-5.219,1.74-10.438,4.225-16.03,4.225-5.716,0-11.06-2.485-16.652-3.231-10.066-1.243-19.758,3.355-29.7,5.095a52.733,52.733,0,0,1-16.527.5,73.839,73.839,0,0,1,6.462,12.924C327.92,280.256,328.914,289.327,325.683,297.28Z" transform="translate(-318.6 -242.074)" fill="#e67b73" stroke="#707070" stroke-width="1"/>
      </g>
    </g>
    <g id="Group_4304" data-name="Group 4304" transform="translate(996.579 504.432)">
      <g id="Group_4303" data-name="Group 4303">
        <path id="Path_1022" data-name="Path 1022" d="M422.3,256.284c.994,1.864,1.491,3.977,2.485,5.841a12.354,12.354,0,0,0,10.687,6.462,11.173,11.173,0,0,0,.249,5.716c4.1-2.237,9.444.373,11.93,4.349s2.858,8.823,3.479,13.421,1.367,9.569,4.474,13.048c4.846,5.592,13.545,5.716,21,4.846,4.846-.621,9.817-1.367,14.042-3.852,2.113-1.243,3.977-2.858,6.338-3.479s5.343.373,5.965,2.61c.746,2.734-2.237,5.219-2.113,7.953.124,2.485,2.61,4.225,4.971,4.6s4.846-.373,7.207-.87a40.179,40.179,0,0,1,14.415-.373c2.485.373,4.971.994,7.456.746s5.095-1.367,6.089-3.6a13.513,13.513,0,0,0,.621-5.468,21.533,21.533,0,0,1,7.207-15.409c2.61-2.237,6.089-5.095,4.722-8.2-.621-1.491-2.237-2.237-3.728-2.982a40.106,40.106,0,0,1-13.794-10.687c-3.6-4.6-5.716-10.563-4.971-16.4.621-5.468,3.728-10.438,4.349-15.906.373-2.982-.124-5.965.373-8.823.87-6.213,5.095-11.06,8.7-16.279l-1.864-.373c-7.7-1.864-15.036-5.219-22.865-6.462-5.965-.87-11.93-.5-18.019,0-6.462.5-13.048.994-19.51,2.113-5.965,1.118-9.32,3.107-14.415,6.089-9.569,5.716-18.888,12.551-25.1,22.119A19.081,19.081,0,0,1,439.577,241c-3.852,2.982-9.817.621-14.042,3.107-2.113,1.118-3.479,3.231-5.095,4.971a21.632,21.632,0,0,1-1.74,1.491c.124.249.249.621.373.87C419.818,252.929,421.31,254.42,422.3,256.284Z" transform="translate(-418.7 -206.18)" fill="#fecd67" stroke="#707070" stroke-width="1"/>
      </g>
    </g>
    <path id="Path_1023" data-name="Path 1023" d="M520.656,216.874c-1.118,2.734-3.107,4.971-4.722,7.58a18.75,18.75,0,0,0-1.864,3.479c-.994,2.734-.87,5.716-.87,8.574a29.346,29.346,0,0,1-1.118,8.7c-1.118,3.6-3.107,6.959-3.728,10.687-1.243,6.586,1.864,13.3,6.338,18.143,3.728,3.977,8.45,6.959,13.172,9.693,2.113,1.243,3.977,2.858,6.089,3.977,2.237,1.243,4.6,1.988,6.835,3.107a44.129,44.129,0,0,1,8.823,5.095c2.485,1.988,4.6,4.6,7.332,6.089,4.846,2.734,10.438,1.988,15.782.249a36.494,36.494,0,0,0,.124-8.2c-.621-3.852-3.231-7.953-4.6-11.557a8.2,8.2,0,0,1-.746-3.355c.249-1.74,1.864-3.107,3.479-3.852,4.349-2.113,9.444-1.864,14.291-1.988a119.736,119.736,0,0,0,37.9-7.7c4.225-1.615,9.817-2.982,12.3.746,2.112,3.107.373,8.2,3.479,10.314a9.739,9.739,0,0,0,2.61,1.118c2.858,1.243,4.6,4.349,7.332,5.965,3.107,1.988,7.207,1.74,10.563.5a20.676,20.676,0,0,0,3.355-1.615v-.124c-1.367-3.107.87-6.586.87-9.941a7.863,7.863,0,0,0-3.231-6.71c-1.988-1.491-4.971-2.61-4.846-5.095,0-.994.621-1.864.87-2.858.621-3.728-4.971-7.456-2.858-10.563a10.735,10.735,0,0,1,1.74-1.615c1.74-1.74,1.491-4.722.124-6.835a12.036,12.036,0,0,0-5.965-4.1,29.838,29.838,0,0,0-21.5.249c-1.367.5-2.609,1.243-4.1,1.118-2.237,0-4.225-1.74-5.343-3.728s-1.74-4.225-2.858-6.213c-4.6-8.574-15.285-10.935-24.232-14.415-9.817-3.852-23.238-14.912-34.3-11.557-5.841,1.74-9.071,8.077-14.042,11.681-6.462,4.722-13.918,4.6-21,2.982C522.4,215.01,521.153,215.755,520.656,216.874Z" transform="translate(599.568 296.654)" fill="#ffd666" stroke="#707070" stroke-width="1"/>
    <g id="Group_4305" data-name="Group 4305" transform="translate(1085.271 582.248)">
      <path id="Path_1024" data-name="Path 1024" d="M590.265,325.838c.621-3.107,3.107-5.343,4.225-8.2,1.74-4.225.249-9.32-2.734-12.924-2.858-3.6-7.083-5.965-11.184-8.077a6.431,6.431,0,0,1-3.107-2.61,8.037,8.037,0,0,1-.5-2.485,52.993,52.993,0,0,1,.249-6.213c-5.468,1.74-11.06,2.485-15.782-.249-2.734-1.615-4.846-4.1-7.332-6.089a44.126,44.126,0,0,0-8.823-5.095c-2.237-1.118-4.6-1.864-6.835-3.107-.994-.621-1.988-1.243-2.982-1.988.124.249.249.373.373.621,1.367,3.107-2.112,5.965-4.722,8.2a21.533,21.533,0,0,0-7.207,15.409,17.719,17.719,0,0,1-.249,4.474,11.656,11.656,0,0,1-.5,4.6c-1.74,5.468-7.7,8.2-13.172,9.444s-11.557,1.491-16.279,4.6a5.225,5.225,0,0,0-2.113,2.237c-.5,1.615.746,3.231,1.491,4.722a12.031,12.031,0,0,1,.621,10.314c-.87,2.113-2.361,3.852-3.107,5.965a10.994,10.994,0,0,0,2.982,11.308,12.511,12.511,0,0,0,11.557,2.61c3.852-1.118,7.953-3.852,11.432-1.988,2.237,1.243,3.231,3.977,5.468,5.219,2.609,1.367,5.716-.124,8.45-1.367,8.077-3.6,16.9-5.219,25.6-6.835,5.219-.994,10.438-1.864,15.658-2.858a41.117,41.117,0,0,1,6.835-.87c7.456-.249,14.663,2.858,20.5,7.456-.5-4.6-1.243-8.947-3.479-12.924C593.5,334.661,589.4,330.685,590.265,325.838Z" transform="translate(-490.072 -268.8)" fill="#d1cd6f" stroke="#707070" stroke-width="1"/>
      <path id="Path_1025" data-name="Path 1025" d="M560.3,282.1Z" transform="translate(-473.031 -265.573)" fill="#d1cd6f" stroke="#707070" stroke-width="1"/>
    </g>
    <g id="Group_4307" data-name="Group 4307" transform="translate(976.684 571.607)">
      <g id="Group_4306" data-name="Group 4306">
        <path id="Path_1026" data-name="Path 1026" d="M543.5,358.485c-2.237-1.118-3.231-3.977-5.468-5.219-3.479-1.988-7.58.87-11.432,1.988a12.186,12.186,0,0,1-11.557-2.61,11.06,11.06,0,0,1-2.982-11.308c.746-2.113,2.237-3.977,3.107-5.965a12.031,12.031,0,0,0-.621-10.314c-.87-1.491-1.988-3.107-1.491-4.722a3.733,3.733,0,0,1,2.112-2.237c4.846-3.107,10.811-3.355,16.279-4.6s11.557-3.977,13.172-9.444a11.414,11.414,0,0,0,.5-4.6,8.549,8.549,0,0,1-.373.994,7.108,7.108,0,0,1-6.089,3.6,37.929,37.929,0,0,1-7.456-.746,40.178,40.178,0,0,0-14.415.373c-2.361.5-4.846,1.243-7.207.87s-4.846-2.113-4.971-4.6c-.124-2.858,2.734-5.343,2.113-7.953-.621-2.361-3.6-3.231-5.965-2.61s-4.225,2.237-6.338,3.479c-4.225,2.485-9.2,3.355-14.042,3.852-7.456.87-16.03.746-21-4.846-3.107-3.479-3.852-8.45-4.474-13.048s-.994-9.444-3.479-13.421-7.829-6.586-11.93-4.349c0-.124,0-.249-.124-.249-1.491,1.74-3.852,3.355-4.971,5.343-1.988,3.6,0,7.953.87,12.054s-1.615,9.817-5.592,8.7c-1.615-.373-2.61-1.864-3.852-2.982a16.268,16.268,0,0,0-17.024-3.6c-4.225,1.615-7.829,6.835-5.219,10.438.5.746,1.243,1.243,1.864,1.988,1.367,1.74,1.367,4.1,1.243,6.338-.124,5.965-.249,11.805-.5,17.77-.124,2.485-.124,5.219.994,7.456a16.1,16.1,0,0,0,5.095,5.343c5.219,3.977,10.935,7.7,17.273,9.32a30.208,30.208,0,0,0,30.694-10.563c1.243-1.615,2.361-3.479,4.1-4.722a11.772,11.772,0,0,1,8.45-1.864,19.15,19.15,0,0,1,13.545,7.829c1.864,2.485,3.107,5.468,4.722,8.077a60.8,60.8,0,0,0,7.456,9.444c4.971,5.592,9.941,11.06,14.788,16.652,3.852,4.349,8.077,8.823,13.3,11.557a28.831,28.831,0,0,0,4.474,1.988c2.237.746,3.728-.124,5.841-.994a17.727,17.727,0,0,1-.373-8.823,7.5,7.5,0,0,1,.746-2.361c1.988-3.728,7.207-3.231,9.817-6.338A5.217,5.217,0,0,1,543.5,358.485Z" transform="translate(-402.69 -260.237)" fill="#84c281" stroke="#707070" stroke-width="1"/>
      </g>
    </g>
    <g id="Group_4308" data-name="Group 4308" transform="translate(1100.839 657.953)">
      <path id="Path_1027" data-name="Path 1027" d="M596.545,345.1c-.373-2.485.87-7.7-1.367-9.2a41.331,41.331,0,0,0-13.172-5.592c-4.6-.994-8.45-.621-13.172.249-5.219.994-10.438,1.864-15.657,2.858-8.7,1.615-17.521,3.231-25.6,6.835a29.193,29.193,0,0,1-4.6,1.74c-2.609,3.231-7.953,2.734-9.817,6.338a8.667,8.667,0,0,0-.746,2.361,17.728,17.728,0,0,0,.373,8.823c-.248.124-.373.249-.621.373a.434.434,0,0,0-.249.124c0,.124-.124.124-.124.249a1.576,1.576,0,0,0,.124.746,4.228,4.228,0,0,1,.124,1.243,4.413,4.413,0,0,0,.249,1.243,20.125,20.125,0,0,1-.124,2.734c-.373,3.852-1.988,7.58-3.6,11.184a109.524,109.524,0,0,0-4.722,11.06,18.27,18.27,0,0,0-.373,10.935c1.491,4.474,4.971,10.314.994,12.924a4.209,4.209,0,0,1-1.864.746c.621.621,1.367,1.243,2.113,1.864a21.946,21.946,0,0,0,16.03,4.474c5.841-.87,11.184-4.225,16.9-5.468a24.906,24.906,0,0,1,8.574-.373,6.446,6.446,0,0,1,2.734.87c1.864,1.491,1.491,4.349,2.112,6.586.994,3.479,4.846,5.468,8.326,6.213,3.6.746,7.332.5,10.811,1.367s7.083,3.479,7.456,7.083c.5,4.846-4.846,9.2-3.728,13.918a5.71,5.71,0,0,0,6.586,4.225c2.61-.5,4.474-2.858,6.835-4.349A14.3,14.3,0,0,1,590.456,448v-.124c-.249-1.367.746-2.485,1.988-3.231,4.225-2.61,9.569-1.367,14.539-.621a4.2,4.2,0,0,0,2.485-.124c1.74-.746,2.113-3.107,3.231-4.6,3.107-4.349,10.811-1.988,14.291-5.965,2.61-2.982,1.118-7.829-1.491-10.935s-6.089-5.468-7.829-9.071c-.87-1.74-1.243-3.728-2.237-5.468a14.347,14.347,0,0,0-5.343-4.846,64.758,64.758,0,0,0-10.563-5.343,16.132,16.132,0,0,1-5.219-2.734c-2.361-2.237-2.983-6.089-5.592-7.829-3.231-2.237-7.829-.124-10.438,2.858-2.485,2.982-3.852,6.835-6.462,9.941-2.61,2.982-7.208,4.971-10.438,2.734a8.779,8.779,0,0,1-3.107-5.841c-2.361-11.308,2.485-23.238,10.065-31.936a66.056,66.056,0,0,1,13.794-11.805c3.852-2.61,9.817-7.7,14.663-7.456" transform="translate(-502.6 -329.722)" fill="#f3ac6c" stroke="#707070" stroke-width="1"/>
    </g>
    <g id="Group_4309" data-name="Group 4309" transform="translate(985.315 713.597)">
      <path id="Path_1028" data-name="Path 1028" d="M639.484,469.315a20.352,20.352,0,0,0-6.462-21.125c-5.095-4.225-11.805-5.592-17.77-8.326-1.243-.5-2.609-1.243-2.734-2.61v.124a10.225,10.225,0,0,0-3.107,1.491c-2.237,1.491-4.1,3.728-6.835,4.349a5.818,5.818,0,0,1-6.586-4.225c-.994-4.846,4.225-9.071,3.728-13.918-.373-3.6-3.852-6.213-7.456-7.083-3.479-.87-7.332-.746-10.811-1.367-3.6-.746-7.332-2.734-8.326-6.213-.746-2.237-.249-5.219-2.113-6.586a5.1,5.1,0,0,0-2.734-.87,24.908,24.908,0,0,0-8.574.373c-5.841,1.243-11.06,4.6-16.9,5.468a21.26,21.26,0,0,1-16.03-4.474,14.206,14.206,0,0,1-2.112-1.864c-1.491.373-2.982.5-4.1,1.491-1.74,1.615-1.367,4.349-.87,6.586a42.146,42.146,0,0,1-26.1-7.083c-6.586-4.349-11.93-10.687-18.888-14.539-6.462-3.6-13.918-4.971-21.25-6.338-13.421-2.361-26.717-4.846-40.138-7.207a30.575,30.575,0,0,1-3.6-.87c-.5,6.835,1.243,14.539,7.332,18.516,2.361,1.491,5.095,2.237,7.58,3.728,2.361,1.491,4.474,4.1,3.852,6.835-.746,3.728-5.219,4.971-8.2,7.332,4.474,1.243,9.071,3.231,11.432,6.338,2.113,2.734,3.107,6.338,5.468,9.071a39.508,39.508,0,0,0,8.7,7.7c6.586,4.474,14.042,7.58,21.25,11.06,4.474,2.113,9.071,4.722,11.681,8.823a17.842,17.842,0,0,0,2.734,3.852,13.829,13.829,0,0,0,4.349,1.988c3.231.87,6.338,1.74,9.569,2.61,3.852.994,7.7,2.112,10.935,4.349a15.779,15.779,0,0,1,4.474,4.6c.87,1.491.87,3.852,2.237,4.846,2.858,2.113,5.716-1.118,8.077,0,1.864.87,3.355,7.332,4.225,9.2-2.113,1.491-1.243,5.095.994,6.462s4.971,1.118,7.456,1.118a71.1,71.1,0,0,1,22.865,3.107c3.6,1.118,7.207,2.61,10.935,1.988,3.107-.5,5.841-2.485,8.326-4.474a98.847,98.847,0,0,0,12.675-12.3c2.982-3.479,6.586-3.728,11.06-4.722,5.219-1.118,10.314,1.615,14.539,4.722a15.146,15.146,0,0,0,5.343,2.982c1.988.5,4.474-.373,5.095-2.237a21.094,21.094,0,0,0,.5-2.734c.621-1.864,2.982-2.734,4.971-2.982s4.225-.249,5.716-1.615a13.891,13.891,0,0,0,2.113-2.61,6.7,6.7,0,0,0,.87-1.615A1.672,1.672,0,0,0,639.484,469.315Z" transform="translate(-409.635 -374.5)" fill="#fac569" stroke="#707070" stroke-width="1"/>
    </g>
    <g id="Group_4311" data-name="Group 4311" transform="translate(793.777 602.04)">
      <g id="Group_4310" data-name="Group 4310">
        <path id="Path_1029" data-name="Path 1029" d="M364.7,408.373l.373-.373h-.249A.457.457,0,0,1,364.7,408.373Z" transform="translate(-229.001 -254.814)" fill="#ed9470" stroke="#707070" stroke-width="1"/>
        <path id="Path_1030" data-name="Path 1030" d="M364.7,408.3Z" transform="translate(-229.001 -254.741)" fill="#ed9470" stroke="#707070" stroke-width="1"/>
        <path id="Path_1031" data-name="Path 1031" d="M445.13,394.793c-3.6-3.107-3.231-9.941-7.58-11.681-1.243-.5-2.734-.373-3.852-.994-4.474-2.113-1.988-8.947-2.858-13.794-1.243-7.083-10.314-11.06-10.935-18.267-.124-1.615.124-3.355-.87-4.6-1.118-1.367-3.231-1.491-4.225-2.858-1.243-1.74,0-4.225-.621-6.213-.621-1.864-2.734-2.858-4.722-3.479-4.349-1.491-8.7-3.107-13.048-4.6,2.61-2.982,0-7.829-3.479-9.569s-7.7-1.615-11.433-2.982c-5.716-2.113-9.693-7.207-12.924-12.427s-6.089-10.811-10.811-14.663c-4.225-3.479-10.563-5.219-15.285-2.858a30.681,30.681,0,0,0-8.574,12.427c-.87,2.61-1.491,5.468-3.107,7.58-1.988,2.61-5.468,4.474-5.841,7.7-.249,2.237.994,4.846-.621,6.338-1.243,1.243-3.107.87-4.846.87-5.965.124-10.066,8.077-6.835,13.048,3.6,5.592,13.3,6.71,13.918,13.3.249,3.231-2.237,6.338-5.219,7.58a18.356,18.356,0,0,1-9.693.621c-7.083-.994-13.918-3.107-21.125-3.355s-14.788,1.74-19.137,7.456c-2.485,3.355-3.6,7.456-5.716,11.06s-6.089,6.71-10.19,5.841c2.61,5.592,5.343,11.308,10.314,14.912,3.355,2.485,7.58,3.6,10.687,6.462,4.1,3.852,5.343,9.817,8.7,14.291a21.449,21.449,0,0,0,9.32,6.959,50.99,50.99,0,0,1,23.859-4.722c3.479.249,7.207.746,10.563-.373,1.864-.621,3.479-1.615,5.468-1.615,3.231-.124,5.716,2.61,8.574,3.976,8.574,4.349,19.137-2.361,28.581-.5a16.448,16.448,0,0,1,12.427,11.308c.746,2.734,1.118,6.089,3.6,7.58.87.5,1.864.746,2.61,1.243a2.447,2.447,0,0,1,1.243,1.864h.249a14.371,14.371,0,0,1,3.107-2.485,29.613,29.613,0,0,1,10.314-3.355c8.077-1.367,16.4-1.615,24.729-1.864,6.959-.124,13.918-.249,20.752.87a72.869,72.869,0,0,1,7.332,1.615c2.982-2.237,7.332-3.6,7.953-7.207.5-2.734-1.491-5.343-3.852-6.835s-5.219-2.237-7.58-3.728c-6.089-3.977-7.953-11.681-7.332-18.516" transform="translate(-255.5 -284.727)" fill="#ed9470" stroke="#707070" stroke-width="1"/>
      </g>
    </g>
    <g id="Group_4313" data-name="Group 4313" transform="translate(710.519 678.678)">
      <g id="Group_4312" data-name="Group 4312">
        <path id="Path_1032" data-name="Path 1032" d="M357.5,459.979c-3.231-2.982-7.953-3.6-11.93-5.468a21.617,21.617,0,0,1-9.941-9.2c-1.74-3.107-2.61-6.71-4.846-9.444-1.988-2.485-4.722-4.1-6.835-6.338-3.231-3.728-4.349-8.7-5.716-13.421s-3.479-9.693-7.829-11.93c.124,0,.249-.124.373-.124a20.523,20.523,0,0,1-9.32-6.959c-3.355-4.474-4.6-10.438-8.7-14.291-3.107-2.858-7.332-4.1-10.687-6.462-4.349-3.107-7.083-8.077-9.444-13.048-7.7-5.965-14.663-13.545-23.362-16.9l-.373.373a3.644,3.644,0,0,1-1.243.373c-7.332.746-14.539,1.615-21.871,2.361-2.858.249-5.716.621-8.574.746-3.231.124-6.462,0-9.568-.124-5.468-.249-11.06-.373-16.527-.621a18.54,18.54,0,0,1-2.61-.249,129.555,129.555,0,0,0,7.7,13.421,27.938,27.938,0,0,0,5.592,6.462c2.858,2.113,6.338,3.107,9.568,4.474,3.231,1.491,6.338,3.852,7.207,7.207.621,2.734-.124,5.841,1.367,8.2,1.243,1.74,3.6,2.485,4.846,4.349.87,1.243.994,2.982,1.491,4.474,2.237,7.58,11.805,10.935,14.291,18.391.994,2.858.87,6.213,2.858,8.45.746.87,1.864,1.491,2.61,2.485,1.615,2.237.87,5.219-.249,7.7-1.988,4.474-4.971,8.45-6.338,13.048-1.491,4.6-1.118,10.314,2.734,13.421,1.988,1.615,4.474,2.237,6.835,3.107a29.494,29.494,0,0,1,15.16,12.8,14.419,14.419,0,0,0,3.107,4.474c1.864,1.615,4.474,1.864,6.959,2.112a91.508,91.508,0,0,0,32.806-3.852,39.081,39.081,0,0,1,5.468-1.367,43.853,43.853,0,0,1,5.716,0c7.332.124,14.663-1.74,21.747.124,2.113.621,4.225,1.615,6.462,1.864s4.722-.249,6.089-2.113c.621-.87.87-2.113,1.615-2.982,2.113-2.237,5.965-.621,8.574-2.237,3.355-2.113,1.491-7.332-.746-10.687-.124-.124-.249-.373-.373-.5C360.36,462.589,358.745,461.1,357.5,459.979Z" transform="translate(-188.5 -346.4)" fill="#fac569" stroke="#707070" stroke-width="1"/>
      </g>
    </g>
    <g id="Group_4315" data-name="Group 4315" transform="translate(657.954 531.937)">
      <g id="Group_4314" data-name="Group 4314">
        <path id="Path_1033" data-name="Path 1033" d="M325.5,285.6Z" transform="translate(-102.691 -214.412)" fill="#efd36a" stroke="#707070" stroke-width="1"/>
        <path id="Path_1034" data-name="Path 1034" d="M188.5,348.7h0a9.3,9.3,0,0,0,2.61.249A9.306,9.306,0,0,1,188.5,348.7Z" transform="translate(-135.935 -199.1)" fill="#efd36a" stroke="#707070" stroke-width="1"/>
        <path id="Path_1035" data-name="Path 1035" d="M187.084,230.906a74.288,74.288,0,0,1-10.563,1.243,79.063,79.063,0,0,1-16.279-.87,68.663,68.663,0,0,1-10.066-1.988c-1.367-.373-2.858-.746-3.977,0a26.769,26.769,0,0,0,8.947,19.013c6.586,5.84,15.036,8.823,23.362,11.557,7.953,2.61,16.03,5.219,24.232,6.338,3.6.5,7.456.87,10.19,3.231,1.988,1.864,2.982,4.6,4.349,6.959a18.547,18.547,0,0,0,12.054,8.574,28.056,28.056,0,0,1,5.592,1.243c7.829,3.107,7.456,13.172,6.959,20.255a6.457,6.457,0,0,1-.87,3.107,7.139,7.139,0,0,1-2.734,1.864,52.727,52.727,0,0,1-6.213,2.237c-3.231.994-6.835,1.864-8.574,4.722-1.74,2.982-.621,6.835.746,9.941,1.491,3.355,4.1,7.207,7.829,6.71.994-.124,1.864-.621,2.858-.746a2.253,2.253,0,0,1,2.485,1.243,2.541,2.541,0,0,1,0,1.367c-1.367,10.563,9.444,16.4,15.16,23.611a31.12,31.12,0,0,1,4.349,6.959c.5,1.118.87,2.485,1.367,3.479.5.746,1.243,1.243,1.491,2.237a1.887,1.887,0,0,1-.746,2.237l.373-.373c8.7,3.355,15.658,10.935,23.362,16.9-.249-.621-.621-1.243-.87-1.864,4.1.994,7.953-2.237,10.19-5.841,2.113-3.6,3.231-7.829,5.716-11.06,4.349-5.592,12.054-7.7,19.137-7.456s14.042,2.361,21.125,3.355c3.231.5,6.71.621,9.693-.621,3.107-1.243,5.592-4.349,5.219-7.58-.621-6.586-10.314-7.7-13.918-13.3-3.231-4.971.87-12.924,6.835-13.048,1.74,0,3.6.373,4.846-.87,1.615-1.615.373-4.225.621-6.338.373-3.231,3.852-5.095,5.841-7.7,1.615-2.237,2.237-4.971,3.107-7.58a29.952,29.952,0,0,1,5.841-9.941,1.767,1.767,0,0,0-.746-.249c-4.6-1.491-9.693.124-14.291-1.243-4.722-1.367-7.953-5.592-11.681-8.7-7.7-6.462-18.143-8.574-27.09-13.172-8.7-4.474-16.03-11.308-25.1-15.036-5.343-2.237-11.184-3.231-16.652-5.095-13.545-4.6-25.35-14.415-39.392-17.149-2.485-.5-4.971-.746-7.207-1.988-3.355-1.74-5.343-5.219-8.326-7.58C208.085,225.687,196.9,229.042,187.084,230.906Z" transform="translate(-146.2 -228.313)" fill="#efd36a" stroke="#707070" stroke-width="1"/>
      </g>
    </g>
    <g id="Group_4317" data-name="Group 4317" transform="translate(599.797 467.771)">
      <g id="Group_4316" data-name="Group 4316">
        <path id="Path_1036" data-name="Path 1036" d="M157.432,241.821c1.118-.746,2.734-.373,3.977,0,3.231.87,6.71,1.367,10.066,1.988a79.063,79.063,0,0,0,16.279.87,76.47,76.47,0,0,0,10.563-1.243c9.817-1.864,21-5.219,28.83.994,2.982,2.361,4.971,5.84,8.326,7.58A28.143,28.143,0,0,0,242.679,254c14.042,2.858,25.847,12.551,39.392,17.149,5.468,1.864,11.308,2.982,16.652,5.095,9.071,3.728,16.4,10.563,25.1,15.036,8.947,4.6,19.261,6.71,27.09,13.172,3.728,3.107,6.959,7.332,11.681,8.7,4.6,1.367,9.693.621,15.16.746,4.1,0,2.61-20.38.5-25.723a86.562,86.562,0,0,0-5.219-10.811c-1.74-.621-3.479-1.118-5.219-1.615a55.364,55.364,0,0,1-18.64-10.066,6.668,6.668,0,0,1,2.113,3.231c.621,4.1-3.852,4.349-6.462,2.61-1.615-1.118-2.982-2.734-4.6-3.852a10.891,10.891,0,0,0-13.669,1.367,36.85,36.85,0,0,0-1.864-10.438,20.322,20.322,0,0,1-14.788,4.1c-3.6-.5-7.083-1.988-10.687-2.61-8.45-1.491-17.024,1.615-25.475.5V257.6c-2.237.249-5.468-.124-5.468-2.485-.124-1.988,2.485-2.858,4.474-3.231,7.456-.994,14.912-1.988,22.244-2.982,1.367-1.988-2.113-3.728-4.474-3.728-8.077.124-16.155.124-24.232.249-2.361,0-5.219-.249-6.089-2.485-1.367-3.355,3.6-5.716,7.207-5.343,5.343.5,11.06,2.61,16.03.621,2.361-.994,4.349-2.734,6.71-3.479,3.977-1.243,8.326.5,11.93,2.734s7.083,4.846,11.184,5.468,9.2-1.74,9.444-5.965c.249-2.858-1.74-5.343-3.728-7.332-14.291-13.794-36.783-15.16-52.813-26.841-4.846-3.479-9.2-7.953-14.539-10.563-7.456-3.6-16.279-3.231-24.6-3.355-15.036-.373-29.948-2.858-44.736-5.592-15.533-2.734-31.067-5.716-46.724-6.462-6.338-.373-13.048-.249-18.764,2.61-9.568,4.846-14.042,15.782-17.4,26.1,1.243,3.728,3.728,7.207,6.213,10.314a157.107,157.107,0,0,0,14.415,15.658,154.973,154.973,0,0,0,14.663,12.427c.5.373,1.118.746,1.615,1.118a5.573,5.573,0,0,0,1.367-.124c1.864-.373,4.722-2.485,13.3-2.113,2.237.124,4.474.249,6.835.5Z" transform="translate(-99.4 -176.678)" fill="#f5b56a" stroke="#707070" stroke-width="1"/>
      </g>
    </g>
    <g id="Group_4500" data-name="Group 4500">
      <text id="_10" data-name="10" transform="translate(747.738 469.395)" fill="#fff" font-size="16" font-family="SegoeUI, Segoe UI"><tspan x="0" y="0">10</tspan></text>
      <text id="_11" data-name="11" transform="translate(672.679 513.748)" fill="#fff" font-size="16" font-family="SegoeUI, Segoe UI"><tspan x="0" y="0">11</tspan></text>
      <text id="_42" data-name="42" transform="translate(675.238 613.542)" fill="#fff" font-size="16" font-family="SegoeUI, Segoe UI"><tspan x="0" y="0">42</tspan></text>
      <text id="_41" data-name="41" transform="translate(780.149 628.042)" fill="#fff" font-size="16" font-family="SegoeUI, Segoe UI"><tspan x="0" y="0">41</tspan></text>
      <text id="_43" data-name="43" transform="translate(780.149 759.394)" fill="#fff" font-size="16" font-family="SegoeUI, Segoe UI"><tspan x="0" y="0">43</tspan></text>
      <text id="_44" data-name="44" transform="translate(862.884 767.923)" fill="#fff" font-size="16" font-family="SegoeUI, Segoe UI"><tspan x="0" y="0">44</tspan></text>
      <text id="_45" data-name="45" transform="translate(884.208 695.424)" fill="#fff" font-size="16" font-family="SegoeUI, Segoe UI"><tspan x="0" y="0">45</tspan></text>
      <text id="_40" data-name="40" transform="translate(923.443 603.306)" fill="#fff" font-size="16" font-family="SegoeUI, Segoe UI"><tspan x="0" y="0">40</tspan></text>
      <text id="_39" data-name="39" transform="translate(1018.119 695.424)" fill="#fff" font-size="16" font-family="SegoeUI, Segoe UI"><tspan x="0" y="0">39</tspan></text>
      <text id="_38" data-name="38" transform="translate(1004.472 628.042)" fill="#fff" font-size="16" font-family="SegoeUI, Segoe UI"><tspan x="0" y="0">38</tspan></text>
      <text id="_37" data-name="37" transform="translate(1048.825 569.188)" fill="#fff" font-size="16" font-family="SegoeUI, Segoe UI"><tspan x="0" y="0">37</tspan></text>
      <text id="_32" data-name="32" transform="translate(1154.589 552.13)" fill="#fff" font-size="16" font-family="SegoeUI, Segoe UI"><tspan x="0" y="0">32</tspan></text>
      <text id="_36" data-name="36" transform="translate(1127.295 643.395)" fill="#fff" font-size="16" font-family="SegoeUI, Segoe UI"><tspan x="0" y="0">36</tspan></text>
      <text id="_47" data-name="47" transform="translate(1119.619 712.482)" fill="#fff" font-size="16" font-family="SegoeUI, Segoe UI"><tspan x="0" y="0">47</tspan></text>
      <text id="_46" data-name="46" transform="translate(1097.442 792.658)" fill="#fff" font-size="16" font-family="SegoeUI, Segoe UI"><tspan x="0" y="0">46</tspan></text>
      <text id="_46-2" data-name="46" transform="translate(1237.324 776.453)" fill="#fff" font-size="16" font-family="SegoeUI, Segoe UI"><tspan x="0" y="0">46</tspan></text>
      <text id="_49" data-name="49" transform="translate(1202.354 847.247)" fill="#fff" font-size="16" font-family="SegoeUI, Segoe UI"><tspan x="0" y="0">49</tspan></text>
    </g>
  </g>
</svg>
