<svg xmlns="http://www.w3.org/2000/svg" width="73.986" height="73.983" viewBox="0 0 73.986 73.983">
  <g id="Group_2472" data-name="Group 2472" transform="translate(-4399.999 -2299)">
    <g id="Group_2329" data-name="Group 2329" transform="translate(4399.999 2312.293)">
      <g id="Group_2328" data-name="Group 2328" transform="translate(0)">
        <path id="Path_482" data-name="Path 482" d="M34.487,144.608l-4.335-17.34a6.494,6.494,0,0,0-1.464-2.76,6.5,6.5,0,0,0-4.845-10.833h-4.65L16.656,108.6l-.029-.055a8.674,8.674,0,1,0-9.985-2,6.485,6.485,0,0,0-2.111,3.381L.2,127.269a6.511,6.511,0,0,0,3.671,7.523l-3.8,15.2a2.167,2.167,0,0,0,4.205,1.051l1.757-7.028h14.9l.936,3.746a6.5,6.5,0,0,0,12.616-3.156ZM13.007,96.336a4.335,4.335,0,1,1-4.335,4.335A4.34,4.34,0,0,1,13.007,96.336ZM7.113,139.683,8.2,135.349h10.57l1.083,4.335ZM28.7,148.289a2.164,2.164,0,0,1-2.626-1.577l-3.513-14.056a2.167,2.167,0,0,0-2.1-1.642H6.5a2.169,2.169,0,0,1-2.1-2.694l4.334-17.336a2.172,2.172,0,0,1,4.043-.446l0,0,3.134,6.269a2.167,2.167,0,0,0,1.939,1.2h5.99a2.167,2.167,0,1,1,0,4.335h-8.67a2.156,2.156,0,0,1-1.939-1.2,2.167,2.167,0,1,0-3.877,1.939,6.467,6.467,0,0,0,5.816,3.594h8.67a2.165,2.165,0,0,1,2.1,1.641l4.335,17.338A2.172,2.172,0,0,1,28.7,148.289Z" transform="translate(0 -92.001)"/>
      </g>
    </g>
    <g id="Group_2331" data-name="Group 2331" transform="translate(4439.303 2312.293)">
      <g id="Group_2330" data-name="Group 2330">
        <path id="Path_483" data-name="Path 483" d="M302.807,134.79a6.5,6.5,0,0,0,3.671-7.523l-4.336-17.342a6.479,6.479,0,0,0-2.109-3.378,8.667,8.667,0,1,0-9.986,2c-.009.018-.02.036-.029.054l-2.538,5.075h-4.65a6.5,6.5,0,0,0-4.844,10.833,6.493,6.493,0,0,0-1.464,2.761l-4.335,17.34a6.5,6.5,0,0,0,12.617,3.154l.936-3.745h14.9l1.757,7.028a2.167,2.167,0,0,0,4.205-1.051Zm-13.474-34.121A4.335,4.335,0,1,1,293.667,105,4.34,4.34,0,0,1,289.333,100.669Zm-2.509,39.013,1.083-4.335h10.57l1.084,4.335Zm13.346-8.67H286.215a2.167,2.167,0,0,0-2.1,1.642L280.6,146.709a2.168,2.168,0,1,1-4.206-1.052l4.335-17.338a2.165,2.165,0,0,1,2.1-1.642H291.5a6.467,6.467,0,0,0,5.816-3.594,2.167,2.167,0,1,0-3.877-1.939,2.156,2.156,0,0,1-1.939,1.2h-8.669a2.167,2.167,0,1,1,0-4.335h5.99a2.168,2.168,0,0,0,1.939-1.2l3.137-6.273a2.171,2.171,0,0,1,4.042.443l4.335,17.339A2.17,2.17,0,0,1,300.169,131.012Z" transform="translate(-271.993 -91.999)"/>
      </g>
    </g>
    <g id="Group_2333" data-name="Group 2333" transform="translate(4421.676 2299)">
      <g id="Group_2332" data-name="Group 2332" transform="translate(0 0)">
        <path id="Path_484" data-name="Path 484" d="M174.137.008H156.509a6.509,6.509,0,0,0-6.5,6.5v4.624a6.509,6.509,0,0,0,6.5,6.5h7.927l8.181,8.047a2.167,2.167,0,0,0,3.687-1.545V17.264a6.513,6.513,0,0,0,4.335-6.131V6.51A6.51,6.51,0,0,0,174.137.008ZM176.3,11.134a2.17,2.17,0,0,1-2.167,2.167,2.167,2.167,0,0,0-2.167,2.167v3.5l-5.127-5.043a2.167,2.167,0,0,0-1.52-.622h-8.814a2.17,2.17,0,0,1-2.167-2.167V6.51a2.17,2.17,0,0,1,2.167-2.167h17.628A2.17,2.17,0,0,1,176.3,6.51Z" transform="translate(-150.007 -0.008)"/>
      </g>
    </g>
  </g>
</svg>
