<svg xmlns="http://www.w3.org/2000/svg" width="23.669" height="26.257" viewBox="0 0 23.669 26.257"><defs><style>.a{fill:#2f2d64;}</style></defs><path class="a" d="M22.136,16.182,20.194,14.24,11.456,5.5A4.119,4.119,0,0,0,5.63,11.327l8.738,8.741a.915.915,0,1,0,1.295-1.295L6.925,10.032A2.288,2.288,0,1,1,10.161,6.8L18.9,15.534l1.942,1.942A4.12,4.12,0,1,1,15.016,23.3L13.4,21.683,4.336,12.622l-.647-.647A5.951,5.951,0,0,1,12.1,3.56l9.709,9.709a.915.915,0,1,0,1.295-1.295L13.4,2.265a7.781,7.781,0,0,0-11,11L12.1,22.978l1.62,1.619a5.951,5.951,0,0,0,8.413-8.415Zm0,0" transform="translate(-0.128 0.001)"/></svg>