<svg xmlns="http://www.w3.org/2000/svg" xmlns:xlink="http://www.w3.org/1999/xlink" width="189" height="330" viewBox="0 0 189 330">
  <defs>
    <filter id="_10" x="0" y="0" width="189" height="330" filterUnits="userSpaceOnUse">
      <feOffset dy="3" input="SourceAlpha"/>
      <feGaussianBlur stdDeviation="3" result="blur"/>
      <feFlood flood-opacity="0.161"/>
      <feComposite operator="in" in2="blur"/>
      <feComposite in="SourceGraphic"/>
    </filter>
  </defs>
  <g id="Group_4001" data-name="Group 4001" transform="translate(18598 13522)">
    <g transform="matrix(1, 0, 0, 1, -18598, -13522)" filter="url(#_10)">
      <path id="_10-2" data-name="10" d="M29,0H142a29,29,0,0,1,29,29V283a29,29,0,0,1-29,29H29a29.084,29.084,0,0,1-20.66-8.648A28.733,28.733,0,0,1,0,283V29A29,29,0,0,1,29,0Z" transform="translate(180 318) rotate(180)" fill="#6e4208"/>
    </g>
    <path id="Intersection_6" data-name="Intersection 6" d="M18419.018,13464.188c7.063-.564,12.855-3.728,18.98-7.067,7.146-3.89,14.541-7.915,24.162-7.915s16.961,4.082,24.117,8c1.127.621,2.244,1.235,3.361,1.829a27.438,27.438,0,0,1-6.146,3.321l-.008,0c-6.781-3.73-13.184-7.26-21.314-7.283s-14.561,3.473-21.365,7.17c-1.2.651-2.406,1.306-3.629,1.945Zm-22.619,0c-1.3-.686-2.592-1.392-3.873-2.095-6.781-3.73-13.182-7.255-21.309-7.278s-14.564,3.468-21.369,7.166l-.869.471a27.482,27.482,0,0,1-6.172-3.258c1.428-.731,2.85-1.5,4.289-2.288,7.146-3.876,14.543-7.916,24.164-7.916s16.959,4.082,24.115,8c6.176,3.4,12.029,6.623,19.168,7.193Zm-3.793-19.05c-6.781-3.735-13.191-7.26-21.322-7.283s-14.561,3.473-21.371,7.156c-4.549,2.477-9.2,5.009-14.453,6.521a27.332,27.332,0,0,1-2.645-5.3c5.061-1.261,9.6-3.729,14.318-6.3,7.148-3.88,14.537-7.915,24.164-7.915s16.955,4.082,24.111,8c6.785,3.73,13.182,7.26,21.322,7.283s14.566-3.473,21.361-7.171c7.156-3.875,14.541-7.91,24.162-7.91s16.955,4.077,24.111,8c4.318,2.38,8.48,4.674,13.035,6.034a27.4,27.4,0,0,1-2.65,5.293,78.31,78.31,0,0,1-13.187-6.209c-6.781-3.73-13.191-7.255-21.322-7.278s-14.561,3.459-21.365,7.156c-7.146,3.875-14.533,7.915-24.154,7.915S18399.762,13449.06,18392.605,13445.138Zm.023-17.054c-6.781-3.74-13.184-7.269-21.322-7.292s-14.566,3.473-21.361,7.17c-5.766,3.133-11.7,6.367-18.834,7.5v-5.928c5.764-1.085,10.8-3.826,16.055-6.682,7.146-3.875,14.527-7.91,24.164-7.91s16.959,4.082,24.1,8c6.785,3.73,13.2,7.26,21.322,7.278s14.566-3.459,21.371-7.156c7.146-3.89,14.527-7.915,24.162-7.915s16.955,4.082,24.111,8.009c4.846,2.663,9.494,5.222,14.715,6.476v6.008c-6.559-1.306-12.1-4.375-17.527-7.352-6.785-3.73-13.182-7.26-21.322-7.283s-14.561,3.473-21.355,7.171c-7.146,3.875-14.543,7.915-24.164,7.915S18399.785,13432.011,18392.629,13428.084Zm.047-17.059c-6.785-3.73-13.184-7.259-21.322-7.282s-14.557,3.472-21.361,7.155c-5.783,3.147-11.727,6.385-18.881,7.5v-5.937c5.789-1.078,10.822-3.82,16.1-6.675,7.146-3.89,14.541-7.916,24.162-7.916s16.961,4.082,24.117,8c6.785,3.73,13.182,7.259,21.322,7.282s14.551-3.473,21.361-7.17c7.141-3.876,14.537-7.915,24.158-7.915s16.959,4.1,24.115,8.009c4.83,2.662,9.463,5.217,14.668,6.477v6.021c-6.541-1.312-12.061-4.373-17.48-7.343-6.785-3.735-13.182-7.26-21.322-7.283s-14.551,3.459-21.361,7.156c-7.146,3.89-14.541,7.915-24.162,7.915S18399.832,13414.948,18392.676,13411.025Zm.057-17.119c-6.787-3.74-13.2-7.255-21.324-7.278s-14.564,3.459-21.369,7.156c-5.8,3.144-11.746,6.395-18.928,7.511v-6c5.826-1.069,10.891-3.825,16.182-6.7,7.143-3.876,14.537-7.911,24.158-7.911s16.961,4.082,24.115,8c6.787,3.73,13.184,7.259,21.324,7.277s14.561-3.458,21.355-7.155c7.146-3.876,14.541-7.911,24.162-7.911s16.961,4.077,24.121,8c4.8,2.642,9.412,5.18,14.584,6.444v6.078c-6.523-1.324-12.027-4.348-17.424-7.312-6.785-3.73-13.2-7.259-21.322-7.282s-14.566,3.472-21.371,7.165c-7.146,3.88-14.531,7.915-24.162,7.915S18399.879,13397.833,18392.732,13393.906Zm.041-16.993c-6.781-3.73-13.191-7.259-21.322-7.282s-14.561,3.473-21.365,7.17c-5.809,3.154-11.777,6.41-18.975,7.488v-5.906c5.854-1.056,10.936-3.813,16.248-6.7,7.156-3.89,14.541-7.915,24.162-7.915s16.961,4.081,24.115,8.009c6.781,3.73,13.184,7.254,21.324,7.277s14.561-3.468,21.355-7.155c7.156-3.89,14.541-7.916,24.158-7.916s16.965,4.082,24.121,8c4.779,2.629,9.375,5.158,14.518,6.431v6.037c-6.494-1.322-11.986-4.367-17.377-7.322-6.785-3.73-13.187-7.259-21.328-7.282s-14.561,3.473-21.369,7.16c-7.143,3.89-14.527,7.911-24.148,7.911S18399.93,13380.836,18392.773,13376.913Zm.047-16.992c-6.785-3.73-13.182-7.26-21.322-7.283s-14.561,3.464-21.355,7.161c-5.822,3.157-11.811,6.421-19.031,7.521v-5.842c5.846-1.062,10.934-3.825,16.248-6.713,7.146-3.876,14.527-7.915,24.162-7.915s16.961,4.081,24.115,8c6.781,3.744,13.184,7.259,21.314,7.292s14.561-3.468,21.365-7.165c7.146-3.881,14.527-7.916,24.158-7.916s16.965,4.082,24.121,8c4.781,2.631,9.375,5.161,14.518,6.433v5.945c-6.475-1.33-11.957-4.371-17.334-7.312-6.787-3.744-13.184-7.269-21.324-7.292s-14.564,3.473-21.359,7.166c-7.143,3.88-14.537,7.915-24.158,7.915S18399.977,13363.843,18392.82,13359.921Zm.043-17.073c-6.781-3.729-13.178-7.259-21.318-7.282s-14.551,3.473-21.359,7.17c-5.832,3.164-11.83,6.438-19.074,7.533v-6.112c5.869-1.05,10.959-3.814,16.295-6.712,7.141-3.89,14.537-7.915,24.158-7.915s16.959,4.082,24.115,8c6.785,3.729,13.188,7.259,21.328,7.282s14.547-3.473,21.355-7.156c7.146-3.89,14.537-7.915,24.158-7.915s16.959,4.082,24.115,8c4.771,2.623,9.35,5.146,14.477,6.421v6.2c-6.459-1.332-11.922-4.363-17.287-7.3-6.787-3.73-13.184-7.259-21.314-7.282s-14.561,3.473-21.369,7.156c-7.143,3.89-14.537,7.915-24.158,7.915S18400.023,13346.771,18392.863,13342.848Zm.057-17.081c-6.781-3.73-13.193-7.26-21.318-7.283s-14.566,3.459-21.369,7.156c-5.85,3.183-11.854,6.456-19.121,7.541v-6.078c5.891-1.048,11-3.825,16.336-6.73,7.146-3.88,14.543-7.915,24.164-7.915s16.959,4.1,24.115,8c6.781,3.745,13.184,7.273,21.322,7.292s14.561-3.468,21.357-7.165c7.146-3.88,14.541-7.915,24.162-7.915s16.959,4.082,24.115,8c4.756,2.614,9.322,5.13,14.43,6.409v6.188c-6.43-1.338-11.883-4.359-17.23-7.292-6.787-3.744-13.2-7.259-21.324-7.3s-14.564,3.473-21.369,7.17c-7.146,3.88-14.527,7.915-24.164,7.915S18400.066,13329.688,18392.92,13325.767Zm.051-17.017c-6.785-3.73-13.187-7.259-21.328-7.282s-14.561,3.473-21.355,7.17c-5.861,3.179-11.891,6.468-19.176,7.548V13310c5.906-1.038,11.035-3.815,16.393-6.728,7.146-3.876,14.527-7.915,24.154-7.915s16.959,4.082,24.115,8c6.781,3.735,13.191,7.26,21.322,7.283s14.561-3.459,21.365-7.156c7.146-3.89,14.533-7.915,24.164-7.915s16.959,4.081,24.105,8c4.738,2.609,9.295,5.115,14.383,6.4v6.256c-6.412-1.343-11.852-4.356-17.189-7.282-6.781-3.73-13.182-7.26-21.322-7.278s-14.561,3.468-21.355,7.165c-7.148,3.881-14.543,7.916-24.164,7.916S18400.127,13312.673,18392.971,13308.75Zm.043-17.059c-6.781-3.734-13.184-7.264-21.324-7.282s-14.564,3.459-21.359,7.156c-5.871,3.2-11.912,6.485-19.219,7.556v-6.115c5.922-1.036,11.057-3.828,16.426-6.745,7.146-3.876,14.531-7.911,24.162-7.854s16.961,4.077,24.117,8c6.785,3.73,13.182,7.255,21.313,7.278s14.561-3.468,21.371-7.166c7.141-3.88,14.537-7.915,24.158-7.915s16.959,4.082,24.115,8c4.729,2.609,9.268,5.107,14.34,6.393v6.172c-6.393-1.348-11.818-4.354-17.143-7.273-6.781-3.73-13.182-7.259-21.322-7.282s-14.566,3.463-21.355,7.161c-7.148,3.875-14.543,7.91-24.164,7.91S18400.17,13295.614,18393.014,13291.691Zm.1-17.143c-6.787-3.744-13.184-7.269-21.314-7.292s-14.561,3.473-21.369,7.166c-5.9,3.2-11.963,6.515-19.322,7.57v-5.886c5.949-1.042,11.055-3.913,16.439-6.85,7.146-3.88,14.537-7.915,24.162-7.915s16.961,4.082,24.117,8c6.781,3.729,13.182,7.259,21.322,7.282s14.561-3.459,21.355-7.156c7.146-3.89,14.543-7.915,24.164-7.915s16.955,4.082,24.115,8c4.721,2.6,9.258,5.1,14.326,6.384v6.163c-6.375-1.352-11.781-4.353-17.1-7.265-6.785-3.735-13.182-7.26-21.312-7.283s-14.529,3.379-21.314,7.076c-7.146,3.881-14.527,7.916-24.158,7.916S18400.271,13278.462,18393.117,13274.549Zm0-17.062c-6.787-3.73-13.2-7.26-21.328-7.278s-14.561,3.468-21.365,7.156c-5.9,3.212-11.963,6.517-19.312,7.57v-5.884c5.975-1.019,11.135-3.823,16.529-6.753,7.146-3.89,14.541-7.915,24.162-7.915s16.961,4.082,24.115,8c6.787,3.729,13.184,7.259,21.324,7.282s14.564-3.473,21.369-7.17c7.143-3.876,14.527-7.911,24.148-7.911s16.961,4.082,24.117,8c4.7,2.588,9.207,5.075,14.236,6.369v6.084c-6.348-1.358-11.742-4.35-17.039-7.256-6.785-3.73-13.2-7.255-21.322-7.278s-14.576,3.369-21.361,7.067c-7.156,3.875-14.537,7.915-24.158,7.915S18400.271,13261.413,18393.117,13257.486Zm0-17.025c-6.787-3.745-13.184-7.269-21.328-7.292s-14.561,3.468-21.355,7.165c-5.9,3.2-11.969,6.514-19.322,7.569v-6.037c6-1.011,11.186-3.83,16.607-6.776,7.148-3.88,14.529-7.915,24.164-7.915s16.959,4.082,24.1,8c6.785,3.73,13.2,7.26,21.328,7.283s14.561-3.459,21.369-7.156c7.143-3.881,14.523-7.915,24.158-7.915s16.961,4.081,24.117,8c4.668,2.568,9.158,5.042,14.156,6.341v6.193c-6.328-1.362-11.709-4.344-17-7.243-6.779-3.73-13.182-7.255-21.322-7.278s-14.561,3.426-21.4,7.143c-7.146,3.88-14.537,7.915-24.158,7.915S18400.271,13244.383,18393.117,13240.461Zm.055-17.063c-6.785-3.73-13.182-7.255-21.322-7.278s-14.564,3.469-21.361,7.156c-5.91,3.22-12,6.533-19.377,7.578v-5.921c6-1.009,11.18-3.828,16.607-6.77,7.148-3.89,14.543-7.911,24.164-7.911s16.959,4.082,24.115,8c6.781,3.73,13.184,7.259,21.324,7.277s14.551-3.468,21.359-7.165c7.143-3.881,14.537-7.915,24.158-7.915s16.961,4.081,24.117,8c4.668,2.568,9.156,5.041,14.156,6.34v6.055c-6.322-1.362-11.7-4.342-16.982-7.239-6.787-3.73-13.184-7.255-21.324-7.278s-14.551,3.459-21.359,7.156c-7.143,3.89-14.537,7.915-24.158,7.915S18400.328,13227.324,18393.172,13223.4Zm.09-17.025c-6.781-3.73-13.2-7.26-21.322-7.278s-14.561,3.459-21.371,7.156c-5.937,3.22-12.037,6.55-19.457,7.584v-5.863c6.037-1,11.238-3.826,16.678-6.787,7.143-3.88,14.537-7.915,24.158-7.915s16.961,4.082,24.117,8c6.785,3.744,13.182,7.259,21.322,7.292s14.566-3.473,21.361-7.166c7.141-3.88,14.537-7.915,24.162-7.915s16.955,4.082,24.111,8c4.65,2.557,9.119,5.019,14.092,6.322v6c-6.293-1.373-11.641-4.346-16.895-7.222-6.785-3.74-13.191-7.269-21.322-7.292s-14.561,3.472-21.369,7.165c-7.143,3.88-14.529,7.915-24.158,7.915S18400.408,13210.294,18393.262,13206.372Zm.033-17.082c-6.781-3.73-13.184-7.259-21.324-7.282s-14.561,3.473-21.369,7.17c-5.949,3.226-12.061,6.563-19.49,7.59v-5.854c6.074-.981,11.3-3.817,16.768-6.793,7.146-3.89,14.537-7.915,24.162-7.915s16.961,4.086,24.117,8.009c6.781,3.73,13.191,7.259,21.322,7.277s14.561-3.468,21.355-7.155c7.156-3.89,14.543-7.916,24.164-7.916s16.959,4.082,24.115,8c4.617,2.54,9.064,4.986,14,6.3v6c-6.27-1.376-11.615-4.337-16.861-7.213-6.781-3.735-13.184-7.26-21.322-7.283s-14.561,3.473-21.371,7.156c-7.141,3.89-14.527,7.915-24.148,7.915S18400.455,13193.213,18393.295,13189.29Zm.111-17.03c-6.781-3.73-13.178-7.259-21.322-7.278s-14.561,3.459-21.355,7.156c-5.975,3.252-12.121,6.6-19.6,7.609a27.548,27.548,0,0,1,.873-6.022c5.74-1.094,10.756-3.816,15.992-6.662,7.146-3.88,14.531-7.915,24.162-7.915s16.955,4.082,24.115,8c6.781,3.74,13.184,7.269,21.311,7.292s14.564-3.473,21.369-7.17c7.146-3.876,14.527-7.91,24.162-7.91s16.961,4.081,24.117,8c4.275,2.351,8.4,4.622,12.9,5.984a27.413,27.413,0,0,1,.969,6.309c-6.211-1.388-11.516-4.326-16.725-7.185-6.785-3.74-13.187-7.255-21.328-7.292s-14.561,3.473-21.355,7.17c-7.146,3.876-14.537,7.915-24.162,7.915S18400.568,13176.183,18393.406,13172.26Zm-.008-17.105c-1.217-.669-2.422-1.331-3.627-1.968h12.352c4.768,2.354,9.656,4.125,15.414,4.138,5.828.017,10.771-1.769,15.605-4.138h12.395c-1.283.665-2.564,1.359-3.861,2.062-7.146,3.89-14.541,7.911-24.162,7.911S18400.553,13159.077,18393.4,13155.154Zm-40.252-1.424c-.807.431-1.613.869-2.428,1.312a96.735,96.735,0,0,1-10.416,5.127A27.415,27.415,0,0,1,18353.146,13153.73Zm131.209,1.64c-.02-.011-.039-.021-.057-.031a27.455,27.455,0,0,1,4.578,2.469C18487.35,13157.014,18485.848,13156.188,18484.355,13155.37Z" transform="translate(-36921.109 -26669.188)" fill="#462b08" opacity="0.22"/>
  </g>
</svg>
