<svg xmlns="http://www.w3.org/2000/svg" width="67.545" height="75.068" viewBox="0 0 67.545 75.068">
  <g id="Group_2468" data-name="Group 2468" transform="translate(-4403.5 -2049.5)">
    <path id="Path_435" data-name="Path 435" d="M181.447,391.893A1.447,1.447,0,1,0,180,390.447,1.447,1.447,0,0,0,181.447,391.893Zm0,0" transform="translate(4250.04 1717.274)" stroke="#000" stroke-width="1"/>
    <path id="Path_436" data-name="Path 436" d="M62.205,24.014H54.972V1.447A1.447,1.447,0,0,0,53.526,0H13.02a1.447,1.447,0,0,0-1.447,1.447V24.014H4.34A4.345,4.345,0,0,0,0,28.354V39.927a4.347,4.347,0,0,0,2.893,4.091v25.71a4.345,4.345,0,0,0,4.34,4.34H59.312a4.345,4.345,0,0,0,4.34-4.34V44.019a4.347,4.347,0,0,0,2.893-4.091V28.354A4.345,4.345,0,0,0,62.205,24.014Zm-7.233,8.68h2.893v2.893H54.972ZM14.466,2.893H52.079V35.587H14.466ZM8.68,35.587V32.694h2.893v2.893ZM59.312,71.175H7.233a1.448,1.448,0,0,1-1.447-1.447V44.267H60.759V69.728A1.448,1.448,0,0,1,59.312,71.175Zm4.34-31.247a1.448,1.448,0,0,1-1.447,1.447H4.34a1.448,1.448,0,0,1-1.447-1.447V28.354A1.448,1.448,0,0,1,4.34,26.907h7.233V29.8H7.233a1.447,1.447,0,0,0-1.447,1.447v5.787a1.447,1.447,0,0,0,1.447,1.447H59.312a1.447,1.447,0,0,0,1.447-1.447V31.247A1.447,1.447,0,0,0,59.312,29.8h-4.34V26.907h7.233a1.448,1.448,0,0,1,1.447,1.447Zm0,0" transform="translate(4404 2050)" stroke="#000" stroke-width="1"/>
    <path id="Path_437" data-name="Path 437" d="M150.379,349H121.447A1.447,1.447,0,0,0,120,350.447V362.02a1.447,1.447,0,0,0,1.447,1.447h28.933a1.447,1.447,0,0,0,1.447-1.447V350.447A1.447,1.447,0,0,0,150.379,349Zm-1.447,11.573h-26.04v-8.68h26.04Zm0,0" transform="translate(4301.36 1751.488)" stroke="#000" stroke-width="1"/>
    <path id="Path_438" data-name="Path 438" d="M221.447,391.893h5.787a1.447,1.447,0,1,0,0-2.893h-5.787a1.447,1.447,0,1,0,0,2.893Zm0,0" transform="translate(4215.826 1717.274)" stroke="#000" stroke-width="1"/>
    <path id="Path_439" data-name="Path 439" d="M161.447,137.573a1.447,1.447,0,0,0,1.447-1.447,7.233,7.233,0,1,1,14.466,0,1.447,1.447,0,1,0,2.893,0,10.126,10.126,0,1,0-20.253,0A1.447,1.447,0,0,0,161.447,137.573Zm0,0" transform="translate(4267.146 1942.228)" stroke="#000" stroke-width="1"/>
    <path id="Path_440" data-name="Path 440" d="M161.447,71.787a1.447,1.447,0,0,0,1.447-1.447V67.447a1.447,1.447,0,0,0-2.893,0V70.34A1.447,1.447,0,0,0,161.447,71.787Zm0,0" transform="translate(4267.146 1993.548)" stroke="#000" stroke-width="1"/>
    <path id="Path_441" data-name="Path 441" d="M281.447,71.787a1.447,1.447,0,0,0,1.447-1.447V67.447a1.447,1.447,0,1,0-2.893,0V70.34A1.447,1.447,0,0,0,281.447,71.787Zm0,0" transform="translate(4164.506 1993.548)" stroke="#000" stroke-width="1"/>
  </g>
</svg>
