<svg xmlns="http://www.w3.org/2000/svg" width="32.961" height="32.961" viewBox="0 0 32.961 32.961"><defs><style>.a{fill:#2f2d64;}</style></defs><path class="a" d="M12.7,0H2.4A2.406,2.406,0,0,0,0,2.4v6.18a2.406,2.406,0,0,0,2.4,2.4H12.7a2.406,2.406,0,0,0,2.4-2.4V2.4A2.406,2.406,0,0,0,12.7,0Zm0,0"/><path class="a" d="M12.7,213.332H2.4a2.406,2.406,0,0,0-2.4,2.4v14.42a2.406,2.406,0,0,0,2.4,2.4H12.7a2.406,2.406,0,0,0,2.4-2.4v-14.42A2.406,2.406,0,0,0,12.7,213.332Zm0,0" transform="translate(0 -199.598)"/><path class="a" d="M290.036,341.332h-10.3a2.406,2.406,0,0,0-2.4,2.4v6.18a2.406,2.406,0,0,0,2.4,2.4h10.3a2.406,2.406,0,0,0,2.4-2.4v-6.18A2.406,2.406,0,0,0,290.036,341.332Zm0,0" transform="translate(-259.478 -319.358)"/><path class="a" d="M290.036,0h-10.3a2.406,2.406,0,0,0-2.4,2.4v14.42a2.406,2.406,0,0,0,2.4,2.4h10.3a2.406,2.406,0,0,0,2.4-2.4V2.4A2.406,2.406,0,0,0,290.036,0Zm0,0" transform="translate(-259.478)"/></svg>