<svg xmlns="http://www.w3.org/2000/svg" width="35.301" height="29.943" viewBox="0 0 35.301 29.943"><defs><style>.a{fill:#2f2d64;}</style></defs><g transform="translate(0 -38.84)"><g transform="translate(27.474 55.006)"><g transform="translate(0 0)"><path class="a" d="M401.224,273.32h-2.73a7.1,7.1,0,0,1,.43,2.441v10.317a3.043,3.043,0,0,1-.175,1.019h4.513a3.061,3.061,0,0,0,3.057-3.057v-5.625A5.1,5.1,0,0,0,401.224,273.32Z" transform="translate(-398.494 -273.32)"/></g></g><g transform="translate(0 55.006)"><g transform="translate(0 0)"><path class="a" d="M7.4,275.762a7.1,7.1,0,0,1,.43-2.441H5.1a5.1,5.1,0,0,0-5.1,5.1v5.625A3.061,3.061,0,0,0,3.057,287.1H7.571a3.044,3.044,0,0,1-.175-1.019Z" transform="translate(0 -273.321)"/></g></g><g transform="translate(9.434 52.351)"><g transform="translate(0 0)"><path class="a" d="M148.166,234.815h-6.241a5.1,5.1,0,0,0-5.1,5.1v10.317a1.019,1.019,0,0,0,1.019,1.019h14.394a1.019,1.019,0,0,0,1.019-1.019V239.911A5.1,5.1,0,0,0,148.166,234.815Z" transform="translate(-136.829 -234.815)"/></g></g><g transform="translate(11.521 38.84)"><g transform="translate(0 0)"><path class="a" d="M173.242,38.84a6.127,6.127,0,1,0,6.128,6.128A6.135,6.135,0,0,0,173.242,38.84Z" transform="translate(-167.114 -38.84)"/></g></g><g transform="translate(2.306 44.552)"><g transform="translate(0 0)"><path class="a" d="M38.026,121.689a4.581,4.581,0,1,0,4.583,4.583A4.588,4.588,0,0,0,38.026,121.689Z" transform="translate(-33.443 -121.689)"/></g></g><g transform="translate(23.827 44.552)"><g transform="translate(0 0)"><path class="a" d="M350.19,121.689a4.583,4.583,0,1,0,4.583,4.583A4.588,4.588,0,0,0,350.19,121.689Z" transform="translate(-345.607 -121.689)"/></g></g></g></svg>