<svg xmlns="http://www.w3.org/2000/svg" width="165.999" height="22.141" viewBox="0 0 165.999 22.141"><defs><style>.a{fill:#fff;}.b{fill:#f89939;}.c{fill:#198a44;}</style></defs><g transform="translate(0 0)"><path class="a" d="M34.111,4.647A2.7,2.7,0,0,1,33.344,6.7a3.045,3.045,0,0,1-2.178.726,4.436,4.436,0,0,1-2.7-.968,2.151,2.151,0,0,0-.484-2.5,2.7,2.7,0,0,0-1.754-.525A3.051,3.051,0,0,0,24.45,3.9a1.584,1.584,0,0,0-.665,1.391,2.253,2.253,0,0,0,1.17,1.755A15.238,15.238,0,0,0,27.778,8.58q1.653.706,3.308,1.532a9.189,9.189,0,0,1,2.823,2.158,4.458,4.458,0,0,1,1.17,3.025,5.7,5.7,0,0,1-2.783,4.88,11.567,11.567,0,0,1-6.675,1.9,13.612,13.612,0,0,1-6.514-1.412q-2.662-1.492-2.662-3.711a2.774,2.774,0,0,1,1.009-2.2,3.591,3.591,0,0,1,2.42-.868,3.52,3.52,0,0,1,3.146,1.372,1.837,1.837,0,0,0-.686,1.492,1.57,1.57,0,0,0,.888,1.431,4.709,4.709,0,0,0,2.339.5,4.087,4.087,0,0,0,2.319-.585,1.76,1.76,0,0,0,.867-1.513,2.208,2.208,0,0,0-1.17-1.735,17.116,17.116,0,0,0-2.823-1.532q-1.655-.727-3.308-1.573a9.281,9.281,0,0,1-2.823-2.2,4.479,4.479,0,0,1-1.17-3.005A5.582,5.582,0,0,1,19.994,2,9.733,9.733,0,0,1,26.024.088a11.71,11.71,0,0,1,5.788,1.291q2.3,1.293,2.3,3.269Z" transform="translate(13.061 0.07)"/><path class="b" d="M26.961.192H12.912A24.583,24.583,0,0,0,6.467.912a11.408,11.408,0,0,0-3.5,1.8A9.564,9.564,0,0,0,.489,6.192,11.859,11.859,0,0,0,0,7.409C1.505,6.251,6.321,5.1,11.26,5.1c8.507,0,14.172-.387,15.7-4.9Z" transform="translate(0 0.152)"/><path class="a" d="M26.961,4.618H12.912a24.584,24.584,0,0,0-6.445.72,11.416,11.416,0,0,0-3.5,1.8A9.559,9.559,0,0,0,.489,10.618,11.892,11.892,0,0,0,0,11.835c1.505-1.158,6.321-2.313,11.26-2.313C19.767,9.522,25.432,9.136,26.961,4.618Z" transform="translate(0 3.668)"/><path class="c" d="M0,15.446H14.05a24.568,24.568,0,0,0,6.444-.721,11.4,11.4,0,0,0,3.5-1.8,9.574,9.574,0,0,0,2.475-3.482,11.79,11.79,0,0,0,.489-1.217c-1.505,1.159-5.724,2.312-10.663,2.312-8.506,0-14.768.389-16.3,4.906Z" transform="translate(0 6.534)"/><path class="a" d="M58.005,17.273a1.742,1.742,0,0,0,.57,1.358,2.24,2.24,0,0,0,1.525.5,2.211,2.211,0,0,1-1.028,1.907,4.787,4.787,0,0,1-2.778.717,5.693,5.693,0,0,1-3.262-.844,2.586,2.586,0,0,1-1.246-2.237,39.209,39.209,0,0,1,.451-5.588q-.239,0-.8-.015t-.836-.015q-1.949,0-4.257.224c-.179,1.77-.278,3.1-.292,3.992a1.709,1.709,0,0,0,.583,1.358,2.269,2.269,0,0,0,1.531.5,2.2,2.2,0,0,1-1.034,1.907,4.846,4.846,0,0,1-2.791.717,5.632,5.632,0,0,1-3.249-.844,2.587,2.587,0,0,1-1.233-2.237,45.546,45.546,0,0,1,.59-6.559,47.329,47.329,0,0,0,.59-6.778,2.372,2.372,0,0,0-.477-1.556,1.512,1.512,0,0,0-1.233-.569,2.73,2.73,0,0,1,1.1-2.258A4.46,4.46,0,0,1,43.279.1a4.573,4.573,0,0,1,2.964.915,2.953,2.953,0,0,1,1.134,2.41q0,1.159-.564,5.914a30.581,30.581,0,0,1,4.257-.3q.676,0,1.71.061c.126-1.22.2-2.476.212-3.758a2.373,2.373,0,0,0-.477-1.556,1.53,1.53,0,0,0-1.233-.569A2.736,2.736,0,0,1,52.369.955,4.442,4.442,0,0,1,55.207.1a4.585,4.585,0,0,1,2.964.915A2.953,2.953,0,0,1,59.3,3.421q0,1.4-.65,6.707T58.005,17.273Z" transform="translate(31.242 0.076)"/><path class="a" d="M63.35,17.273a1.708,1.708,0,0,0,.583,1.358,2.257,2.257,0,0,0,1.531.5,2.2,2.2,0,0,1-1.034,1.907,4.846,4.846,0,0,1-2.791.717,5.654,5.654,0,0,1-3.255-.844,2.587,2.587,0,0,1-1.234-2.237,22.875,22.875,0,0,1,.12-2.354Q53.7,15.468,53.7,8.278a9.082,9.082,0,0,0-.623-3.666c-.411-.936-.948-1.4-1.611-1.4A2.944,2.944,0,0,1,52.377.955,3.327,3.327,0,0,1,54.764.1a4.788,4.788,0,0,1,3.507,1.21Q59.5,2.511,59.5,5.369V9.376q0,3.089,1.512,3.071Q64.925,8.542,64.9,5.074a2.07,2.07,0,0,0-.418-1.358,1.352,1.352,0,0,0-1.094-.5,2.815,2.815,0,0,1,1-2.258A3.884,3.884,0,0,1,67.023.1a5.483,5.483,0,0,1,3.2.844,2.549,2.549,0,0,1,1.213,2.181A13.424,13.424,0,0,1,69.2,9.935a21.747,21.747,0,0,1-5.815,6.356,9.694,9.694,0,0,0-.04.981Z" transform="translate(40.874 0.076)"/><path class="a" d="M83.113,9.919q0,12.051-9.985,12.051t-9.985-9.488Q63.143,0,73.128.014q5.012,0,7.5,2.39t2.486,7.515Zm-9.263,8.39q1.184,0,1.883-1.922a15.664,15.664,0,0,0,.7-5.187,11.835,11.835,0,0,0-1.067-5.542,3.264,3.264,0,0,0-2.951-1.993c-.736,0-1.353.681-1.843,2.049a16.443,16.443,0,0,0-.743,5.486,10.293,10.293,0,0,0,1.121,5.156,3.3,3.3,0,0,0,2.9,1.953Z" transform="translate(50.152 0.011)"/><path class="a" d="M96.1,13.255q0,1.983-2.427,2.131.12,2.387.119,2.715,0,1.365-2.7,2.619a13.14,13.14,0,0,1-5.576,1.251q-5.012,0-7.578-2.344t-2.566-6.89q0-6.285,2.605-9.5T85.655.014a11.717,11.717,0,0,1,6.1,1.505,4.569,4.569,0,0,1,2.526,4.068,3.012,3.012,0,0,1-1.372,2.395,7.208,7.208,0,0,1-4.4,1.058,7.746,7.746,0,0,0-1.193-3.966A3.021,3.021,0,0,0,84.78,3.7q-1.224,0-1.93,2.044a19.108,19.108,0,0,0-.709,5.924,8.662,8.662,0,0,0,1.173,4.968,3.367,3.367,0,0,0,2.772,1.678,2.709,2.709,0,0,0,1.405-.32.932.932,0,0,0,.537-.8q0-.267-.02-.61c-.013-.229-.033-.483-.06-.768s-.04-.519-.04-.707c-1.591-.142-2.692-.208-3.3-.208A2.853,2.853,0,0,1,85.648,12.5a4.473,4.473,0,0,1,2.824-.808c3.547,0,5.663-.153,6.332-.463.325,0,.623.234.9.707a2.66,2.66,0,0,1,.4,1.317Z" transform="translate(59.87 0.011)"/><path class="a" d="M92.6,21.757a5.632,5.632,0,0,1-3.249-.844,2.587,2.587,0,0,1-1.233-2.237,45.572,45.572,0,0,1,.59-6.559,47.331,47.331,0,0,0,.59-6.778,2.373,2.373,0,0,0-.477-1.556,1.512,1.512,0,0,0-1.233-.569,2.73,2.73,0,0,1,1.1-2.258A4.46,4.46,0,0,1,91.536.1a4.573,4.573,0,0,1,2.964.915,2.954,2.954,0,0,1,1.134,2.41q0,1.4-.656,6.707a70.822,70.822,0,0,0-.663,7.144A1.709,1.709,0,0,0,94.9,18.63a2.269,2.269,0,0,0,1.532.5,2.2,2.2,0,0,1-1.034,1.907A4.846,4.846,0,0,1,92.6,21.757Z" transform="translate(69.57 0.076)"/><path class="a" d="M45.817,7.26v9.156A3.016,3.016,0,0,0,48,19.642a5.7,5.7,0,0,1-1.957,1.674,5.387,5.387,0,0,1-2.6.665,3.43,3.43,0,0,1-3.711-2.662,8.221,8.221,0,0,1-6.252,2.662,6.733,6.733,0,0,1-4.436-1.371,4.744,4.744,0,0,1-1.654-3.872q0-3.065,3.207-4.9t8.894-1.916V6.09q0-2.7-2.178-2.7a2.076,2.076,0,0,0-1.472.545,1.891,1.891,0,0,0-.585,1.452,2.543,2.543,0,0,0,.646,1.674,4.546,4.546,0,0,1-3.448,1.452,4.351,4.351,0,0,1-3.065-.927,3.166,3.166,0,0,1-.989-2.42q0-2.258,2.763-3.711A13.678,13.678,0,0,1,37.609,0a9.508,9.508,0,0,1,5.949,1.734q2.259,1.735,2.259,5.526ZM34.241,16.012q0,1.977,2.258,1.977a3.9,3.9,0,0,0,2.985-1.533V12.544Q34.241,12.826,34.241,16.012Z" transform="translate(21.75 0)"/></g></svg>