<svg xmlns="http://www.w3.org/2000/svg" width="74.638" height="74.638" viewBox="0 0 74.638 74.638">
  <g id="Group_2470" data-name="Group 2470" transform="translate(-4999.5 -2048.5)">
    <path id="Path_442" data-name="Path 442" d="M83.5,20.909H76.137V19.682a3.682,3.682,0,1,0-7.364,0v1.227H56.5V19.682a3.682,3.682,0,1,0-7.364,0v1.227H36.864V19.682a3.682,3.682,0,1,0-7.364,0v1.227H22.136A6.143,6.143,0,0,0,16,27.046V83.5a6.143,6.143,0,0,0,6.136,6.136H83.5A6.143,6.143,0,0,0,89.638,83.5V27.046A6.143,6.143,0,0,0,83.5,20.909ZM71.228,19.682a1.227,1.227,0,1,1,2.455,0v7.364a1.227,1.227,0,0,1-2.455,0Zm-19.637,0a1.227,1.227,0,1,1,2.455,0v7.364a1.227,1.227,0,0,1-2.455,0Zm-19.637,0a1.227,1.227,0,1,1,2.455,0v7.364a1.227,1.227,0,0,1-2.455,0Zm-9.818,3.682H29.5v3.682a3.682,3.682,0,0,0,7.364,0V23.364H49.137v3.682a3.682,3.682,0,1,0,7.364,0V23.364H68.774v3.682a3.682,3.682,0,0,0,7.364,0V23.364H83.5a3.686,3.686,0,0,1,3.682,3.682v8.591H18.455V27.046A3.686,3.686,0,0,1,22.136,23.364ZM83.5,87.183H22.136A3.686,3.686,0,0,1,18.455,83.5V38.091H87.183V83.5A3.686,3.686,0,0,1,83.5,87.183Z" transform="translate(4984 2033)" stroke="#000" stroke-width="1"/>
    <path id="Path_443" data-name="Path 443" d="M406.136,216h-4.909A1.227,1.227,0,0,0,400,217.227v4.909a1.227,1.227,0,0,0,1.227,1.227h4.909a1.227,1.227,0,0,0,1.227-1.227v-4.909A1.227,1.227,0,0,0,406.136,216Zm-1.227,4.909h-2.455v-2.455h2.455Z" transform="translate(4658.91 1863.682)" stroke="#000" stroke-width="1"/>
    <path id="Path_444" data-name="Path 444" d="M246.136,376h-4.909A1.227,1.227,0,0,0,240,377.227v4.909a1.227,1.227,0,0,0,1.227,1.227h4.909a1.227,1.227,0,0,0,1.227-1.227v-4.909A1.227,1.227,0,0,0,246.136,376Zm-1.227,4.909h-2.455v-2.455h2.455Z" transform="translate(4794.364 1728.228)" stroke="#000" stroke-width="1"/>
    <path id="Path_445" data-name="Path 445" d="M166.136,216h-4.909A1.227,1.227,0,0,0,160,217.227v4.909a1.227,1.227,0,0,0,1.227,1.227h4.909a1.227,1.227,0,0,0,1.227-1.227v-4.909A1.227,1.227,0,0,0,166.136,216Zm-1.227,4.909h-2.455v-2.455h2.455Z" transform="translate(4862.091 1863.682)" stroke="#000" stroke-width="1"/>
    <path id="Path_446" data-name="Path 446" d="M86.136,296H81.227A1.227,1.227,0,0,0,80,297.227v4.909a1.227,1.227,0,0,0,1.227,1.227h4.909a1.227,1.227,0,0,0,1.227-1.227v-4.909A1.227,1.227,0,0,0,86.136,296Zm-1.227,4.909H82.455v-2.455h2.455Z" transform="translate(4929.818 1795.955)" stroke="#000" stroke-width="1"/>
    <path id="Path_447" data-name="Path 447" d="M166.136,296h-4.909A1.227,1.227,0,0,0,160,297.227v4.909a1.227,1.227,0,0,0,1.227,1.227h4.909a1.227,1.227,0,0,0,1.227-1.227v-4.909A1.227,1.227,0,0,0,166.136,296Zm-1.227,4.909h-2.455v-2.455h2.455Z" transform="translate(4862.091 1795.955)" stroke="#000" stroke-width="1"/>
    <path id="Path_448" data-name="Path 448" d="M86.136,376H81.227A1.227,1.227,0,0,0,80,377.227v4.909a1.227,1.227,0,0,0,1.227,1.227h4.909a1.227,1.227,0,0,0,1.227-1.227v-4.909A1.227,1.227,0,0,0,86.136,376Zm-1.227,4.909H82.455v-2.455h2.455Z" transform="translate(4929.818 1728.228)" stroke="#000" stroke-width="1"/>
    <path id="Path_449" data-name="Path 449" d="M166.136,376h-4.909A1.227,1.227,0,0,0,160,377.227v4.909a1.227,1.227,0,0,0,1.227,1.227h4.909a1.227,1.227,0,0,0,1.227-1.227v-4.909A1.227,1.227,0,0,0,166.136,376Zm-1.227,4.909h-2.455v-2.455h2.455Z" transform="translate(4862.091 1728.228)" stroke="#000" stroke-width="1"/>
    <path id="Path_450" data-name="Path 450" d="M253.052,207.514l-6.136-.938L244.16,200.7a1.227,1.227,0,0,0-2.222,0l-2.755,5.871-6.136.938a1.227,1.227,0,0,0-.693,2.071l4.477,4.588-1.059,6.493a1.227,1.227,0,0,0,1.8,1.271l5.474-3.026,5.474,3.026a1.227,1.227,0,0,0,1.805-1.272l-1.059-6.493,4.477-4.588a1.227,1.227,0,0,0-.693-2.071Zm-5.973,5.387a1.227,1.227,0,0,0-.333,1.055l.752,4.61-3.856-2.132a1.227,1.227,0,0,0-1.187,0l-3.856,2.132.752-4.61a1.227,1.227,0,0,0-.333-1.055l-3.24-3.322,4.423-.675a1.227,1.227,0,0,0,.926-.692l1.923-4.1,1.923,4.1a1.227,1.227,0,0,0,.926.692l4.423.675Z" transform="translate(4801.134 1877.229)" stroke="#000" stroke-width="1"/>
    <path id="Path_451" data-name="Path 451" d="M406.136,296h-4.909A1.227,1.227,0,0,0,400,297.227v4.909a1.227,1.227,0,0,0,1.227,1.227h4.909a1.227,1.227,0,0,0,1.227-1.227v-4.909A1.227,1.227,0,0,0,406.136,296Zm-1.227,4.909h-2.455v-2.455h2.455Z" transform="translate(4658.91 1795.955)" stroke="#000" stroke-width="1"/>
    <path id="Path_452" data-name="Path 452" d="M406.136,376h-4.909A1.227,1.227,0,0,0,400,377.227v4.909a1.227,1.227,0,0,0,1.227,1.227h4.909a1.227,1.227,0,0,0,1.227-1.227v-4.909A1.227,1.227,0,0,0,406.136,376Zm-1.227,4.909h-2.455v-2.455h2.455Z" transform="translate(4658.91 1728.228)" stroke="#000" stroke-width="1"/>
    <path id="Path_453" data-name="Path 453" d="M326.136,376h-4.909A1.227,1.227,0,0,0,320,377.227v4.909a1.227,1.227,0,0,0,1.227,1.227h4.909a1.227,1.227,0,0,0,1.227-1.227v-4.909A1.227,1.227,0,0,0,326.136,376Zm-1.227,4.909h-2.455v-2.455h2.455Z" transform="translate(4726.637 1728.228)" stroke="#000" stroke-width="1"/>
  </g>
</svg>
