<svg xmlns="http://www.w3.org/2000/svg" width="13.263" height="12.188" viewBox="0 0 13.263 12.188">
  <g id="XMLID_221_" transform="translate(0 -18.5)">
    <path id="XMLID_222_" d="M3.406,27.142a.554.554,0,0,0,0-1.108H0V23.67H4.482a.546.546,0,0,0,.538-.554V18.5H9.143a.546.546,0,0,1,.538.554v11.08a.546.546,0,0,1-.538.554H.538A.546.546,0,0,1,0,30.134V27.142H3.406Z" transform="translate(3.582)" fill="#2f2d64"/>
    <path id="XMLID_223_" d="M270,186.887c0-.008,0-.016,0-.025s0-.019,0-.029,0-.018.007-.028,0-.017.006-.025.006-.018.009-.026l.009-.025.011-.024.012-.025.013-.022.015-.024.017-.023.015-.02q.017-.02.035-.039l0,0,1.385-1.385a.554.554,0,0,1,.783.783l-.439.439h1.691V187.5h-1.691l.439.439a.554.554,0,1,1-.783.783l-1.385-1.385h0q-.019-.019-.036-.04l-.015-.02-.017-.023-.015-.024-.013-.022-.012-.025-.011-.024c0-.008-.006-.017-.009-.025s-.006-.017-.009-.026,0-.017-.007-.025,0-.018-.007-.027,0-.019,0-.029,0-.016,0-.024,0-.036,0-.054h0Q270,186.913,270,186.887Z" transform="translate(-270 -160.353)" fill="#2f2d64"/>
    <path id="XMLID_224_" d="M160,31.025l3.738-3.738v3.738H160Z" transform="translate(-156.209 -8.462)" fill="#2f2d64"/>
  </g>
</svg>
