<svg xmlns="http://www.w3.org/2000/svg" width="20.072" height="10.039" viewBox="0 0 20.072 10.039">
  <g id="eye-variant-with-enlarged-pupil" transform="translate(-0.001 -42.012)">
    <g id="Group_4154" data-name="Group 4154" transform="translate(0.001 42.012)">
      <circle id="Ellipse_101" data-name="Ellipse 101" cx="2.472" cy="2.472" r="2.472" transform="translate(7.564 2.547)" fill="#2f2d64"/>
      <path id="Path_995" data-name="Path 995" d="M19.948,46.718c-.181-.192-4.487-4.706-9.913-4.706S.3,46.526.124,46.718a.457.457,0,0,0,0,.625c.181.192,4.487,4.708,9.911,4.708s9.733-4.516,9.913-4.708A.455.455,0,0,0,19.948,46.718Zm-9.911,4.134a3.821,3.821,0,1,1,3.822-3.822A3.825,3.825,0,0,1,10.036,50.852ZM7.008,43.423a4.671,4.671,0,0,0,0,7.215,16.591,16.591,0,0,1-5.9-3.608A16.6,16.6,0,0,1,7.008,43.423Zm6.059,7.214a4.667,4.667,0,0,0,0-7.212,16.591,16.591,0,0,1,5.9,3.606A16.624,16.624,0,0,1,13.067,50.637Z" transform="translate(-0.001 -42.012)" fill="#2f2d64"/>
    </g>
  </g>
</svg>
