<svg xmlns="http://www.w3.org/2000/svg" width="240.974" height="32.141" viewBox="0 0 240.974 32.141">
  <g id="Group_4603" data-name="Group 4603" transform="translate(13057 13682)">
    <path id="_248437328" d="M42.09,6.706a3.919,3.919,0,0,1-1.113,2.986,4.421,4.421,0,0,1-3.162,1.053,6.439,6.439,0,0,1-3.922-1.405q.76-2.4-.7-3.63a3.925,3.925,0,0,0-2.547-.762,4.429,4.429,0,0,0-2.577.674,2.3,2.3,0,0,0-.965,2.02,3.271,3.271,0,0,0,1.7,2.548,22.121,22.121,0,0,0,4.1,2.225q2.4,1.025,4.8,2.224a13.34,13.34,0,0,1,4.1,3.132,6.471,6.471,0,0,1,1.7,4.391,8.271,8.271,0,0,1-4.041,7.084A16.792,16.792,0,0,1,29.765,32a19.759,19.759,0,0,1-9.456-2.049q-3.864-2.165-3.865-5.387a4.027,4.027,0,0,1,1.464-3.191,5.212,5.212,0,0,1,3.513-1.26q3.219,0,4.567,1.991a2.667,2.667,0,0,0-1,2.167,2.28,2.28,0,0,0,1.289,2.078,6.835,6.835,0,0,0,3.4.732,5.934,5.934,0,0,0,3.367-.849,2.555,2.555,0,0,0,1.259-2.2,3.206,3.206,0,0,0-1.7-2.518,24.846,24.846,0,0,0-4.1-2.224q-2.4-1.055-4.8-2.284a13.473,13.473,0,0,1-4.1-3.191,6.5,6.5,0,0,1-1.7-4.363q0-3.805,3.689-6.587A14.129,14.129,0,0,1,30.35.088a17,17,0,0,1,8.4,1.874Q42.09,3.839,42.09,6.706Z" transform="translate(-13030.612 -13681.858)" fill="#bcbcbc"/>
    <path id="_248437016" d="M39.139.192H18.744A35.686,35.686,0,0,0,9.388,1.238,16.561,16.561,0,0,0,4.3,3.848,13.883,13.883,0,0,0,.71,8.9,17.215,17.215,0,0,0,0,10.669C2.185,8.988,9.176,7.312,16.346,7.312c12.349,0,20.573-.562,22.793-7.12Z" transform="translate(-13057 -13681.692)" fill="#bcbcbc"/>
    <path id="_248436512" d="M39.139,4.618H18.744A35.688,35.688,0,0,0,9.388,5.664,16.572,16.572,0,0,0,4.3,8.275,13.876,13.876,0,0,0,.71,13.327,17.263,17.263,0,0,0,0,15.095c2.185-1.681,9.176-3.357,16.346-3.357C28.694,11.737,36.919,11.176,39.139,4.618Z" transform="translate(-13057 -13674.59)" fill="#bcbcbc"/>
    <path id="_248436416" d="M0,18.706H20.4A35.664,35.664,0,0,0,29.75,17.66a16.55,16.55,0,0,0,5.085-2.61,13.9,13.9,0,0,0,3.593-5.055,17.115,17.115,0,0,0,.71-1.767c-2.185,1.682-8.31,3.356-15.48,3.356-12.348,0-21.439.565-23.659,7.122Z" transform="translate(-13057 -13668.799)" fill="#bcbcbc"/>
    <path id="_248444480" d="M66.438,25.031A2.528,2.528,0,0,0,67.265,27a3.252,3.252,0,0,0,2.214.731A3.21,3.21,0,0,1,67.987,30.5a6.95,6.95,0,0,1-4.033,1.041,8.264,8.264,0,0,1-4.735-1.225,3.753,3.753,0,0,1-1.809-3.248,56.918,56.918,0,0,1,.654-8.112q-.347,0-1.155-.022-.823-.022-1.213-.022-2.83,0-6.179.325c-.26,2.569-.4,4.5-.424,5.794A2.481,2.481,0,0,0,49.941,27a3.293,3.293,0,0,0,2.223.731,3.2,3.2,0,0,1-1.5,2.768,7.035,7.035,0,0,1-4.052,1.041,8.176,8.176,0,0,1-4.716-1.225,3.756,3.756,0,0,1-1.79-3.248,66.118,66.118,0,0,1,.857-9.522,68.705,68.705,0,0,0,.856-9.84,3.444,3.444,0,0,0-.693-2.259,2.195,2.195,0,0,0-1.79-.827,3.964,3.964,0,0,1,1.6-3.277A6.474,6.474,0,0,1,45.061.1a6.638,6.638,0,0,1,4.3,1.329,4.287,4.287,0,0,1,1.646,3.5q0,1.683-.818,8.585a44.393,44.393,0,0,1,6.179-.435q.982,0,2.483.089c.183-1.771.289-3.595.308-5.455a3.445,3.445,0,0,0-.693-2.259,2.221,2.221,0,0,0-1.79-.827,3.972,3.972,0,0,1,1.578-3.277A6.448,6.448,0,0,1,62.376.1a6.656,6.656,0,0,1,4.3,1.329,4.287,4.287,0,0,1,1.646,3.5q0,2.026-.943,9.736T66.438,25.031Z" transform="translate(-12993.882 -13681.846)" fill="#bcbcbc"/>
    <path id="_248439344" d="M68.72,25.031A2.48,2.48,0,0,0,69.567,27a3.276,3.276,0,0,0,2.223.731,3.2,3.2,0,0,1-1.5,2.768,7.035,7.035,0,0,1-4.052,1.041,8.208,8.208,0,0,1-4.725-1.225,3.755,3.755,0,0,1-1.791-3.248,33.206,33.206,0,0,1,.174-3.418q-5.183-1.24-5.188-11.677a13.184,13.184,0,0,0-.9-5.322c-.6-1.358-1.377-2.03-2.339-2.03A4.274,4.274,0,0,1,52.79,1.343,4.83,4.83,0,0,1,56.255.1a6.95,6.95,0,0,1,5.092,1.757q1.79,1.75,1.79,5.9v5.817q0,4.484,2.194,4.458,5.674-5.669,5.64-10.7a3,3,0,0,0-.607-1.971,1.963,1.963,0,0,0-1.588-.731,4.087,4.087,0,0,1,1.453-3.277A5.638,5.638,0,0,1,74.052.1a7.959,7.959,0,0,1,4.639,1.225,3.7,3.7,0,0,1,1.761,3.167q0,4.518-3.234,9.891a31.569,31.569,0,0,1-8.441,9.227,14.073,14.073,0,0,0-.058,1.424Z" transform="translate(-12974.421 -13681.846)" fill="#bcbcbc"/>
    <path id="_248438792" d="M92.133,14.393q0,17.494-14.5,17.494T63.143,18.113q0-18.125,14.495-18.1,7.276,0,10.886,3.469t3.61,10.91ZM78.687,26.572q1.718,0,2.734-2.79a22.739,22.739,0,0,0,1.01-7.529,17.181,17.181,0,0,0-1.549-8.046A4.738,4.738,0,0,0,76.6,5.314c-1.068,0-1.963.989-2.675,2.975a23.87,23.87,0,0,0-1.078,7.965,14.942,14.942,0,0,0,1.627,7.485q1.617,2.835,4.216,2.834Z" transform="translate(-12955.678 -13681.979)" fill="#bcbcbc"/>
    <path id="_248437664" d="M105.465,19.235q0,2.879-3.523,3.093.173,3.465.173,3.942,0,1.982-3.917,3.8A19.075,19.075,0,0,1,90.1,31.887q-7.276,0-11-3.4t-3.725-10q0-9.124,3.782-13.8T90.3.014A17.009,17.009,0,0,1,99.151,2.2,6.632,6.632,0,0,1,102.818,8.1a4.372,4.372,0,0,1-1.992,3.477q-1.978,1.539-6.381,1.535a11.244,11.244,0,0,0-1.732-5.758,4.386,4.386,0,0,0-3.686-2q-1.776,0-2.8,2.967a27.738,27.738,0,0,0-1.03,8.6c0,3.189.568,5.588,1.7,7.212a4.887,4.887,0,0,0,4.023,2.436,3.933,3.933,0,0,0,2.04-.465,1.353,1.353,0,0,0,.78-1.159q0-.388-.029-.886c-.019-.332-.048-.7-.086-1.115s-.058-.753-.058-1.026c-2.31-.207-3.908-.3-4.793-.3a4.142,4.142,0,0,1,1.511-3.477,6.493,6.493,0,0,1,4.1-1.174c5.149,0,8.22-.221,9.192-.672.471,0,.9.34,1.3,1.026a3.861,3.861,0,0,1,.587,1.912Z" transform="translate(-12936.044 -13681.978)" fill="#bcbcbc"/>
    <path id="_248435696" d="M94.867,31.541a8.176,8.176,0,0,1-4.716-1.225,3.756,3.756,0,0,1-1.79-3.248,66.156,66.156,0,0,1,.856-9.522,68.706,68.706,0,0,0,.857-9.84,3.445,3.445,0,0,0-.693-2.259,2.2,2.2,0,0,0-1.79-.827,3.963,3.963,0,0,1,1.6-3.277A6.474,6.474,0,0,1,93.318.1a6.638,6.638,0,0,1,4.3,1.329,4.288,4.288,0,0,1,1.646,3.5q0,2.026-.953,9.736a102.809,102.809,0,0,0-.963,10.371A2.481,2.481,0,0,0,98.2,27a3.294,3.294,0,0,0,2.223.731,3.2,3.2,0,0,1-1.5,2.768A7.034,7.034,0,0,1,94.867,31.541Z" transform="translate(-12916.447 -13681.846)" fill="#bcbcbc"/>
    <path id="_248441696" d="M54.142,10.539V23.83q0,3.689,3.162,4.684a8.279,8.279,0,0,1-2.841,2.429,7.821,7.821,0,0,1-3.776.966q-4.334,0-5.387-3.864a11.934,11.934,0,0,1-9.075,3.864,9.773,9.773,0,0,1-6.44-1.99,6.887,6.887,0,0,1-2.4-5.621q0-4.449,4.655-7.114T44.95,14.4V8.841q0-3.922-3.162-3.923a3.013,3.013,0,0,0-2.137.791A2.744,2.744,0,0,0,38.8,7.817a3.692,3.692,0,0,0,.937,2.43,6.6,6.6,0,0,1-5.006,2.108,6.316,6.316,0,0,1-4.45-1.346,4.6,4.6,0,0,1-1.435-3.513q0-3.278,4.011-5.387A19.856,19.856,0,0,1,42.228,0a13.8,13.8,0,0,1,8.635,2.517q3.279,2.518,3.279,8.021Zm-16.8,12.705q0,2.87,3.278,2.869a5.662,5.662,0,0,0,4.333-2.225V18.209Q37.338,18.619,37.339,23.244Z" transform="translate(-13013.058 -13682)" fill="#bcbcbc"/>
  </g>
</svg>
