<svg xmlns="http://www.w3.org/2000/svg" width="32.857" height="32.86" viewBox="0 0 32.857 32.86"><defs><style>.a{fill:#acadb2;}</style></defs><path class="a" d="M31.974,14.292l0,0L18.568.886a3.024,3.024,0,0,0-4.278,0l-13.4,13.4L.878,14.3a3.024,3.024,0,0,0,2.013,5.154q.046,0,.093,0h.534V29.32A3.544,3.544,0,0,0,7.06,32.86H12.3a.963.963,0,0,0,.963-.963V24.163a1.617,1.617,0,0,1,1.615-1.615h3.093a1.617,1.617,0,0,1,1.615,1.615V31.9a.963.963,0,0,0,.963.963H25.8a3.544,3.544,0,0,0,3.541-3.54V19.455h.5a3.025,3.025,0,0,0,2.141-5.163Zm0,0" transform="translate(0 0.001)"/></svg>