<svg xmlns="http://www.w3.org/2000/svg" width="13.554" height="12.188" viewBox="0 0 13.554 12.188">
  <g id="XMLID_221_" transform="translate(0 -18.5)">
    <path id="XMLID_222_" d="M6.463,27.142a.554.554,0,0,1,0-1.108H9.972V23.67H5.355a.554.554,0,0,1-.554-.554V18.5H.554A.554.554,0,0,0,0,19.054v11.08a.554.554,0,0,0,.554.554H9.418a.554.554,0,0,0,.554-.554V27.142H6.463Z" fill="#bcbcbc"/>
    <path id="XMLID_223_" d="M273.58,186.887c0-.008,0-.016,0-.025s0-.019,0-.029,0-.018-.007-.028,0-.017-.006-.025-.006-.018-.009-.026l-.009-.025-.011-.024-.012-.025-.013-.022-.015-.024-.017-.023-.015-.02q-.017-.02-.035-.039l0,0-1.385-1.385a.554.554,0,0,0-.783.783l.439.439H270V187.5h1.691l-.439.439a.554.554,0,1,0,.783.783l1.385-1.385h0q.019-.019.036-.04l.015-.02.017-.023.015-.024.013-.022.012-.025.011-.024c0-.008.006-.017.009-.025s.006-.017.009-.026,0-.017.007-.025,0-.018.007-.027,0-.019,0-.029,0-.016,0-.024,0-.036,0-.054h0Q273.582,186.913,273.58,186.887Z" transform="translate(-260.028 -160.353)" fill="#bcbcbc"/>
    <path id="XMLID_224_" d="M163.738,31.025,160,27.287v3.738h3.738Z" transform="translate(-154.091 -8.462)" fill="#bcbcbc"/>
  </g>
</svg>
