<svg xmlns="http://www.w3.org/2000/svg" width="74.638" height="74.638" viewBox="0 0 74.638 74.638">
  <g id="Group_2464" data-name="Group 2464" transform="translate(-4708.5 -1534.5)">
    <path id="Path_363" data-name="Path 363" d="M59.459,57.242c-.5.292-1.332.118-1.359,2.006-.181,12.768,1.6,11.513-5.173,11.513H6.328c-3.388,0-3.453.119-3.452-3.308V7.479c0-3.373-.523-4.6,2.152-4.606l46.46,0c7.738,0,6.616-1,6.616,6.76v6.616c0,2.987-.509,4.792,1.438,5.128,1.376.086,1.45-1.126,1.441-2.105V4.6A4.266,4.266,0,0,0,57.949.155,3.176,3.176,0,0,0,57.234,0H3.927A4.486,4.486,0,0,0,.837,1.7,4.1,4.1,0,0,0,0,4.329v.562C.134,24.345,0,44.213,0,63.714v5.778c.3,2.349,1.4,4.144,4.846,4.145h.16c16.822-.067,34.171-.108,50.968,0h.782a4.3,4.3,0,0,0,4.11-3.136c.294-1.011.1-8.76.118-10.961.013-1.606-.161-2.051-1.524-2.3Z" transform="translate(4709 1535)" fill="#198a44" stroke="#198a44" stroke-width="1" fill-rule="evenodd"/>
    <path id="Path_364" data-name="Path 364" d="M27.7,12.267c-.181.922-12.378,21.58-14.179,24.8-1.02,1.822-1.2,1.654-1.467,4.129-.217,1.975-1.227,8.566-1.064,10.053a1.408,1.408,0,0,0,1.453,1.269A4.147,4.147,0,0,0,14.3,51.5l6.447-4.768c1.59-1.163,1.708-1.031,2.782-2.83.7-1.181,1.351-2.375,2.05-3.56.368-.622.664-1.119,1.006-1.724A13.587,13.587,0,0,1,27.7,36.8c.121-.36,1.2-2.094,1.488-2.623,2.066-3.784,5.61-9.76,7.8-13.486,1.1-1.88,2.033-3.612,3.142-5.487A11.286,11.286,0,0,0,41.8,11.078v-1.4a5.968,5.968,0,0,0-2.048-3.559,5.751,5.751,0,0,0-2.875-1.44,5.968,5.968,0,0,0-5.887,2.246,7.714,7.714,0,0,0-.848,1.31c-.32.564-2.149,3.823-2.438,4.035Z" transform="translate(4740.842 1548.334)" fill="#198a44" stroke="#198a44" stroke-width="1" fill-rule="evenodd"/>
    <path id="Path_365" data-name="Path 365" d="M16.231,2.088A12.936,12.936,0,0,0,9.207,5.057a13.221,13.221,0,1,0,21.582,8.672,12.993,12.993,0,0,0-1.617-4.989A13.158,13.158,0,0,0,27.824,6.78a12.577,12.577,0,0,0-1.647-1.662,13.194,13.194,0,0,0-9.945-3.03Z" transform="translate(4721.841 1540.771)" fill="#198a44" stroke="#198a44" stroke-width="1" fill-rule="evenodd"/>
    <path id="Path_366" data-name="Path 366" d="M12.179,32.118l5.463,3.149L32.1,10.117l-5.424-3.1C26.133,7.783,19.9,18.67,19.4,19.565c-.682,1.219-6.886,11.769-7.22,12.552Z" transform="translate(4744.338 1555.358)" fill="#fff" stroke="#198a44" stroke-width="1" fill-rule="evenodd"/>
    <path id="Path_367" data-name="Path 367" d="M7.108,19.108c.681-.552.635-1,1.816-1.918a15.2,15.2,0,0,1,2.343-1.528,7.553,7.553,0,0,1-.959-2.734C9.642,5.69,17.727,4.411,20.133,9.4c1.125,2.334.2,4.193-.5,6.261,1.619,1.11,2.086.92,3.669,2.934l.267.3c.019.02.055.053.073.07l.15.137c2.42-2.582,2.462-7.829.7-11.047a10.331,10.331,0,0,0-18.082,0c-1.749,3.233-1.724,8.433.7,11.043Z" transform="translate(4724.041 1542.925)" fill="#fff" stroke="#198a44" stroke-width="1" fill-rule="evenodd"/>
    <path id="Path_368" data-name="Path 368" d="M5.319,14.21a1.366,1.366,0,0,0-.989,1.938c.354.926,1.265.871,2.454.866,2.4-.01,18.761.14,19.64-.076A1.383,1.383,0,0,0,27.361,15c-.352-.922-1.26-.872-2.454-.867-3.359.014-18.473-.216-19.588.074Z" transform="translate(4721.2 1575.804)" fill="#198a44" stroke="#198a44" stroke-width="1" fill-rule="evenodd"/>
    <path id="Path_369" data-name="Path 369" d="M5.319,10.081A1.366,1.366,0,0,0,4.33,12.02c.351.919,1.263.872,2.454.867,2.408-.01,18.759.14,19.639-.076a1.383,1.383,0,0,0,.938-1.937c-.352-.922-1.26-.872-2.454-.867-3.359.014-18.473-.216-19.588.074Z" transform="translate(4721.2 1563.825)" fill="#198a44" stroke="#198a44" stroke-width="1" fill-rule="evenodd"/>
    <path id="Path_370" data-name="Path 370" d="M5.24,12.151a1.369,1.369,0,0,0-.86,2.012c.41.871,1.4.767,2.555.763,3.183-.011,18.677.182,19.606-.106a1.4,1.4,0,0,0,.783-2.009c-.409-.87-1.388-.767-2.555-.763-3.048.011-18.767-.154-19.529.1Z" transform="translate(4721.194 1569.838)" fill="#198a44" stroke="#198a44" stroke-width="1" fill-rule="evenodd"/>
    <path id="Path_371" data-name="Path 371" d="M6.229,10.092c1.157,1.228,3.906,2.152,6.187,2.152s5.044-.92,6.189-2.152c-2.447-4.68-9.93-4.676-12.376,0Z" transform="translate(4727.075 1554.104)" fill="#fff" stroke="#198a44" stroke-width="1" fill-rule="evenodd"/>
    <path id="Path_372" data-name="Path 372" d="M16.268,9.371l5.421,3.1c1.594-2.047,3.058-4.977.309-6.682a3.113,3.113,0,0,0-3.774.441,14.466,14.466,0,0,0-1.956,3.145Z" transform="translate(4756.203 1550.478)" fill="#fff" stroke="#198a44" stroke-width="1" fill-rule="evenodd"/>
    <path id="Path_373" data-name="Path 373" d="M8.494,16.273c-.522.176-.726.289-.9.758-.835,2.235,2.042,2.017,2.884,2.016a58.729,58.729,0,0,0,6.662-.105,1.419,1.419,0,0,0,.734-2.106c-.471-.825-1.649-.667-2.793-.665a62.684,62.684,0,0,0-6.585.1Z" transform="translate(4730.596 1581.825)" fill="#198a44" stroke="#198a44" stroke-width="1" fill-rule="evenodd"/>
    <path id="Path_374" data-name="Path 374" d="M8.813,4.555c-2.768,1.037-1.746,6.306,1.492,5.26,1.269-.41,1.776-1.746,1.531-3.442A2.259,2.259,0,0,0,8.813,4.555Z" transform="translate(4729.921 1547.781)" fill="#fff" stroke="#198a44" stroke-width="1" fill-rule="evenodd"/>
    <path id="Path_375" data-name="Path 375" d="M11.8,20l4.7-3.432c-.022-.024-.059-.092-.069-.069a2.882,2.882,0,0,0-.846-.572l-3.141-1.711L11.8,20Z" transform="translate(4743.244 1576.25)" fill="#fff" stroke="#198a44" stroke-width="1" fill-rule="evenodd"/>
    <path id="Path_376" data-name="Path 376" d="M3.643,10.064a1.4,1.4,0,1,0,.849,2.671C6.243,12.211,5.385,9.368,3.643,10.064Z" transform="translate(4716.631 1563.887)" fill="#198a44" stroke="#198a44" stroke-width="1" fill-rule="evenodd"/>
    <path id="Path_377" data-name="Path 377" d="M3.643,14.192A1.4,1.4,0,1,0,4.5,16.852C6.275,16.316,5.359,13.506,3.643,14.192Z" transform="translate(4716.631 1575.868)" fill="#198a44" stroke="#198a44" stroke-width="1" fill-rule="evenodd"/>
    <path id="Path_378" data-name="Path 378" d="M3.643,12.127a1.4,1.4,0,1,0,.855,2.66C6.275,14.252,5.359,11.442,3.643,12.127Z" transform="translate(4716.631 1569.878)" fill="#198a44" stroke="#198a44" stroke-width="1" fill-rule="evenodd"/>
  </g>
</svg>
