<svg xmlns="http://www.w3.org/2000/svg" width="32.742" height="32.742" viewBox="0 0 32.742 32.742"><defs><style>.a,.b{fill:#2f2d64;}.b{stroke:#2f2d64;stroke-width:0.3px;}</style></defs><g transform="translate(0 0)"><path class="a" d="M42.234,37.2c-.092-.308-.473-.452-.863-.452a.835.835,0,0,0-.853.452l-1.983,6.463a.6.6,0,0,0-.02.1c0,.329.483.555.843.555.226,0,.4-.072.452-.267l.39-1.367h2.353l.391,1.367c.051.2.226.267.452.267.36,0,.843-.236.843-.555a.454.454,0,0,0-.02-.1L42.234,37.2Zm-1.757,4.438.894-3.154.894,3.154Z" transform="translate(-18.327 -17.487)"/><path class="a" d="M29.214,13.357H19.385v-4.2l3.194-2.282a.959.959,0,0,0,0-1.561L19.346,3.007A3.533,3.533,0,0,0,15.857,0H3.528A3.532,3.532,0,0,0,0,3.528v12.33a3.532,3.532,0,0,0,3.528,3.528h9.829v4.2l-3.194,2.282a.959.959,0,0,0,0,1.561L13.4,29.735a3.533,3.533,0,0,0,3.489,3.007h12.33a3.532,3.532,0,0,0,3.528-3.528V16.885a3.532,3.532,0,0,0-3.528-3.528ZM3.528,17.467a1.611,1.611,0,0,1-1.609-1.609V3.528A1.611,1.611,0,0,1,3.528,1.918H15.857a1.611,1.611,0,0,1,1.609,1.609.959.959,0,0,0,.4.781l2.5,1.788-2.5,1.788a.96.96,0,0,0-.4.781v4.692h-.582a3.532,3.532,0,0,0-3.528,3.528v.582Zm27.3,11.747s-.722,1.609-1.609,1.609H16.885a1.611,1.611,0,0,1-1.609-1.609.959.959,0,0,0-.4-.78l-2.5-1.788,2.5-1.788a.96.96,0,0,0,.4-.781V16.885a1.611,1.611,0,0,1,1.609-1.609h12.33a1.611,1.611,0,0,1,1.609,1.609Z" transform="translate(0 0)"/><path class="b" d="M10.472,11.754h3.786V14.81q0,.179-.6.79a2,2,0,0,1-1.386.745.77.77,0,0,1-.671-.313,1.554,1.554,0,0,1-.224-.909q0-.88,1.282-1.3a6.283,6.283,0,0,1,1.818-.283h.194l-.194-.566h-.537a5.443,5.443,0,0,0-1.908.283,1.582,1.582,0,0,0-1.163,1.55,2.738,2.738,0,0,0,.544,1.573,1.54,1.54,0,0,0,1.26.783,1.7,1.7,0,0,0,1.148-.522,2.825,2.825,0,0,0,.432-.522v2.087l.88.641V15.555q0-.134.522-.656a1.817,1.817,0,0,1,1.163-.6.669.669,0,0,1,.626.253,1.772,1.772,0,0,1,.1.686,3.148,3.148,0,0,1-.656,1.893,4.252,4.252,0,0,1-.656.7l.73.581a2.951,2.951,0,0,0,.671-.894,3.587,3.587,0,0,0,.581-1.789,2.447,2.447,0,0,0-.567-1.55,1.563,1.563,0,0,0-1.192-.715,1.516,1.516,0,0,0-.924.373,1.015,1.015,0,0,0-.4.447V11.754h3.741v-.671H10.472v.671Z" transform="translate(-4.983 -5.274)"/></g></svg>