<svg id="email_1_" data-name="email (1)" xmlns="http://www.w3.org/2000/svg" width="78.257" height="78.257" viewBox="0 0 78.257 78.257">
  <path id="Path_610" data-name="Path 610" d="M77.477,33.041,66.822,23.647V12.889a2.3,2.3,0,0,0-2.3-2.3H52.007L40.651.575a2.3,2.3,0,0,0-3.044,0L26.25,10.588H13.736a2.3,2.3,0,0,0-2.3,2.3V23.647L.779,33.041A2.248,2.248,0,0,0,0,34.768V75.955a2.306,2.306,0,0,0,2.3,2.3H75.955a2.3,2.3,0,0,0,2.3-2.3V34.768a2.3,2.3,0,0,0-.78-1.726ZM73.653,70.618l-19.7-18.587,19.7-12.989ZM6.083,34.5l5.352-4.718v8.248c-3.036-2-3.729-2.46-5.352-3.529Zm9.955-19.313H62.219V41.069L39.128,56.3,16.038,41.069V15.191Zm23.09-9.82,5.918,5.217H33.21ZM72.174,34.5c-1.6,1.053-2.369,1.564-5.352,3.529V29.785ZM4.6,39.042,24.3,52.032,4.6,70.618ZM28.248,54.636l9.613,6.34a2.3,2.3,0,0,0,2.535,0l9.613-6.34L70.163,73.653H8.094Z" fill="#2f2d64"/>
  <path id="Path_611" data-name="Path 611" d="M173.732,162.193h21.043a2.3,2.3,0,1,0,0-4.6H173.732a2.3,2.3,0,1,0,0,4.6Z" transform="translate(-145.125 -133.409)" fill="#2f2d64"/>
  <path id="Path_612" data-name="Path 612" d="M173.732,229.433h21.043a2.3,2.3,0,1,0,0-4.6H173.732a2.3,2.3,0,1,0,0,4.6Z" transform="translate(-145.125 -190.331)" fill="#2f2d64"/>
</svg>
