<svg xmlns="http://www.w3.org/2000/svg" width="59.893" height="59.891" viewBox="0 0 59.893 59.891">
  <g id="Group_1484" data-name="Group 1484" transform="translate(-13901.383 2844)">
    <path id="Path_334" data-name="Path 334" d="M277.212,405.323H257.248a1.248,1.248,0,1,0,0,2.5h19.964a1.248,1.248,0,1,0,0-2.5Z" transform="translate(13675.329 -3201.91)" fill="#2f2d64"/>
    <path id="Path_335" data-name="Path 335" d="M277.212,447.989H257.248a1.248,1.248,0,1,0,0,2.5h19.964a1.248,1.248,0,1,0,0-2.5Z" transform="translate(13675.329 -3239.585)" fill="#2f2d64"/>
    <path id="Path_336" data-name="Path 336" d="M46.41,405.323a3.743,3.743,0,1,0,3.743,3.743A3.748,3.748,0,0,0,46.41,405.323Zm0,4.991a1.248,1.248,0,1,1,1.248-1.248A1.248,1.248,0,0,1,46.41,410.314Z" transform="translate(13863.707 -3201.91)" fill="#2f2d64"/>
    <path id="Path_337" data-name="Path 337" d="M46.41,277.323a3.743,3.743,0,1,0,3.743,3.743A3.748,3.748,0,0,0,46.41,277.323Zm0,4.991a1.248,1.248,0,1,1,1.248-1.248A1.248,1.248,0,0,1,46.41,282.314Z" transform="translate(13863.707 -3088.883)" fill="#2f2d64"/>
    <path id="Path_338" data-name="Path 338" d="M277.212,191.989H257.248a1.248,1.248,0,1,0,0,2.5h19.964a1.248,1.248,0,1,0,0-2.5Z" transform="translate(13675.329 -3013.532)" fill="#2f2d64"/>
    <path id="Path_339" data-name="Path 339" d="M59.893,23.716V18.725a6.184,6.184,0,0,0-.946-3.262c-.017-.035-.02-.075-.04-.107l-7.716-12.4a6.2,6.2,0,0,0-5.3-2.942H14.008a6.2,6.2,0,0,0-5.3,2.942L.993,15.356c-.013.02-.013.042-.025.065A6.189,6.189,0,0,0,0,18.725v4.991a6.216,6.216,0,0,0,2.536,4.991A6.219,6.219,0,0,0,0,33.7V38.69a6.216,6.216,0,0,0,2.536,4.991A6.219,6.219,0,0,0,0,48.672v4.991A6.248,6.248,0,0,0,6.239,59.9H53.654a6.248,6.248,0,0,0,6.239-6.239V48.672a6.216,6.216,0,0,0-2.536-4.991,6.215,6.215,0,0,0,2.536-4.991V33.7a6.216,6.216,0,0,0-2.536-4.991A6.212,6.212,0,0,0,59.893,23.716ZM10.828,4.271A3.717,3.717,0,0,1,14,2.5H45.891a3.717,3.717,0,0,1,3.177,1.767l5.148,8.273c-.187-.017-.369-.057-.561-.057H6.239c-.192,0-.372.04-.559.057Zm46.57,44.4v4.991a3.748,3.748,0,0,1-3.743,3.743H6.239A3.748,3.748,0,0,1,2.5,53.663V48.672a3.748,3.748,0,0,1,3.743-3.743H53.654A3.748,3.748,0,0,1,57.4,48.672Zm0-14.973V38.69a3.748,3.748,0,0,1-3.743,3.743H6.239A3.748,3.748,0,0,1,2.5,38.69V33.7a3.748,3.748,0,0,1,3.743-3.743H53.654A3.748,3.748,0,0,1,57.4,33.7Zm0-9.982a3.748,3.748,0,0,1-3.743,3.743H6.239A3.748,3.748,0,0,1,2.5,23.716V18.725a3.748,3.748,0,0,1,3.743-3.743H53.654A3.748,3.748,0,0,1,57.4,18.725v4.991Z" transform="translate(13901.383 -2844.011)" fill="#2f2d64"/>
    <path id="Path_340" data-name="Path 340" d="M277.212,149.323H257.248a1.248,1.248,0,1,0,0,2.5h19.964a1.248,1.248,0,1,0,0-2.5Z" transform="translate(13675.329 -2975.857)" fill="#2f2d64"/>
    <path id="Path_341" data-name="Path 341" d="M277.212,319.989H257.248a1.248,1.248,0,1,0,0,2.5h19.964a1.248,1.248,0,1,0,0-2.5Z" transform="translate(13675.329 -3126.558)" fill="#2f2d64"/>
    <path id="Path_342" data-name="Path 342" d="M277.212,277.323H257.248a1.248,1.248,0,1,0,0,2.5h19.964a1.248,1.248,0,1,0,0-2.5Z" transform="translate(13675.329 -3088.883)" fill="#2f2d64"/>
    <path id="Path_343" data-name="Path 343" d="M46.41,149.323a3.743,3.743,0,1,0,3.743,3.743A3.748,3.748,0,0,0,46.41,149.323Zm0,4.991a1.248,1.248,0,1,1,1.248-1.248A1.248,1.248,0,0,1,46.41,154.314Z" transform="translate(13863.707 -2975.857)" fill="#2f2d64"/>
  </g>
</svg>
