<svg xmlns="http://www.w3.org/2000/svg" width="28.995" height="28.995" viewBox="0 0 28.995 28.995"><defs><style>.a{fill:#2f2d64;}</style></defs><g transform="translate(0 -0.004)"><path class="a" d="M18.122,15.709a1.208,1.208,0,0,0-1.208,1.208V21.75a1.209,1.209,0,0,1-1.208,1.208H12.081V4.836a2.435,2.435,0,0,0-1.645-2.3l-.358-.12h5.627a1.209,1.209,0,0,1,1.208,1.208V7.253a1.208,1.208,0,1,0,2.416,0V3.628A3.629,3.629,0,0,0,15.705,0H2.718A.949.949,0,0,0,2.589.03C2.531.026,2.475,0,2.416,0A2.419,2.419,0,0,0,0,2.42V24.166a2.435,2.435,0,0,0,1.645,2.3l7.271,2.424A2.5,2.5,0,0,0,9.665,29a2.419,2.419,0,0,0,2.416-2.416V25.374h3.624A3.629,3.629,0,0,0,19.33,21.75V16.917a1.208,1.208,0,0,0-1.208-1.208Zm0,0"/><path class="a" d="M290.268,111.852l-4.833-4.832a1.208,1.208,0,0,0-2.062.854V111.5H278.54a1.208,1.208,0,1,0,0,2.416h4.832v3.624a1.208,1.208,0,0,0,2.062.854l4.833-4.833a1.207,1.207,0,0,0,0-1.708Zm0,0" transform="translate(-261.627 -100.621)"/></g></svg>