<svg xmlns="http://www.w3.org/2000/svg" width="121.56" height="121.56" viewBox="0 0 121.56 121.56">
  <g id="monitoring" transform="translate(-1 -1)">
    <path id="Path_1110" data-name="Path 1110" d="M20.685,16.237l2.508,7.525h9.256V19.841H26.02l-5.335-16L14.439,22.574,12.094,17.88H5V21.8H9.67l5.5,10.991Z" transform="translate(3.843 2.726)" fill="#2f2d64"/>
    <path id="Path_1111" data-name="Path 1111" d="M112.756,93.15a9.814,9.814,0,0,0,9.8-9.8V32.37a9.814,9.814,0,0,0-7.933-9.615,21.552,21.552,0,0,0-42.944-.188H44.134A21.567,21.567,0,1,0,9.556,39.762,13.678,13.678,0,0,0,4.921,50.016V61.143A19.131,19.131,0,0,0,16.685,78.816v5.505A22.969,22.969,0,0,0,4.921,104.347V122.56H49.734v-.045A16.12,16.12,0,0,0,55.6,121.1l15.952-7.25a6.682,6.682,0,0,0,1.678-1.1h8.152a5.874,5.874,0,0,0,5.521-3.921h29.77a5.882,5.882,0,1,0,0-11.764H104.914a1.961,1.961,0,0,1-1.961-1.961V93.15Zm0-3.921H45.091A23.1,23.1,0,0,0,32.37,81.847V78.965a8.191,8.191,0,0,0,2.674-1.5h83.594v5.882A5.889,5.889,0,0,1,112.756,89.229ZM77.465,97.071H74.006a13.334,13.334,0,0,0-10.266,4.855V93.15H79.426v4.119A9.794,9.794,0,0,0,77.465,97.071ZM51.612,108.1l-1-7A22.715,22.715,0,0,0,47.9,93.15H59.819v11.215ZM25.739,51.975l1.42-2.837a1.949,1.949,0,0,1,1.755-1.084h11.3a1.961,1.961,0,0,1,0,3.921ZM93.15,6.882A17.646,17.646,0,1,1,75.5,24.528,17.666,17.666,0,0,1,93.15,6.882ZM71.683,26.488a21.56,21.56,0,0,0,42.911.324,5.869,5.869,0,0,1,4.045,5.558V73.544H37.617a8.128,8.128,0,0,0,.329-3.141L36.5,55.9h3.717a5.882,5.882,0,1,0,0-11.764H36.093A9.734,9.734,0,0,0,34.5,40.5a21.4,21.4,0,0,0,9.239-14.015ZM4.921,22.567A17.646,17.646,0,1,1,31.543,37.715a9.711,9.711,0,0,0-5.053-1.423H18.646a13.638,13.638,0,0,0-5.5,1.157A17.653,17.653,0,0,1,4.921,22.567ZM8.843,50.016a9.814,9.814,0,0,1,9.8-9.8H26.49a5.884,5.884,0,0,1,5.543,3.919H28.912a5.851,5.851,0,0,0-5.262,3.251l-2.3,4.592H8.843Zm0,11.127V55.9h5.374a8.986,8.986,0,0,0-1.453,4.9,9.123,9.123,0,0,0,2.655,6.407l1.267,1.267V74.44A15.206,15.206,0,0,1,8.843,61.143Zm9.348,3.292A5.177,5.177,0,0,1,16.685,60.8a5.1,5.1,0,0,1,1.506-3.635L19.459,55.9h13.1l1.49,14.9a4.264,4.264,0,0,1-1.233,3.455,4.318,4.318,0,0,1-3.029,1.255H24.528v3.921h3.921v1.986c-.19-.006-.376-.027-.567-.027a22.811,22.811,0,0,0-7.276,1.2V66.85Zm35.789,53.1a12.324,12.324,0,0,1-16.9-7.68L34.25,100.43l-3.757,1.125,2.827,9.425a16.164,16.164,0,0,0,5.017,7.658H8.843V104.347a19.038,19.038,0,0,1,37.885-2.692l1.163,8.131-2.608,1.186,1.623,3.568,11.609-5.278,2.3,5.164Zm15.954-7.252-5.551,2.523-2.3-5.166,5.447-2.476a2.939,2.939,0,0,1,1.237-.249,2.81,2.81,0,0,1,1.163,5.368Zm11.452-1.447H75.4a6.524,6.524,0,0,0,.1-1.11,6.707,6.707,0,0,0-4.345-6.262,9.227,9.227,0,0,1,2.847-.471h3.459a5.889,5.889,0,0,1,5.882,5.882,1.961,1.961,0,0,1-1.961,1.961Zm23.528-7.843h11.764a1.961,1.961,0,1,1,0,3.921H87.07a9.779,9.779,0,0,0-3.723-5.831V93.15H99.032v1.961A5.889,5.889,0,0,0,104.914,100.993Z" transform="translate(0)" fill="#2f2d64"/>
    <path id="Path_1112" data-name="Path 1112" d="M57,42h3.921v3.921H57Z" transform="translate(53.796 39.386)" fill="#2f2d64"/>
    <path id="Path_1113" data-name="Path 1113" d="M49,42h3.921v3.921H49Z" transform="translate(46.111 39.386)" fill="#2f2d64"/>
    <path id="Path_1114" data-name="Path 1114" d="M53,42h3.921v3.921H53Z" transform="translate(49.953 39.386)" fill="#2f2d64"/>
    <path id="Path_1115" data-name="Path 1115" d="M42,8h3.921v3.921H42Z" transform="translate(39.386 6.724)" fill="#2f2d64"/>
    <path id="Path_1116" data-name="Path 1116" d="M46,8H61.685v3.921H46Z" transform="translate(43.229 6.724)" fill="#2f2d64"/>
    <path id="Path_1117" data-name="Path 1117" d="M42,12h3.921v3.921H42Z" transform="translate(39.386 10.567)" fill="#2f2d64"/>
    <path id="Path_1118" data-name="Path 1118" d="M46,12H61.685v3.921H46Z" transform="translate(43.229 10.567)" fill="#2f2d64"/>
    <path id="Path_1119" data-name="Path 1119" d="M42,16h3.921v3.921H42Z" transform="translate(39.386 14.41)" fill="#2f2d64"/>
    <path id="Path_1120" data-name="Path 1120" d="M46,16H61.685v3.921H46Z" transform="translate(43.229 14.41)" fill="#2f2d64"/>
    <path id="Path_1121" data-name="Path 1121" d="M45.606,28H26V43.685H45.606ZM41.685,39.764H29.921V31.921H41.685Z" transform="translate(24.016 25.937)" fill="#2f2d64"/>
    <path id="Path_1122" data-name="Path 1122" d="M26,24H45.606v3.921H26Z" transform="translate(24.016 22.095)" fill="#2f2d64"/>
    <path id="Path_1123" data-name="Path 1123" d="M26,20H45.606v3.921H26Z" transform="translate(24.016 18.252)" fill="#2f2d64"/>
    <path id="Path_1124" data-name="Path 1124" d="M26,16H45.606v3.921H26Z" transform="translate(24.016 14.41)" fill="#2f2d64"/>
    <path id="Path_1125" data-name="Path 1125" d="M38,34h3.921v3.921H38Z" transform="translate(35.544 31.701)" fill="#2f2d64"/>
    <path id="Path_1126" data-name="Path 1126" d="M42,34H75.331v3.921H42Z" transform="translate(39.386 31.701)" fill="#2f2d64"/>
    <path id="Path_1127" data-name="Path 1127" d="M38,30H79.173v3.921H38Z" transform="translate(35.544 27.859)" fill="#2f2d64"/>
    <path id="Path_1128" data-name="Path 1128" d="M38,26H79.173v3.921H38Z" transform="translate(35.544 24.016)" fill="#2f2d64"/>
  </g>
</svg>
