<svg xmlns="http://www.w3.org/2000/svg" width="21.988" height="21.985" viewBox="0 0 21.988 21.985">
  <g id="Group_2795" data-name="Group 2795" transform="translate(8973.722 15469)">
    <g id="Group_2469" data-name="Group 2469" transform="translate(-8973.722 -15469)">
      <path id="Path_363" data-name="Path 363" d="M17.751,17.09c-.149.087-.4.035-.406.6-.054,3.812.478,3.437-1.544,3.437H1.888c-1.012,0-1.031.036-1.031-.988V2.233C.857,1.226.7.86,1.5.858H15.371c2.31,0,1.975-.3,1.975,2.018V4.851c0,.892-.152,1.431.429,1.531.411.026.433-.336.43-.628V1.373A1.274,1.274,0,0,0,17.3.046.948.948,0,0,0,17.086,0H1.171A1.339,1.339,0,0,0,.248.508,1.224,1.224,0,0,0,0,1.292V1.46C.038,7.269,0,13.2,0,19.023v1.725a1.264,1.264,0,0,0,1.447,1.238h.048c5.022-.02,10.2-.032,15.217,0h.233a1.284,1.284,0,0,0,1.227-.936c.088-.3.03-2.615.035-3.273,0-.479-.048-.612-.455-.687Z" transform="translate(0.003 0)" fill="#2f2d64" fill-rule="evenodd"/>
      <path id="Path_364" data-name="Path 364" d="M15.967,6.868c-.054.275-3.7,6.443-4.233,7.4A2.1,2.1,0,0,0,11.3,15.5c-.065.59-.366,2.558-.318,3a.42.42,0,0,0,.434.379,1.238,1.238,0,0,0,.554-.3l1.925-1.424a1.971,1.971,0,0,0,.831-.845c.209-.353.4-.709.612-1.063.11-.186.2-.334.3-.515a4.057,4.057,0,0,1,.333-.543c.036-.107.358-.625.444-.783.617-1.13,1.675-2.914,2.329-4.026.328-.561.607-1.078.938-1.638a3.37,3.37,0,0,0,.5-1.232V6.095a1.782,1.782,0,0,0-.611-1.063,1.717,1.717,0,0,0-.858-.43,1.782,1.782,0,0,0-1.758.671,2.3,2.3,0,0,0-.253.391c-.1.168-.642,1.141-.728,1.2Z" transform="translate(1.811 0.776)" fill="#2f2d64" fill-rule="evenodd"/>
      <path id="Path_365" data-name="Path 365" d="M7.954,2.033a3.862,3.862,0,0,0-2.1.886A3.947,3.947,0,1,0,12.3,5.508a3.879,3.879,0,0,0-.483-1.49,3.928,3.928,0,0,0-.4-.585,3.755,3.755,0,0,0-.492-.5,3.939,3.939,0,0,0-2.969-.9Z" transform="translate(0.726 0.314)" fill="#2f2d64" fill-rule="evenodd"/>
      <path id="Path_366" data-name="Path 366" d="M12.179,14.511l1.631.94,4.317-7.509-1.619-.926c-.162.229-2.023,3.479-2.172,3.746-.2.364-2.056,3.514-2.156,3.748Z" transform="translate(2.009 1.156)" fill="#fff" fill-rule="evenodd"/>
      <path id="Path_367" data-name="Path 367" d="M5.758,7.615c.2-.165.19-.3.542-.573A4.538,4.538,0,0,1,7,6.586a2.255,2.255,0,0,1-.286-.816A1.566,1.566,0,0,1,9.647,4.717,2.236,2.236,0,0,1,9.5,6.586a3.034,3.034,0,0,1,1.1.876l.08.09.022.021.045.041a3.128,3.128,0,0,0,.209-3.3,3.084,3.084,0,0,0-5.4,0,3.132,3.132,0,0,0,.209,3.3Z" transform="translate(0.856 0.456)" fill="#fff" fill-rule="evenodd"/>
      <path id="Path_368" data-name="Path 368" d="M4.53,14.1a.408.408,0,0,0-.3.579c.106.276.378.26.733.259.717,0,5.6.042,5.864-.023a.413.413,0,0,0,.28-.579c-.105-.275-.376-.26-.733-.259-1,0-5.515-.064-5.848.022Z" transform="translate(0.701 2.321)" fill="#2f2d64" fill-rule="evenodd"/>
      <path id="Path_369" data-name="Path 369" d="M4.53,9.978a.408.408,0,0,0-.3.579c.1.274.377.26.733.259.719,0,5.6.042,5.863-.023a.413.413,0,0,0,.28-.578c-.105-.275-.376-.26-.733-.259C9.375,9.96,4.863,9.891,4.53,9.978Z" transform="translate(0.702 1.638)" fill="#2f2d64" fill-rule="evenodd"/>
      <path id="Path_370" data-name="Path 370" d="M4.509,12.049a.409.409,0,0,0-.257.6c.122.26.418.229.763.228.95,0,5.576.054,5.854-.032a.418.418,0,0,0,.234-.6c-.122-.26-.414-.229-.763-.228-.91,0-5.6-.046-5.831.03Z" transform="translate(0.697 1.98)" fill="#2f2d64" fill-rule="evenodd"/>
      <path id="Path_371" data-name="Path 371" d="M6.229,7.631a2.863,2.863,0,0,0,1.847.643,2.851,2.851,0,0,0,1.848-.643A2.153,2.153,0,0,0,6.229,7.631Z" transform="translate(1.028 1.086)" fill="#fff" fill-rule="evenodd"/>
      <path id="Path_372" data-name="Path 372" d="M16.268,6.548l1.619.926c.476-.611.913-1.486.092-2a.929.929,0,0,0-1.127.132,4.319,4.319,0,0,0-.584.939Z" transform="translate(2.683 0.871)" fill="#fff" fill-rule="evenodd"/>
      <path id="Path_373" data-name="Path 373" d="M7.757,16.171c-.156.053-.217.086-.269.226-.249.667.61.6.861.6a17.534,17.534,0,0,0,1.989-.031.424.424,0,0,0,.219-.629c-.141-.246-.492-.2-.834-.2a18.714,18.714,0,0,0-1.966.03Z" transform="translate(1.227 2.668)" fill="#2f2d64" fill-rule="evenodd"/>
      <path id="Path_374" data-name="Path 374" d="M7.688,4.456c-.826.31-.521,1.883.445,1.57.379-.122.53-.521.457-1.028a.674.674,0,0,0-.9-.543Z" transform="translate(1.19 0.719)" fill="#fff" fill-rule="evenodd"/>
      <path id="Path_375" data-name="Path 375" d="M11.8,15.943l1.4-1.025c-.007-.007-.018-.027-.021-.021a.86.86,0,0,0-.253-.171l-.938-.511Z" transform="translate(1.948 2.344)" fill="#fff" fill-rule="evenodd"/>
      <path id="Path_376" data-name="Path 376" d="M2.958,9.988a.418.418,0,0,0,.253.8C3.734,10.629,3.478,9.78,2.958,9.988Z" transform="translate(0.409 1.642)" fill="#2f2d64" fill-rule="evenodd"/>
      <path id="Path_377" data-name="Path 377" d="M2.9,14.117a.418.418,0,1,0,.256.794C3.69,14.751,3.416,13.912,2.9,14.117Z" transform="translate(0.463 2.322)" fill="#2f2d64" fill-rule="evenodd"/>
      <path id="Path_378" data-name="Path 378" d="M2.9,12.052a.418.418,0,1,0,.255.794C3.686,12.686,3.412,11.847,2.9,12.052Z" transform="translate(0.467 1.982)" fill="#2f2d64" fill-rule="evenodd"/>
    </g>
  </g>
</svg>
