<svg xmlns="http://www.w3.org/2000/svg" width="22.102" height="22.104" viewBox="0 0 22.102 22.104">
  <g id="Group_2799" data-name="Group 2799" transform="translate(8648.823 15469)">
    <g id="Group_2472" data-name="Group 2472" transform="translate(-8648.823 -15469)">
      <g id="Group_2329" data-name="Group 2329" transform="translate(0 3.967)">
        <g id="Group_2328" data-name="Group 2328" transform="translate(0 0)">
          <path id="Path_482" data-name="Path 482" d="M10.307,107.706l-1.3-5.18a1.94,1.94,0,0,0-.437-.825,1.942,1.942,0,0,0-1.447-3.236H5.738L4.98,96.949l-.009-.016a2.591,2.591,0,1,0-2.983-.6,1.937,1.937,0,0,0-.631,1.01L.064,102.526a1.945,1.945,0,0,0,1.1,2.248L.025,109.315a.647.647,0,0,0,1.256.314l.525-2.1H6.258l.28,1.119a1.943,1.943,0,1,0,3.769-.943ZM3.89,93.285a1.3,1.3,0,1,1-1.3,1.3,1.3,1.3,0,0,1,1.3-1.3Zm-1.761,12.95.325-1.295H5.612l.324,1.3Zm6.449,2.571a.647.647,0,0,1-.785-.471l-1.05-4.2a.647.647,0,0,0-.627-.491H1.946a.648.648,0,0,1-.627-.8l1.295-5.179a.649.649,0,0,1,1.208-.133h0L4.758,99.4a.647.647,0,0,0,.579.359h1.79a.648.648,0,0,1,0,1.3H4.536a.644.644,0,0,1-.579-.359.648.648,0,0,0-1.158.579,1.932,1.932,0,0,0,1.738,1.074h2.59a.647.647,0,0,1,.627.49l1.3,5.18A.649.649,0,0,1,8.578,108.806Z" transform="translate(-0.006 -91.985)" fill="#2f2d64"/>
        </g>
      </g>
      <g id="Group_2331" data-name="Group 2331" transform="translate(11.74 3.972)">
        <g id="Group_2330" data-name="Group 2330" transform="translate(0 0)">
          <path id="Path_483" data-name="Path 483" d="M281.2,104.786a1.942,1.942,0,0,0,1.1-2.248L281,97.357a1.936,1.936,0,0,0-.63-1.009,2.589,2.589,0,1,0-2.983.6l-.009.016-.758,1.516h-1.389a1.942,1.942,0,0,0-1.447,3.236,1.94,1.94,0,0,0-.437.825l-1.3,5.18a1.943,1.943,0,1,0,3.769.942l.28-1.119h4.451l.525,2.1a.647.647,0,1,0,1.256-.314Zm-4.025-10.194a1.3,1.3,0,1,1,1.295,1.294A1.3,1.3,0,0,1,277.172,94.592Zm-.75,11.655.324-1.3H279.9l.324,1.3Zm3.987-2.59h-4.169a.647.647,0,0,0-.627.491l-1.05,4.2a.648.648,0,1,1-1.257-.314l1.3-5.18a.647.647,0,0,1,.627-.491h2.591a1.932,1.932,0,0,0,1.738-1.074.648.648,0,0,0-1.158-.579.644.644,0,0,1-.579.359h-2.59a.648.648,0,1,1,0-1.3h1.79a.648.648,0,0,0,.579-.359l.937-1.874a.649.649,0,0,1,1.208.132l1.3,5.18a.648.648,0,0,1-.629.8Z" transform="translate(-271.991 -92.003)" fill="#2f2d64"/>
        </g>
      </g>
      <g id="Group_2333" data-name="Group 2333" transform="translate(6.475 0)">
        <g id="Group_2332" data-name="Group 2332" transform="translate(0)">
          <path id="Path_484" data-name="Path 484" d="M157.217.008h-5.266a1.945,1.945,0,0,0-1.942,1.942V3.331a1.945,1.945,0,0,0,1.942,1.942h2.368l2.444,2.4a.647.647,0,0,0,1.1-.462V5.163a1.946,1.946,0,0,0,1.3-1.832V1.951A1.945,1.945,0,0,0,157.217.008Zm.646,3.324a.648.648,0,0,1-.647.647.647.647,0,0,0-.647.647V5.672l-1.532-1.507a.647.647,0,0,0-.454-.186H151.95a.648.648,0,0,1-.647-.647V1.951a.648.648,0,0,1,.647-.647h5.266a.648.648,0,0,1,.647.647Z" transform="translate(-150.009 -0.008)" fill="#2f2d64"/>
        </g>
      </g>
    </g>
  </g>
</svg>
