<svg xmlns="http://www.w3.org/2000/svg" width="19.37" height="21.561" viewBox="0 0 19.37 21.561">
  <g id="Group_2794" data-name="Group 2794" transform="translate(9180.999 15424)">
    <g id="Group_2468" data-name="Group 2468" transform="translate(-9180.999 -15424)">
      <path id="Path_435" data-name="Path 435" d="M180.421,389.841a.421.421,0,1,0-.421-.421A.421.421,0,0,0,180.421,389.841Zm0,0" transform="translate(-172.42 -372.619)"/>
      <path id="Path_436" data-name="Path 436" d="M18.107,6.99H16V.421A.421.421,0,0,0,15.581,0H3.79a.421.421,0,0,0-.421.421V6.99H1.263A1.265,1.265,0,0,0,0,8.253v3.369a1.265,1.265,0,0,0,.842,1.191V20.3A1.265,1.265,0,0,0,2.105,21.56H17.265A1.265,1.265,0,0,0,18.528,20.3V12.813a1.265,1.265,0,0,0,.842-1.191V8.253A1.265,1.265,0,0,0,18.107,6.99ZM16,9.517h.842v.842H16ZM4.211.842H15.159v9.517H4.211ZM2.527,10.359V9.517h.842v.842ZM17.265,20.718H2.105a.421.421,0,0,1-.421-.421V12.886h16V20.3a.421.421,0,0,1-.421.421Zm1.263-9.1a.421.421,0,0,1-.421.421H1.263a.421.421,0,0,1-.421-.421V8.253a.421.421,0,0,1,.421-.421H3.369v.842H2.105a.421.421,0,0,0-.421.421V10.78a.421.421,0,0,0,.421.421H17.265a.421.421,0,0,0,.421-.421V9.1a.421.421,0,0,0-.421-.421H16V7.832h2.105a.421.421,0,0,1,.421.421Zm0,0" transform="translate(0 0)"/>
      <path id="Path_437" data-name="Path 437" d="M128.843,349h-8.422a.421.421,0,0,0-.421.421v3.369a.421.421,0,0,0,.421.421h8.422a.421.421,0,0,0,.421-.421v-3.369a.421.421,0,0,0-.422-.421Zm-.421,3.369h-7.58v-2.527h7.58Zm0,0" transform="translate(-114.947 -334.304)"/>
      <path id="Path_438" data-name="Path 438" d="M220.394,389.842h1.685a.421.421,0,1,0,0-.842h-1.685a.421.421,0,1,0,0,.842Zm0,0" transform="translate(-210.709 -372.619)"/>
      <path id="Path_439" data-name="Path 439" d="M160.421,129.368a.421.421,0,0,0,.421-.421,2.105,2.105,0,1,1,4.211,0,.421.421,0,1,0,.842,0,2.948,2.948,0,1,0-5.9,0A.421.421,0,0,0,160.421,129.368Zm0,0" transform="translate(-153.263 -120.694)"/>
      <path id="Path_440" data-name="Path 440" d="M160.422,67.711a.421.421,0,0,0,.421-.421v-.842a.421.421,0,0,0-.842,0v.842A.421.421,0,0,0,160.422,67.711Zm0,0" transform="translate(-153.263 -63.248)"/>
      <path id="Path_441" data-name="Path 441" d="M280.422,67.658a.421.421,0,0,0,.421-.421v-.842a.421.421,0,1,0-.842,0v.842A.421.421,0,0,0,280.422,67.658Zm0,0" transform="translate(-268.21 -63.194)"/>
    </g>
  </g>
</svg>
