<svg xmlns="http://www.w3.org/2000/svg" width="21.985" height="21.985" viewBox="0 0 21.985 21.985">
  <g id="Group_2798" data-name="Group 2798" transform="translate(8822.59 15469)">
    <g id="Group_2470" data-name="Group 2470" transform="translate(-8822.59 -15469)">
      <path id="Path_442" data-name="Path 442" d="M36.153,17.466h-2.2V17.1a1.1,1.1,0,1,0-2.2,0v.366H28.092V17.1a1.1,1.1,0,1,0-2.2,0v.366H22.229V17.1a1.1,1.1,0,1,0-2.2,0v.366h-2.2A1.834,1.834,0,0,0,16,19.3V36.153a1.834,1.834,0,0,0,1.832,1.832H36.153a1.834,1.834,0,0,0,1.833-1.832V19.3a1.834,1.834,0,0,0-1.833-1.832ZM32.489,17.1a.366.366,0,1,1,.733,0v2.2a.366.366,0,1,1-.733,0Zm-5.863,0a.366.366,0,1,1,.733,0v2.2a.366.366,0,1,1-.733,0Zm-5.863,0a.366.366,0,1,1,.733,0v2.2a.366.366,0,0,1-.733,0Zm-2.931,1.1h2.2v1.1a1.1,1.1,0,1,0,2.2,0V18.2h3.664v1.1a1.1,1.1,0,1,0,2.2,0V18.2h3.664v1.1a1.1,1.1,0,1,0,2.2,0V18.2h2.2a1.1,1.1,0,0,1,1.1,1.1v2.565H16.733V19.3a1.1,1.1,0,0,1,1.1-1.1ZM36.153,37.253H17.832a1.1,1.1,0,0,1-1.1-1.1V22.6h20.52V36.153A1.1,1.1,0,0,1,36.153,37.253Z" transform="translate(-16 -16)" fill="#2f2d64"/>
      <path id="Path_443" data-name="Path 443" d="M401.832,216h-1.466a.366.366,0,0,0-.366.366v1.466a.366.366,0,0,0,.366.366h1.466a.366.366,0,0,0,.366-.366v-1.466A.366.366,0,0,0,401.832,216Zm-.366,1.466h-.733v-.733h.733Z" transform="translate(-382.412 -206.839)" fill="#2f2d64"/>
      <path id="Path_444" data-name="Path 444" d="M241.832,376h-1.466a.366.366,0,0,0-.366.366v1.466a.366.366,0,0,0,.366.366h1.466a.366.366,0,0,0,.366-.366v-1.466A.366.366,0,0,0,241.832,376Zm-.366,1.466h-.733v-.733h.733Z" transform="translate(-229.74 -359.511)" fill="#2f2d64"/>
      <path id="Path_445" data-name="Path 445" d="M161.832,216h-1.466a.366.366,0,0,0-.366.366v1.466a.366.366,0,0,0,.366.366h1.466a.366.366,0,0,0,.366-.366v-1.466A.366.366,0,0,0,161.832,216Zm-.366,1.466h-.733v-.733h.733Z" transform="translate(-153.404 -206.839)" fill="#2f2d64"/>
      <path id="Path_446" data-name="Path 446" d="M81.832,296H80.366a.366.366,0,0,0-.366.366v1.466a.366.366,0,0,0,.366.366h1.466a.366.366,0,0,0,.366-.366v-1.466A.366.366,0,0,0,81.832,296Zm-.366,1.466h-.733v-.733h.733Z" transform="translate(-77.069 -283.175)" fill="#2f2d64"/>
      <path id="Path_447" data-name="Path 447" d="M161.832,296h-1.466a.366.366,0,0,0-.366.366v1.466a.366.366,0,0,0,.366.366h1.466a.366.366,0,0,0,.366-.366v-1.466a.366.366,0,0,0-.366-.366Zm-.366,1.466h-.733v-.733h.733Z" transform="translate(-153.404 -283.175)" fill="#2f2d64"/>
      <path id="Path_448" data-name="Path 448" d="M81.832,376H80.366a.366.366,0,0,0-.366.366v1.466a.366.366,0,0,0,.366.366h1.466a.366.366,0,0,0,.366-.366v-1.466A.366.366,0,0,0,81.832,376Zm-.366,1.466h-.733v-.733h.733Z" transform="translate(-77.069 -359.511)" fill="#2f2d64"/>
      <path id="Path_449" data-name="Path 449" d="M161.832,376h-1.466a.366.366,0,0,0-.366.366v1.466a.366.366,0,0,0,.366.366h1.466a.366.366,0,0,0,.366-.366v-1.466A.366.366,0,0,0,161.832,376Zm-.366,1.466h-.733v-.733h.733Z" transform="translate(-153.404 -359.511)" fill="#2f2d64"/>
      <path id="Path_450" data-name="Path 450" d="M238.288,202.239l-1.832-.28-.823-1.754a.366.366,0,0,0-.663,0l-.823,1.753-1.832.28a.366.366,0,0,0-.207.618l1.337,1.37-.316,1.939a.366.366,0,0,0,.537.379l1.634-.9,1.634.9a.366.366,0,0,0,.539-.38l-.316-1.939,1.337-1.37a.366.366,0,0,0-.207-.618Zm-1.783,1.608a.366.366,0,0,0-.1.315l.225,1.376-1.151-.637a.366.366,0,0,0-.354,0l-1.151.637.225-1.376a.366.366,0,0,0-.1-.315l-.967-.992,1.321-.2a.366.366,0,0,0,.276-.207l.574-1.224.574,1.224a.366.366,0,0,0,.276.207l1.321.2Z" transform="translate(-222.11 -191.568)" fill="#2f2d64"/>
      <path id="Path_451" data-name="Path 451" d="M401.832,296h-1.466a.366.366,0,0,0-.366.366v1.466a.366.366,0,0,0,.366.366h1.466a.366.366,0,0,0,.366-.366v-1.466A.366.366,0,0,0,401.832,296Zm-.366,1.466h-.733v-.733h.733Z" transform="translate(-382.412 -283.175)" fill="#2f2d64"/>
      <path id="Path_452" data-name="Path 452" d="M401.832,376h-1.466a.366.366,0,0,0-.366.366v1.466a.366.366,0,0,0,.366.366h1.466a.366.366,0,0,0,.366-.366v-1.466A.366.366,0,0,0,401.832,376Zm-.366,1.466h-.733v-.733h.733Z" transform="translate(-382.412 -359.511)" fill="#2f2d64"/>
      <path id="Path_453" data-name="Path 453" d="M321.832,376h-1.466a.366.366,0,0,0-.366.366v1.466a.366.366,0,0,0,.366.366h1.466a.366.366,0,0,0,.366-.366v-1.466A.366.366,0,0,0,321.832,376Zm-.366,1.466h-.733v-.733h.733Z" transform="translate(-306.076 -359.511)" fill="#2f2d64"/>
    </g>
  </g>
</svg>
