<svg xmlns="http://www.w3.org/2000/svg" width="75.338" height="75.338" viewBox="0 0 75.338 75.338">
  <g id="Group_2466" data-name="Group 2466" transform="translate(-4699 -1781.364)">
    <g id="Layer_x0020_1" transform="translate(4699 1781.364)">
      <path id="Path_485" data-name="Path 485" d="M62.157,54.182a1.58,1.58,0,0,1-1.586,1.587,1.612,1.612,0,0,1-1.134-.45,1.588,1.588,0,0,1-.49-1.112c0-.017,0-.035,0-.053a1.556,1.556,0,0,1,.464-1.1,1.634,1.634,0,0,1,1.117-.465h.058a1.554,1.554,0,0,1,1.571,1.592ZM.029,55.17c.092-.124.183-.258.275-.392a5.748,5.748,0,0,1,.651-.838c4.094-4.11,7.973-7.989,11.851-11.866l3.581-3.581c.119-.119.236-.244.378-.395l.153-.162-.507-.475c-.434-.405-.858-.8-1.271-1.214A6.232,6.232,0,0,1,13.9,34.516a4.852,4.852,0,0,1,.987-5.646,6.317,6.317,0,0,1,1.771-1.229.587.587,0,0,0,.1-.067,5.978,5.978,0,0,1-.486-1.7,5.149,5.149,0,0,1,1.673-4.445,4.98,4.98,0,0,1,2.7-1.216.859.859,0,0,0,.458-.147.66.66,0,0,0,.166-.449,4.973,4.973,0,0,1,4.258-4.361.959.959,0,0,0,.522-.177h0a.805.805,0,0,0,.206-.511,4.792,4.792,0,0,1,3.363-4.074,5.1,5.1,0,0,1,2.754-.214A5.049,5.049,0,0,1,34.783,11.6c.7.655,1.362,1.342,2.042,2.042q.41.422.828.849l1.5-1.5c1.187-1.19,2.354-2.358,3.525-3.521a5.547,5.547,0,0,1,.836-.684,5.136,5.136,0,0,1,3.307-.854,4.922,4.922,0,0,1,3.065,1.442,5.244,5.244,0,0,1,.646.793,7.977,7.977,0,0,1,.811,1.845h0c.1.288.2.584.315.875a5.259,5.259,0,0,1,1.728.444,5.129,5.129,0,0,1,1.529,1.059A5.076,5.076,0,0,1,56,15.979a5.7,5.7,0,0,1,.435,1.841,6.362,6.362,0,0,1,3.455,1.5,5.888,5.888,0,0,1,1.518,3.324c.285.11.568.206.846.3a8.043,8.043,0,0,1,1.845.8,5.133,5.133,0,0,1,.709.556,4.952,4.952,0,0,1,1.536,3.082,5.137,5.137,0,0,1-.811,3.371,5.381,5.381,0,0,1-.582.74c-.368.392-.746.777-1.129,1.157s-.77.754-1.157,1.126a.724.724,0,0,0-.226.322.58.58,0,0,0,.075.385A15.537,15.537,0,0,1,63.6,37.534a17.8,17.8,0,0,1,.459,3.211,1.233,1.233,0,0,0,.118.436,1.425,1.425,0,0,0,.269.4q3.006,3.036,6.03,6.055,1.952,1.954,3.9,3.91a8.133,8.133,0,0,1,.649.77c.089.115.179.231.283.358l.033.041v.98l-.029.04a1.708,1.708,0,0,1-3.063.231h0L69,50.714l-1.326-1.327-.01,0c-.024.008-.031,0-.035.008h0c-.156.151-.313.307-.47.463-.243.241-.487.482-.735.716a1.839,1.839,0,0,1-1.164.548,1.523,1.523,0,0,1-1.13-.449h0l-.01-.009h0a1.553,1.553,0,0,1-.508-1.133,1.759,1.759,0,0,1,.52-1.2h0l.012-.012c.3-.313.627-.6.923-.853l.231-.2-3-3L50.632,55.936,53.6,58.9l.242-.259c.275-.3.565-.608.877-.9a1.8,1.8,0,0,1,1.175-.508,1.548,1.548,0,0,1,1.139.453,1.526,1.526,0,0,1,.461,1.161,1.834,1.834,0,0,1-.543,1.2c-.287.295-.586.573-.91.874l-.356.332.171.14c.171.14.31.253.438.381q2.618,2.614,5.235,5.23h0q2.173,2.173,5.232,5.234a2.137,2.137,0,0,1,.817,1.626,2.111,2.111,0,0,1-1.093,1.443l-.038.026h-.978l-.042-.035c-.117-.1-.235-.195-.354-.291h0a9.562,9.562,0,0,1-.759-.659c-3.283-3.277-6.487-6.477-9.3-9.3-3.013-3.014-6.093-6.1-9.29-9.31a1.7,1.7,0,0,0-.586-.411h0a1.425,1.425,0,0,0-.7-.067,10.454,10.454,0,0,1-2.7-.009,8.167,8.167,0,0,1-2.391-.709,39.23,39.23,0,0,1-3.9-2.246l-.651-.407-.018-.011c-1.262-.786-1.293-.805-2.4.293l-.247.247L32,52.541h0l-3.942,3.942h0Q19.18,65.368,10.285,74.239A5.489,5.489,0,0,1,9.229,75c-.169.1-.337.2-.5.314l-.038.026H8.472l-.028-.012a3.327,3.327,0,0,1-1.036-.65A1.391,1.391,0,0,1,7,73.948a1.41,1.41,0,0,1,.113-.832,3.452,3.452,0,0,1,.744-1.025l.21-.211.1-.1h0l2.307-2.307c4.247-4.247,8.5-8.5,13.077-13.066a2.41,2.41,0,0,1,.511-.361l.018-.01L13.695,45.655a3.222,3.222,0,0,1-.351.443q-2.547,2.553-5.1,5.1t-5.1,5.1a2.161,2.161,0,0,1-1.7.843c-.519-.064-.983-.471-1.429-1.226L0,55.884v-.626H.148L.029,55.17Zm31.9-6.793c.212-.073.433-.155.655-.237a11.943,11.943,0,0,1,1.754-.548,13.6,13.6,0,0,1,2.15-.2l.489-.022a20.952,20.952,0,0,0,4.122-.612,20.259,20.259,0,0,0,6.839-3.188,21.3,21.3,0,0,0,2.6-2.212c1.7-1.692,3.724-3.72,5.752-5.748,1.9-1.9,3.8-3.8,6.011-6.006a3.361,3.361,0,0,0,.66-.858,1.665,1.665,0,0,0,.161-1.013,1.991,1.991,0,0,0-.405-.979,1.826,1.826,0,0,0-.851-.571,1.869,1.869,0,0,0-1.08-.064,2.139,2.139,0,0,0-.974.59q-.8.8-1.6,1.6c-1.036,1.038-2.071,2.076-3.12,3.111h0l-.029.028h0a1.841,1.841,0,0,1-1.215.541,1.542,1.542,0,0,1-1.151-.476h0l-.021-.021h0a1.5,1.5,0,0,1-.439-1.16,1.907,1.907,0,0,1,.594-1.192q1.106-1.117,2.221-2.227.883-.882,1.764-1.765l.2-.2a7.552,7.552,0,0,0,.782-.855,1.864,1.864,0,0,0,.389-1,1.834,1.834,0,0,0-.271-1.034,1.979,1.979,0,0,0-.822-.811,1.558,1.558,0,0,0-1.045-.108,2.632,2.632,0,0,0-.716.288,3.628,3.628,0,0,0-.7.52c-.986.941-1.946,1.906-2.907,2.872-.552.555-1.105,1.111-1.667,1.667a1.771,1.771,0,0,1-1.161.533,1.52,1.52,0,0,1-1.141-.437,1.57,1.57,0,0,1-.487-1.125,1.806,1.806,0,0,1,.465-1.189c.094-.109.195-.207.3-.3l.122-.12,1.317-1.315q1.492-1.49,2.982-2.984a2.349,2.349,0,0,0,.749-1.468,1.78,1.78,0,0,0-.542-1.374h0l-.018-.018a1.762,1.762,0,0,0-1.36-.557,2.347,2.347,0,0,0-1.488.717h0l-.027.027c-.424.418-.849.845-1.274,1.272-.54.543-1.081,1.087-1.632,1.623a1.925,1.925,0,0,1-1.233.6,1.649,1.649,0,0,1-1.643-1.676,1.978,1.978,0,0,1,.623-1.227c.472-.479.944-.95,1.417-1.421.5-.494.993-.988,1.48-1.484a2.3,2.3,0,0,0,.718-1.471,1.794,1.794,0,0,0-.555-1.375h0l0,0h0a1.777,1.777,0,0,0-1.365-.566,2.278,2.278,0,0,0-1.465.723h0l0,0q-2.114,2.1-4.216,4.216l-.341.342a3.7,3.7,0,0,0-.244.28l-.042.051a.371.371,0,0,0,.034.056c.047.056.1.11.152.165l.041.043h0A5.224,5.224,0,0,1,41.6,19.5a5.072,5.072,0,0,1-.22,2.8,5.008,5.008,0,0,1-1.568,2.3,5.119,5.119,0,0,1-2.6,1.051.649.649,0,0,0-.416.165.787.787,0,0,0-.148.432h0a4.965,4.965,0,0,1-4.48,4.381.473.473,0,0,0-.374.164,1.051,1.051,0,0,0-.108.414,5.123,5.123,0,0,1-.979,2.447,5.221,5.221,0,0,1-2.115,1.6,6.379,6.379,0,0,1-1.278.354c-.17.035-.343.07-.521.112a5.377,5.377,0,0,1-.906,2.686,5.56,5.56,0,0,1-2.121,1.794l8.165,8.167Zm16.277,5.477c.04-.066.077-.128.112-.187a2.424,2.424,0,0,1,.35-.5L50.9,50.93c2.975-2.992,5.951-5.984,8.975-8.932a3.1,3.1,0,0,0,.806-1.143,2.15,2.15,0,0,0,.013-1.328c-.193-.709-.362-1.43-.543-2.2-.066-.281-.133-.567-.2-.834L57.747,38.7c-1.712,1.717-3.368,3.377-5.031,5.027a23.846,23.846,0,0,1-5.031,3.844,22.56,22.56,0,0,1-5.778,2.291c-.806.2-1.625.35-2.447.5-.273.051-.547.1-.838.158a6.95,6.95,0,0,0,2.772,1.335,8.2,8.2,0,0,0,3.6.09,2.4,2.4,0,0,1,1.158,0,1.954,1.954,0,0,1,.959.639c.235.273.467.537.75.859l.351.4Zm-31.89-10.61L26.441,53.366l2.79-2.8L19.117,40.448l-2.8,2.8ZM26.36,32.437a2.748,2.748,0,0,0,1.276-.307h0a1.685,1.685,0,0,0,.706-.821,1.9,1.9,0,0,0,.155-1.127,1.951,1.951,0,0,0-.556-1.005q-1.292-1.315-2.6-2.629t-2.63-2.593l-.01-.01h0a1.976,1.976,0,0,0-1.4-.582,1.875,1.875,0,0,0-1.322.592h0l-.009.009h0A1.845,1.845,0,0,0,19.45,25.3a2.03,2.03,0,0,0,.606,1.359q1.275,1.309,2.569,2.6t2.611,2.561a2.9,2.9,0,0,0,.885.512c.09.038.171.072.239.106Zm5.21-19a2.685,2.685,0,0,0-1.271.285,1.692,1.692,0,0,0-.717.812,1.938,1.938,0,0,0-.18,1.113,1.76,1.76,0,0,0,.506.96q1.329,1.357,2.675,2.708t2.71,2.671a1.817,1.817,0,0,0,1.311.524,1.9,1.9,0,0,0,1.314-.581,1.864,1.864,0,0,0,.544-1.336,1.96,1.96,0,0,0-.587-1.348q-1.3-1.312-2.6-2.624t-2.634-2.591a2.806,2.806,0,0,0-.845-.494c-.084-.036-.159-.068-.221-.1Zm-4.983,4.96a2.745,2.745,0,0,0-1.278.316h0a1.885,1.885,0,0,0-.855,1.926,2,2,0,0,0,.556,1.021q1.281,1.3,2.58,2.6t2.595,2.58a2.07,2.07,0,0,0,1.389.63,1.9,1.9,0,0,0,1.917-1.892,2.029,2.029,0,0,0-.612-1.39q-1.279-1.3-2.574-2.6t-2.61-2.563a2.994,2.994,0,0,0-.884-.521c-.085-.037-.161-.07-.225-.1ZM21.4,37.412a2.7,2.7,0,0,0,1.276-.318,1.727,1.727,0,0,0,.7-.824,1.851,1.851,0,0,0,.155-1.089,1.9,1.9,0,0,0-.529-.977q-.748-.776-1.509-1.536t-1.532-1.515a2.131,2.131,0,0,0-1.394-.651,1.8,1.8,0,0,0-1.339.533,1.847,1.847,0,0,0-.582,1.362,2.105,2.105,0,0,0,.626,1.429c.491.508.982,1.017,1.479,1.515s1,.987,1.522,1.462a3.122,3.122,0,0,0,.895.507c.087.037.165.069.23.1ZM18.542.02a2.13,2.13,0,0,1,.884.889,2.5,2.5,0,0,1,.232,1.245c-.036.922-.029,1.844-.022,2.766,0,.516.008,1.033,0,1.549A1.925,1.925,0,0,1,19.2,7.762a1.527,1.527,0,0,1-1.173.5,1.507,1.507,0,0,1-1.167-.5,1.95,1.95,0,0,1-.436-1.3c0-.5,0-1,.006-1.5.008-.938.016-1.875-.025-2.812A2.462,2.462,0,0,1,16.627.9a2.094,2.094,0,0,1,.891-.879L17.552,0h.917V.148L18.542.02ZM75.32,18.54a2.087,2.087,0,0,1-.888.888,2.517,2.517,0,0,1-1.245.229c-.919-.035-1.839-.029-2.758-.022-.52,0-1.04.008-1.56,0a1.945,1.945,0,0,1-1.3-.443,1.6,1.6,0,0,1,0-2.334,1.952,1.952,0,0,1,1.3-.443c.522,0,1.043,0,1.565,0,.918.007,1.835.014,2.753-.022a2.51,2.51,0,0,1,1.245.229,2.1,2.1,0,0,1,.888.887l.019.034v.918h-.148l.129.072ZM57.821.02A2.117,2.117,0,0,1,58.708.9a2.478,2.478,0,0,1,.23,1.245c-.038.925-.031,1.85-.023,2.776,0,.513.008,1.027,0,1.541a1.935,1.935,0,0,1-.441,1.3,1.623,1.623,0,0,1-2.341,0,1.939,1.939,0,0,1-.438-1.3c0-.5,0-1.005.005-1.508.008-.936.016-1.872-.024-2.808A2.468,2.468,0,0,1,55.91.9,2.116,2.116,0,0,1,56.8.019L56.831,0h.918V.148L57.821.02Zm-57.8,17.5a2.044,2.044,0,0,1,.888-.892A2.546,2.546,0,0,1,2.152,16.4c.915.034,1.83.028,2.746.021.523,0,1.046-.008,1.569,0a1.937,1.937,0,0,1,1.3.44,1.526,1.526,0,0,1,.5,1.171,1.5,1.5,0,0,1-.5,1.167,1.952,1.952,0,0,1-1.3.442c-.522,0-1.044,0-1.566,0-.916-.007-1.832-.014-2.749.022A2.511,2.511,0,0,1,.9,19.429a2.08,2.08,0,0,1-.886-.889L0,18.506v-.917H.148l-.129-.07ZM72.829,4.3c-.067.118-.129.247-.19.375a2.934,2.934,0,0,1-.506.814q-1.645,1.673-3.3,3.324t-3.324,3.3l-.043.041a1.866,1.866,0,0,1-1.207.564,1.5,1.5,0,0,1-1.13-.48h0l-.027-.028h0a1.556,1.556,0,0,1-.461-1.193,1.945,1.945,0,0,1,.616-1.222Q65.138,7.9,67.03,6.017q1.425-1.422,2.848-2.846a1.959,1.959,0,0,1,.905-.549,1.541,1.541,0,0,1,.983.091,1.654,1.654,0,0,1,.726.564,2.12,2.12,0,0,1,.354.928l.008.05-.025.044ZM10.847,12.714c-.055-.031-.135-.069-.224-.11a2.661,2.661,0,0,1-.763-.474Q8.171,10.474,6.5,8.81T3.171,5.467l-.008-.008h0a1.887,1.887,0,0,1-.585-1.235,1.536,1.536,0,0,1,.479-1.167h0l.006-.006a1.525,1.525,0,0,1,1.184-.469,1.946,1.946,0,0,1,1.227.613c1.468,1.453,2.84,2.826,4.212,4.2.9.9,1.8,1.795,2.419,2.417a1.912,1.912,0,0,1,.531.87,1.614,1.614,0,0,1-.084,1.019,1.458,1.458,0,0,1-.589.728,2.349,2.349,0,0,1-1.028.308l-.046,0-.041-.023Z" fill="#198a44"/>
    </g>
  </g>
</svg>
