<svg id="Layer_x0020_1" xmlns="http://www.w3.org/2000/svg" width="73.715" height="73.714" viewBox="0 0 73.715 73.714">
  <path id="Path_587" data-name="Path 587" d="M60.817,53.015a1.546,1.546,0,0,1-1.552,1.553,1.577,1.577,0,0,1-1.109-.44,1.554,1.554,0,0,1-.479-1.088c0-.017,0-.035,0-.052a1.523,1.523,0,0,1,.454-1.075,1.6,1.6,0,0,1,1.093-.455h.056a1.52,1.52,0,0,1,1.537,1.558ZM.029,53.981c.09-.121.179-.252.269-.384a5.624,5.624,0,0,1,.637-.82c4.006-4.021,7.8-7.816,11.6-11.611l3.5-3.5c.117-.117.231-.238.37-.386l.149-.159-.5-.465c-.425-.4-.84-.784-1.243-1.188A6.1,6.1,0,0,1,13.6,33.772a4.748,4.748,0,0,1,.966-5.524,6.181,6.181,0,0,1,1.733-1.2.574.574,0,0,0,.094-.065,5.849,5.849,0,0,1-.475-1.666,5.038,5.038,0,0,1,1.636-4.35,4.873,4.873,0,0,1,2.637-1.19.84.84,0,0,0,.448-.143.646.646,0,0,0,.163-.44,4.866,4.866,0,0,1,4.167-4.267.939.939,0,0,0,.511-.173h0a.788.788,0,0,0,.2-.5,4.688,4.688,0,0,1,3.291-3.986,4.994,4.994,0,0,1,2.694-.21,4.941,4.941,0,0,1,2.364,1.29c.681.641,1.333,1.313,2,2q.4.413.81.831l1.47-1.472c1.162-1.164,2.3-2.307,3.449-3.445a5.428,5.428,0,0,1,.818-.669,5.026,5.026,0,0,1,3.235-.835,4.816,4.816,0,0,1,3,1.411,5.132,5.132,0,0,1,.632.776,7.8,7.8,0,0,1,.793,1.805h0c.1.282.2.571.309.856a5.146,5.146,0,0,1,1.691.434,5.019,5.019,0,0,1,1.5,1.036A4.967,4.967,0,0,1,54.8,15.634a5.578,5.578,0,0,1,.425,1.8A6.225,6.225,0,0,1,58.6,18.9a5.761,5.761,0,0,1,1.486,3.252c.279.108.556.2.828.294a7.87,7.87,0,0,1,1.806.781,5.023,5.023,0,0,1,.693.544,4.845,4.845,0,0,1,1.5,3.015,5.026,5.026,0,0,1-.794,3.3,5.265,5.265,0,0,1-.569.724c-.36.384-.73.761-1.1,1.132s-.753.738-1.132,1.1a.709.709,0,0,0-.221.315.567.567,0,0,0,.073.377,15.2,15.2,0,0,1,1.055,2.992,17.417,17.417,0,0,1,.449,3.142,1.206,1.206,0,0,0,.116.427,1.394,1.394,0,0,0,.263.389q2.941,2.97,5.9,5.924,1.909,1.912,3.817,3.826a7.957,7.957,0,0,1,.635.754c.087.113.175.226.277.351l.033.04v.959l-.029.039a1.671,1.671,0,0,1-3,.226h0l-3.178-3.18-1.3-1.3-.01,0c-.023.007-.03,0-.034.008h0c-.152.148-.306.3-.46.453-.238.236-.476.471-.719.7a1.8,1.8,0,0,1-1.139.537,1.49,1.49,0,0,1-1.106-.439h0l-.01-.009h0a1.52,1.52,0,0,1-.5-1.109,1.721,1.721,0,0,1,.509-1.173h0l.012-.012c.293-.306.613-.584.9-.835l.226-.2-2.937-2.932L49.54,54.73l2.9,2.9.237-.254c.269-.29.553-.595.858-.88a1.759,1.759,0,0,1,1.149-.5,1.515,1.515,0,0,1,1.114.443,1.493,1.493,0,0,1,.451,1.136,1.794,1.794,0,0,1-.532,1.176c-.281.288-.573.56-.891.855l-.348.325.167.137a5.675,5.675,0,0,1,.428.373Q57.637,63,60.2,65.564h0q2.126,2.126,5.119,5.122a2.091,2.091,0,0,1,.8,1.591,2.065,2.065,0,0,1-1.069,1.412l-.037.025h-.957l-.041-.034c-.114-.1-.23-.191-.346-.284h0a9.353,9.353,0,0,1-.742-.645c-3.212-3.207-6.347-6.337-9.1-9.1-2.948-2.949-5.962-5.967-9.09-9.109a1.665,1.665,0,0,0-.573-.4h0a1.394,1.394,0,0,0-.684-.065,10.229,10.229,0,0,1-2.644-.009,7.991,7.991,0,0,1-2.34-.694,38.39,38.39,0,0,1-3.819-2.2l-.637-.4-.017-.011c-1.235-.769-1.265-.788-2.347.286l-.242.242-.112.113h0l-3.857,3.857h0q-8.691,8.693-17.394,17.373a5.371,5.371,0,0,1-1.033.744c-.165.1-.33.2-.487.307l-.038.025H8.289L8.262,73.7a3.255,3.255,0,0,1-1.013-.636,1.361,1.361,0,0,1-.4-.712,1.379,1.379,0,0,1,.11-.814,3.378,3.378,0,0,1,.728-1l.206-.206.1-.1h0l2.257-2.257c4.155-4.156,8.312-8.313,12.8-12.785a2.358,2.358,0,0,1,.5-.354l.018-.01L13.4,44.671a3.153,3.153,0,0,1-.344.433Q10.564,47.6,8.069,50.1l-4.991,4.99a2.114,2.114,0,0,1-1.659.825c-.508-.062-.961-.461-1.4-1.2L0,54.679v-.613H.145l-.116-.086Zm31.215-6.647c.207-.071.424-.151.641-.232a11.686,11.686,0,0,1,1.717-.536,13.3,13.3,0,0,1,2.1-.2l.479-.021a20.5,20.5,0,0,0,4.033-.6,19.822,19.822,0,0,0,6.692-3.12,20.842,20.842,0,0,0,2.541-2.164c1.659-1.655,3.644-3.64,5.628-5.624,1.859-1.86,3.719-3.72,5.881-5.876a3.288,3.288,0,0,0,.646-.84,1.629,1.629,0,0,0,.158-.991,1.948,1.948,0,0,0-.4-.958,1.787,1.787,0,0,0-.833-.559,1.829,1.829,0,0,0-1.057-.062,2.093,2.093,0,0,0-.953.578q-.783.781-1.564,1.565c-1.013,1.016-2.027,2.031-3.053,3.044h0l-.028.028h0a1.8,1.8,0,0,1-1.189.529,1.509,1.509,0,0,1-1.126-.466h0l-.02-.021h0a1.472,1.472,0,0,1-.43-1.135,1.866,1.866,0,0,1,.582-1.167q1.083-1.093,2.173-2.179.864-.863,1.726-1.727l.2-.195a7.391,7.391,0,0,0,.765-.837,1.824,1.824,0,0,0,.381-.98,1.794,1.794,0,0,0-.265-1.011,1.936,1.936,0,0,0-.8-.793,1.525,1.525,0,0,0-1.023-.106,2.576,2.576,0,0,0-.7.282,3.55,3.55,0,0,0-.682.509c-.965.92-1.9,1.865-2.844,2.81-.541.543-1.081,1.087-1.631,1.631a1.733,1.733,0,0,1-1.136.521,1.488,1.488,0,0,1-1.116-.428,1.536,1.536,0,0,1-.476-1.1,1.767,1.767,0,0,1,.455-1.164c.092-.106.191-.2.29-.3l.12-.118L48.4,22.039q1.46-1.458,2.918-2.92a2.3,2.3,0,0,0,.733-1.436,1.742,1.742,0,0,0-.531-1.345h0l-.017-.018a1.724,1.724,0,0,0-1.331-.545,2.3,2.3,0,0,0-1.456.7h0l-.027.026c-.415.409-.831.827-1.246,1.245-.529.532-1.057,1.063-1.6,1.588a1.883,1.883,0,0,1-1.206.589,1.613,1.613,0,0,1-1.608-1.64,1.936,1.936,0,0,1,.61-1.2c.461-.469.924-.93,1.386-1.39.486-.483.971-.967,1.448-1.452a2.255,2.255,0,0,0,.7-1.439,1.755,1.755,0,0,0-.543-1.345h0l0,0h0A1.739,1.739,0,0,0,45.3,10.9a2.228,2.228,0,0,0-1.434.708h0l0,0q-2.069,2.056-4.125,4.125l-.334.335a3.614,3.614,0,0,0-.238.274l-.041.05a.364.364,0,0,0,.033.055c.046.055.1.108.149.161l.04.042h0A5.111,5.111,0,0,1,40.7,19.082a4.962,4.962,0,0,1-.215,2.744,4.9,4.9,0,0,1-1.534,2.25,5.009,5.009,0,0,1-2.543,1.029.635.635,0,0,0-.407.162.77.77,0,0,0-.145.422h0a4.858,4.858,0,0,1-4.384,4.286.463.463,0,0,0-.366.16,1.029,1.029,0,0,0-.106.406,5.012,5.012,0,0,1-.958,2.395A5.108,5.108,0,0,1,27.977,34.5a6.242,6.242,0,0,1-1.251.346c-.167.034-.336.069-.51.11a5.261,5.261,0,0,1-.886,2.628,5.44,5.44,0,0,1-2.076,1.755l7.989,7.991ZM47.17,52.692c.039-.064.075-.126.109-.183a2.372,2.372,0,0,1,.342-.488L49.8,49.832c2.911-2.928,5.823-5.855,8.782-8.739a3.034,3.034,0,0,0,.789-1.118,2.1,2.1,0,0,0,.013-1.3c-.189-.694-.354-1.4-.531-2.154-.065-.275-.13-.555-.192-.816L56.5,37.868c-1.676,1.68-3.3,3.3-4.923,4.919a23.332,23.332,0,0,1-4.923,3.761A22.074,22.074,0,0,1,41,48.789c-.788.194-1.59.343-2.394.492-.268.05-.535.1-.82.155A6.8,6.8,0,0,0,40.5,50.742a8.026,8.026,0,0,0,3.521.089,2.345,2.345,0,0,1,1.133,0,1.912,1.912,0,0,1,.939.625c.23.267.457.526.734.841l.343.391Zm-31.2-10.381,9.9,9.9,2.73-2.742-9.9-9.9-2.737,2.735Zm9.824-10.573a2.689,2.689,0,0,0,1.249-.3h0a1.649,1.649,0,0,0,.691-.8,1.86,1.86,0,0,0,.152-1.1,1.909,1.909,0,0,0-.544-.984q-1.264-1.287-2.542-2.572t-2.573-2.537l-.01-.01h0a1.933,1.933,0,0,0-1.368-.569,1.835,1.835,0,0,0-1.293.579h0l-.009.009h0a1.805,1.805,0,0,0-.514,1.3,1.987,1.987,0,0,0,.593,1.33q1.247,1.28,2.514,2.547t2.555,2.505a2.84,2.84,0,0,0,.866.5c.088.037.167.071.233.1Zm5.1-18.594a2.627,2.627,0,0,0-1.244.279,1.656,1.656,0,0,0-.7.794,1.9,1.9,0,0,0-.176,1.089,1.722,1.722,0,0,0,.5.94q1.3,1.328,2.617,2.65t2.652,2.613a1.778,1.778,0,0,0,1.282.513,1.854,1.854,0,0,0,1.286-.568,1.824,1.824,0,0,0,.532-1.307,1.918,1.918,0,0,0-.575-1.319q-1.267-1.284-2.547-2.568t-2.578-2.535a2.746,2.746,0,0,0-.827-.483c-.082-.035-.155-.067-.216-.1ZM26.013,18a2.686,2.686,0,0,0-1.25.309h0a1.844,1.844,0,0,0-.836,1.884,1.96,1.96,0,0,0,.544,1q1.254,1.269,2.524,2.541t2.539,2.525a2.026,2.026,0,0,0,1.359.617,1.857,1.857,0,0,0,1.876-1.851,1.986,1.986,0,0,0-.6-1.36q-1.252-1.276-2.518-2.545T27.1,18.607a2.93,2.93,0,0,0-.865-.51c-.083-.036-.158-.069-.22-.1Zm-5.07,18.609a2.642,2.642,0,0,0,1.249-.312,1.69,1.69,0,0,0,.688-.806,1.811,1.811,0,0,0,.151-1.066,1.857,1.857,0,0,0-.518-.956q-.732-.759-1.476-1.5t-1.5-1.482a2.085,2.085,0,0,0-1.364-.637,1.766,1.766,0,0,0-1.311.521,1.807,1.807,0,0,0-.57,1.333,2.06,2.06,0,0,0,.613,1.4c.48.5.961.995,1.447,1.482s.979.966,1.489,1.431a3.054,3.054,0,0,0,.875.5c.085.036.161.068.225.1ZM18.142.019a2.084,2.084,0,0,1,.865.869,2.441,2.441,0,0,1,.227,1.218c-.036.9-.029,1.8-.022,2.706,0,.505.008,1.011,0,1.516a1.883,1.883,0,0,1-.434,1.266,1.494,1.494,0,0,1-1.148.488,1.474,1.474,0,0,1-1.142-.488,1.908,1.908,0,0,1-.427-1.273c0-.49,0-.98.006-1.47.008-.917.016-1.835-.024-2.752a2.409,2.409,0,0,1,.223-1.22,2.048,2.048,0,0,1,.871-.86L17.174,0h.9V.145l.071-.125ZM73.7,18.141a2.042,2.042,0,0,1-.869.869,2.463,2.463,0,0,1-1.218.224c-.9-.035-1.8-.028-2.7-.021-.509,0-1.018.008-1.527,0a1.9,1.9,0,0,1-1.269-.434,1.568,1.568,0,0,1,0-2.284,1.91,1.91,0,0,1,1.272-.433c.51,0,1.021,0,1.531,0,.9.007,1.8.014,2.693-.022a2.456,2.456,0,0,1,1.219.224,2.049,2.049,0,0,1,.869.868l.019.033v.9H73.57l.126.07ZM56.575.019a2.072,2.072,0,0,1,.868.865A2.425,2.425,0,0,1,57.668,2.1c-.038.905-.03,1.81-.023,2.716,0,.5.008,1,0,1.508A1.894,1.894,0,0,1,57.218,7.6a1.588,1.588,0,0,1-2.29,0A1.9,1.9,0,0,1,54.5,6.326c0-.492,0-.984.005-1.475.008-.916.016-1.832-.024-2.748A2.415,2.415,0,0,1,54.7.882a2.07,2.07,0,0,1,.869-.864L55.606,0h.9V.145l.071-.125ZM.018,17.141a2,2,0,0,1,.869-.873,2.491,2.491,0,0,1,1.218-.22c.9.034,1.791.027,2.686.021.512,0,1.024-.007,1.536,0A1.9,1.9,0,0,1,7.6,16.5a1.493,1.493,0,0,1,.492,1.145A1.47,1.47,0,0,1,7.6,18.783a1.91,1.91,0,0,1-1.274.432c-.511,0-1.021,0-1.532,0C3.9,19.2,3,19.2,2.1,19.233A2.456,2.456,0,0,1,.885,19.01a2.035,2.035,0,0,1-.867-.869L0,18.107v-.9H.145l-.127-.069ZM71.259,4.207c-.065.116-.126.241-.186.367a2.871,2.871,0,0,1-.495.8q-1.61,1.637-3.23,3.253T64.1,11.852l-.042.04a1.826,1.826,0,0,1-1.181.552,1.466,1.466,0,0,1-1.106-.47h0l-.027-.028h0a1.522,1.522,0,0,1-.451-1.167,1.9,1.9,0,0,1,.6-1.2q1.842-1.852,3.694-3.7Q66.98,4.5,68.372,3.1a1.917,1.917,0,0,1,.886-.537,1.508,1.508,0,0,1,.962.089,1.619,1.619,0,0,1,.71.552,2.074,2.074,0,0,1,.346.908l.008.049-.025.043ZM10.613,12.44c-.054-.03-.132-.067-.22-.108a2.6,2.6,0,0,1-.747-.464Q8,10.248,6.364,8.62T3.1,5.349L3.1,5.341h0a1.847,1.847,0,0,1-.573-1.208A1.5,1.5,0,0,1,2.99,2.99h0L3,2.984a1.492,1.492,0,0,1,1.158-.459,1.9,1.9,0,0,1,1.2.6C6.792,4.547,8.135,5.89,9.477,7.232c.878.878,1.756,1.756,2.367,2.365a1.871,1.871,0,0,1,.519.851,1.579,1.579,0,0,1-.083,1,1.427,1.427,0,0,1-.576.713,2.3,2.3,0,0,1-1.006.3l-.045,0-.04-.023Z" transform="translate(0)" fill="#2f2d64"/>
</svg>
