<svg xmlns="http://www.w3.org/2000/svg" width="30.076" height="30.076" viewBox="0 0 30.076 30.076">
  <g id="Group_3240" data-name="Group 3240" transform="translate(15188 13856)">
    <g id="_242850224" transform="translate(-15188 -13856)">
      <path id="_242850608" d="M15.038,0A15.038,15.038,0,1,1,4.4,4.4,14.991,14.991,0,0,1,15.038,0ZM24.6,5.479a13.519,13.519,0,1,0,3.959,9.559A13.476,13.476,0,0,0,24.6,5.479Z" transform="translate(0 0)" fill="#fff"/>
      <path id="_242848736" d="M8.69,1.191h0a.948.948,0,0,1,.945.945V7.745h5.609a.948.948,0,0,1,.945.945h0a.948.948,0,0,1-.945.945H9.635v5.609a.948.948,0,0,1-.945.945h0a.948.948,0,0,1-.945-.945V9.635H2.136a.948.948,0,0,1-.945-.945h0a.948.948,0,0,1,.945-.945H7.745V2.136a.948.948,0,0,1,.945-.945Z" transform="translate(6.349 6.349)" fill="#fff" fill-rule="evenodd"/>
    </g>
  </g>
</svg>
