<svg xmlns="http://www.w3.org/2000/svg" width="32.617" height="32.585" viewBox="0 0 32.617 32.585">
  <g id="birthday" transform="translate(0 -0.25)">
    <path id="Path_590" data-name="Path 590" d="M110.448,129.538V118.564H89.25v10.912l10.684,7.944Zm-16.5-2.946a2.367,2.367,0,0,1,2.039-2.335v-1.892H97.9v1.868h.956v-1.868h1.911v1.868h.934v-1.868h1.911v1.91a2.366,2.366,0,0,1,1.932,2.318v3.689H93.948Z" transform="translate(-83.564 -110.777)" fill="#2f2d64"/>
    <path id="Path_591" data-name="Path 591" d="M200.31,237.365h-6.848a.461.461,0,0,0-.462.459v1.789h7.772v-1.789A.461.461,0,0,0,200.31,237.365Z" transform="translate(-180.705 -222.01)" fill="#2f2d64"/>
    <path id="Path_592" data-name="Path 592" d="M452,169.752l3.822-2.866v-.073L452,163.045Z" transform="translate(-423.205 -152.424)" fill="#2f2d64"/>
    <path id="Path_593" data-name="Path 593" d="M16.374,272.881,0,260.705V276.7H32.617V260.7Z" transform="translate(0 -243.861)" fill="#2f2d64"/>
    <path id="Path_594" data-name="Path 594" d="M3.775,169.764v-6.653L0,166.879v.079Z" transform="translate(0 -152.486)" fill="#2f2d64"/>
    <path id="Path_595" data-name="Path 595" d="M172.675,5.887,166.57.25l-6.055,5.637Z" transform="translate(-150.289)" fill="#2f2d64"/>
  </g>
</svg>
