<svg xmlns="http://www.w3.org/2000/svg" width="74" height="74" viewBox="0 0 74 74">
  <g id="Group_3719" data-name="Group 3719" transform="translate(15112 -7597)">
    <path id="Path_600" data-name="Path 600" d="M69.833,2H8.167A6.174,6.174,0,0,0,2,8.167v44.4a6.174,6.174,0,0,0,6.167,6.167H29.133v7.4H20.5A6.174,6.174,0,0,0,14.333,72.3v2.467A1.233,1.233,0,0,0,15.567,76H62.433a1.233,1.233,0,0,0,1.233-1.233V72.3A6.174,6.174,0,0,0,57.5,66.133H48.867v-7.4H69.833A6.174,6.174,0,0,0,76,52.567V8.167A6.174,6.174,0,0,0,69.833,2ZM61.2,72.3v1.233H16.8V72.3a3.7,3.7,0,0,1,3.7-3.7h37a3.7,3.7,0,0,1,3.7,3.7ZM46.4,66.133H31.6v-7.4H46.4ZM73.533,52.567a3.7,3.7,0,0,1-3.7,3.7H8.167a3.7,3.7,0,0,1-3.7-3.7V8.167a3.7,3.7,0,0,1,3.7-3.7H69.833a3.7,3.7,0,0,1,3.7,3.7Z" transform="translate(-15114 7595)" fill="#2f2d64"/>
    <path id="Path_601" data-name="Path 601" d="M36.4,43.7a3.7,3.7,0,1,0-3.7,3.7A3.7,3.7,0,0,0,36.4,43.7Zm-3.7,1.233A1.233,1.233,0,1,1,33.933,43.7,1.233,1.233,0,0,1,32.7,44.933Z" transform="translate(-15107.7 7603.867)" fill="#2f2d64"/>
    <path id="Path_602" data-name="Path 602" d="M34.333,37.667A12.333,12.333,0,1,1,46.667,25.333,12.333,12.333,0,0,1,34.333,37.667Zm0-22.2A9.867,9.867,0,1,0,44.2,25.333a9.867,9.867,0,0,0-9.867-9.867Z" transform="translate(-15109.333 7597.567)" fill="#2f2d64"/>
    <path id="Path_604" data-name="Path 604" d="M23.378,15.612a1.233,1.233,0,0,1-.872-.361l-1.744-1.745a1.233,1.233,0,1,1,1.743-1.743l1.745,1.743a1.233,1.233,0,0,1-.872,2.105Z" transform="translate(-15109.715 7597.185)" fill="#2f2d64"/>
    <path id="Path_605" data-name="Path 605" d="M19.7,24.467H17.233a1.233,1.233,0,0,1,0-2.467H19.7a1.233,1.233,0,1,1,0,2.467Z" transform="translate(-15110.733 7599.667)" fill="#2f2d64"/>
    <path id="Path_606" data-name="Path 606" d="M21.627,35.4a1.233,1.233,0,0,1-.872-2.105L22.5,31.553A1.234,1.234,0,1,1,24.243,33.3L22.5,35.041A1.233,1.233,0,0,1,21.627,35.4Z" transform="translate(-15109.708 7601.812)" fill="#2f2d64"/>
    <path id="Path_607" data-name="Path 607" d="M47.7,24.467H45.233a1.233,1.233,0,0,1,0-2.467H47.7a1.233,1.233,0,1,1,0,2.467Z" transform="translate(-15104.2 7599.667)" fill="#2f2d64"/>
    <path id="Path_608" data-name="Path 608" d="M41.425,15.6a1.233,1.233,0,0,1-.872-2.105L42.3,11.749a1.233,1.233,0,0,1,1.743,1.743L42.3,15.237A1.233,1.233,0,0,1,41.425,15.6Z" transform="translate(-15105.089 7597.199)" fill="#2f2d64"/>
    <path id="Path_609" data-name="Path 609" d="M68.9,6H7.233A1.233,1.233,0,0,0,6,7.233V46.7a1.233,1.233,0,0,0,1.233,1.233h42.6l.359,1.57a1.233,1.233,0,0,0,2.074.6l1.744-1.744,5.382,5.382a1.233,1.233,0,0,0,1.744,0l3.489-3.489a1.233,1.233,0,0,0,0-1.744l-.574-.572H68.9A1.233,1.233,0,0,0,70.133,46.7V7.233A1.233,1.233,0,0,0,68.9,6ZM60.267,51.123,54.884,45.74a1.233,1.233,0,0,0-1.744,0L52.1,46.779l-1.661-7.257,7.237,1.683-1.046,1.047a1.233,1.233,0,0,0,0,1.744l5.383,5.381Zm7.4-5.656H61.588l-2.343-2.343,1.745-1.745A1.233,1.233,0,0,0,60.4,39.3l-11.32-2.632a1.233,1.233,0,0,0-1.48,1.48l1.674,7.314H8.467v-37h59.2Z" transform="translate(-15113.066 7595.933)" fill="#2f2d64"/>
    <text id="_" data-name="`" transform="translate(-15080 7631)" fill="#2f2d64" font-size="19" font-family="SegoeUI, Segoe UI"><tspan x="0" y="0">`</tspan></text>
  </g>
</svg>
