<svg xmlns="http://www.w3.org/2000/svg" xmlns:xlink="http://www.w3.org/1999/xlink" width="314" height="256" viewBox="0 0 314 256">
  <defs>
    <clipPath id="clip-Artboard_1">
      <rect width="314" height="256"/>
    </clipPath>
  </defs>
  <g id="Artboard_1" data-name="Artboard – 1" clip-path="url(#clip-Artboard_1)">
    <rect width="314" height="256" fill="#fff"/>
    <g id="conference" transform="translate(37.533 8)">
      <g id="Group_4422" data-name="Group 4422" transform="translate(0 1)">
        <path id="Path_1051" data-name="Path 1051" d="M137.251,392.862V409.2a10.632,10.632,0,0,0,10.619,10.62h89.593a10.632,10.632,0,0,0,10.619-10.62V392.862a10.625,10.625,0,0,0-10.619-10.607H147.87A10.626,10.626,0,0,0,137.251,392.862Zm101.5,0V409.2a1.3,1.3,0,0,1-1.286,1.286H147.87a1.287,1.287,0,0,1-1.286-1.286V392.862a1.3,1.3,0,0,1,1.286-1.274h89.593A1.3,1.3,0,0,1,238.75,392.862Z" transform="translate(-73.201 -204.336)" fill="#2f2d64"/>
        <path id="Path_1052" data-name="Path 1052" d="M226.568,132.948h-2.344v-19.88a2.166,2.166,0,0,0-.073-.756,4.637,4.637,0,0,0-1.016-2.194L212.281,97.159a15.139,15.139,0,0,0-1.226-17.724l-4.345-5.176a15.132,15.132,0,0,0-21.289-1.883l-.005,0a15.123,15.123,0,0,0-1.86,21.278l4.341,5.188a15,15,0,0,0,10.255,5.336q.682.06,1.358.06a15,15,0,0,0,5.62-1.087l9.761,11.654v18.138H177.363c-.373-26.209-4.317-39.229-23.177-48.273L146.7,77.012c5.517-5.568,9.39-12.424,9.39-19.645V37.628a36.626,36.626,0,1,0-73.252,0V57.366c0,7.224,3.875,14.081,9.395,19.65l-7.493,7.658c-18.862,9.044-22.805,22.064-23.179,48.274H24.03V114.81l9.761-11.654a15.013,15.013,0,0,0,5.622,1.087q.685,0,1.377-.062a14.964,14.964,0,0,0,10.232-5.332l4.349-5.183A15.109,15.109,0,0,0,32.217,74.25l-4.36,5.2a15.165,15.165,0,0,0-1.214,17.709L15.785,110.118a4.643,4.643,0,0,0-1.074,2.679c-.007.072-.012.152-.014.242,0,.019,0,.037,0,.056s0,.013,0,.02v19.834H12.364A12.379,12.379,0,0,0,0,145.314v8.043a12.38,12.38,0,0,0,12.365,12.366H18.08l16.945,66.328c.434,1.719,1.757,6.949,7.8,6.949H196.1c6.006,0,7.356-5.211,7.8-6.937l16.947-66.339h5.715a12.38,12.38,0,0,0,12.365-12.366v-8.043a12.38,12.38,0,0,0-12.365-12.366ZM203.185,93.569a5.8,5.8,0,0,1-8.133-.714l-4.346-5.194a5.759,5.759,0,0,1,4.935-9.448,5.706,5.706,0,0,1,3.91,2.035l4.349,5.182a5.783,5.783,0,0,1-.716,8.138ZM35.015,85.436l4.355-5.189a5.726,5.726,0,0,1,3.919-2.032q.263-.023.524-.023a5.778,5.778,0,0,1,4.411,9.473l-4.36,5.2a5.8,5.8,0,0,1-8.125.714,5.8,5.8,0,0,1-.724-8.139Zm84.445-75.1a27.325,27.325,0,0,1,27.292,27.295v3.5c-9.339-.8-17.038-3.754-23.942-6.407-6.2-2.381-12.235-4.7-18.205-4.7a20.3,20.3,0,0,0-12.2,3.991,27.336,27.336,0,0,1,27.054-23.68ZM92.167,57.366V47.492c8.313-11.35,14.414-9.006,27.294-4.056,7.338,2.82,16.256,6.243,27.29,7.054v6.878c0,11.465-17.748,23.591-27.292,23.591S92.167,68.831,92.167,57.366Zm52.556,30.981L131.9,100.174l-5.446-10.956a46.082,46.082,0,0,0,13.023-6.236Zm-32.261.869-5.445,10.956L94.2,88.349l5.249-5.364A46.06,46.06,0,0,0,112.463,89.217ZM86.694,94.126l18.57,17.127a4.667,4.667,0,0,0,7.343-1.354l6.853-13.79,6.853,13.79a4.667,4.667,0,0,0,7.343,1.354l18.57-17.127c12.04,6.4,15.445,14.851,15.8,38.822H70.891c.358-23.971,3.764-32.424,15.8-38.822ZM229.6,153.357a3.035,3.035,0,0,1-3.032,3.032H140.4a4.667,4.667,0,0,0,0,9.333h70.82l-16.335,63.943H44.049L27.713,165.723H98.48a4.667,4.667,0,1,0,0-9.333H12.365a3.073,3.073,0,0,1-3.032-3.032v-8.043a3.073,3.073,0,0,1,3.032-3.032h214.2a3.073,3.073,0,0,1,3.032,3.032Z" transform="translate(0 -1)" fill="#2f2d64"/>
        <path id="Path_1053" data-name="Path 1053" d="M250.623,343.312h.013a4.674,4.674,0,1,0-.013,0Z" transform="translate(-131.177 -178.589)" fill="#2f2d64"/>
      </g>
    </g>
  </g>
</svg>
