<svg xmlns="http://www.w3.org/2000/svg" width="11.9" height="11.9" viewBox="0 0 11.9 11.9"><defs><style>.a{fill:#2f2d64;stroke:#2f2d64;stroke-width:0.3px;}</style></defs><g transform="translate(0.15 0.15)"><path class="a" d="M10.391,11.8H8.941a.242.242,0,0,1,0-.483h1.45a.726.726,0,0,0,.725-.725V7.208a.726.726,0,0,0-.725-.725H1.208a.726.726,0,0,0-.725.725v3.383a.726.726,0,0,0,.725.725h1.45a.242.242,0,1,1,0,.483H1.208A1.21,1.21,0,0,1,0,10.592V7.208A1.21,1.21,0,0,1,1.208,6h9.183A1.21,1.21,0,0,1,11.6,7.208v3.383A1.21,1.21,0,0,1,10.391,11.8Z" transform="translate(0 -3.1)"/><path class="a" d="M11.142,20.483h-2.9a.242.242,0,0,1,0-.483h2.9a.242.242,0,0,1,0,.483Z" transform="translate(-4.133 -10.334)"/><path class="a" d="M11.142,18.483h-2.9a.242.242,0,1,1,0-.483h2.9a.242.242,0,1,1,0,.483Z" transform="translate(-4.133 -9.3)"/><path class="a" d="M9.208,16.483H8.242a.242.242,0,1,1,0-.483h.967a.242.242,0,1,1,0,.483Z" transform="translate(-4.133 -8.267)"/><path class="a" d="M11.525,3.383a.242.242,0,0,1-.242-.242V1.208a.726.726,0,0,0-.725-.725H6.208a.726.726,0,0,0-.725.725V3.142a.242.242,0,0,1-.483,0V1.208A1.21,1.21,0,0,1,6.208,0h4.35a1.21,1.21,0,0,1,1.208,1.208V3.142A.242.242,0,0,1,11.525,3.383Z" transform="translate(-2.583)"/><path class="a" d="M10.558,18.316H6.208A1.21,1.21,0,0,1,5,17.108V13.242A.242.242,0,0,1,5.242,13h6.283a.242.242,0,0,1,.242.242v3.867A1.21,1.21,0,0,1,10.558,18.316ZM5.483,13.483v3.625a.726.726,0,0,0,.725.725h4.35a.726.726,0,0,0,.725-.725V13.483Z" transform="translate(-2.583 -6.717)"/></g></svg>