<svg xmlns="http://www.w3.org/2000/svg" width="30.671" height="30.671" viewBox="0 0 30.671 30.671">
  <g id="Group_2794" data-name="Group 2794" transform="translate(9108 15378.336)">
    <g id="Group_2570" data-name="Group 2570" transform="translate(-9847.664 -15667)">
      <g id="Group_594" data-name="Group 594" transform="translate(757.636 300.046)">
        <g id="Group_593" data-name="Group 593">
          <path id="Path_94" data-name="Path 94" d="M300.6,190a.6.6,0,1,0,.6.6A.6.6,0,0,0,300.6,190Z" transform="translate(-300 -190)" fill="#acadb2"/>
        </g>
      </g>
      <g id="Group_596" data-name="Group 596" transform="translate(739.664 288.664)">
        <g id="Group_595" data-name="Group 595">
          <path id="Path_95" data-name="Path 95" d="M29.969,26.581l-8-8a11.873,11.873,0,0,0,1.989-6.6A11.981,11.981,0,1,0,11.981,23.962a11.874,11.874,0,0,0,6.6-1.989l2.21,2.21h0l5.785,5.785a2.4,2.4,0,1,0,3.388-3.388ZM18.3,20.71h0A10.794,10.794,0,1,1,20.711,18.3,10.835,10.835,0,0,1,18.3,20.71Zm1.257.543a12.021,12.021,0,0,0,1.694-1.694l1.7,1.7a14.54,14.54,0,0,1-1.694,1.694Zm9.562,7.868a1.2,1.2,0,0,1-1.694,0L22.109,23.8A15.741,15.741,0,0,0,23.8,22.109l5.319,5.319a1.2,1.2,0,0,1,0,1.694Z" fill="#acadb2"/>
        </g>
      </g>
      <g id="Group_598" data-name="Group 598" transform="translate(742.061 291.061)">
        <g id="Group_597" data-name="Group 597">
          <path id="Path_96" data-name="Path 96" d="M49.585,40a9.585,9.585,0,1,0,9.585,9.585A9.6,9.6,0,0,0,49.585,40Zm0,17.971a8.387,8.387,0,1,1,8.387-8.387A8.4,8.4,0,0,1,49.585,57.971Z" transform="translate(-40 -40)" fill="#acadb2"/>
        </g>
      </g>
      <g id="Group_600" data-name="Group 600" transform="translate(751.046 293.456)">
        <g id="Group_599" data-name="Group 599">
          <path id="Path_97" data-name="Path 97" d="M197.312,84.617A7.2,7.2,0,0,0,190.6,80a.6.6,0,1,0,0,1.2,6.031,6.031,0,0,1,5.595,3.849.6.6,0,1,0,1.118-.43Z" transform="translate(-190 -80)" fill="#acadb2"/>
        </g>
      </g>
    </g>
  </g>
</svg>
