<svg xmlns="http://www.w3.org/2000/svg" width="29.762" height="29.762" viewBox="0 0 29.762 29.762"><defs><style>.a{fill:#2f2d64;}</style></defs><g transform="translate(0)"><path class="a" d="M178.069,60.773h1.744a3.1,3.1,0,0,0,2.663,3.062v-1a4.836,4.836,0,1,0-9.672,0v1.029h2.173A3.1,3.1,0,0,0,178.069,60.773Z" transform="translate(-162.759 -54.629)"/><path class="a" d="M76.87,14.857h1.645a7.368,7.368,0,0,1-.048-.84V8.207a6.58,6.58,0,0,1,13.16,0v5.81a7.368,7.368,0,0,1-.048.84h1.645A2.377,2.377,0,0,0,95.6,12.483V9.837A2.377,2.377,0,0,0,93.32,7.465a8.317,8.317,0,0,0-16.546,0A2.377,2.377,0,0,0,74.5,9.837v2.645A2.377,2.377,0,0,0,76.87,14.857Z" transform="translate(-70.166)"/><path class="a" d="M177.641,163.612a4.7,4.7,0,0,0,3.7-1.86h-2.7v-1.744h3.6a5.546,5.546,0,0,0,.234-1.6v-3.056a4.838,4.838,0,0,1-3.535-2.05,4.834,4.834,0,0,1-3.964,2.069H172.8v3.037A5.036,5.036,0,0,0,177.641,163.612Z" transform="translate(-162.76 -144.391)"/><path class="a" d="M181.78,323.189v-2.327a6.341,6.341,0,0,1-9.772.028v2.3l-.008,0a8.819,8.819,0,0,0,4.875,2.107A8.913,8.913,0,0,0,181.78,323.189Z" transform="translate(-162.001 -302.211)"/><path class="a" d="M27.563,373.833l-5.83-1.911c-.987.879-3.879,3.205-6.86,3.205s-5.854-2.331-6.83-3.21L2.2,373.833A3.186,3.186,0,0,0,0,376.867v3.193H6v-3.023H7.748v3.023H22.014v-3.023h1.744v3.023h6v-3.193A3.186,3.186,0,0,0,27.563,373.833Z" transform="translate(0 -350.298)"/></g></svg>