<svg xmlns="http://www.w3.org/2000/svg" width="63.534" height="30.633" viewBox="0 0 63.534 30.633"><defs><style>.a{fill:#ffdd09;}.b{fill:#2b2a29;}.c{fill:#fefefe;}</style></defs><g transform="translate(0 0)"><path class="a" d="M9.176.422a1.978,1.978,0,0,1,.5.712.87.87,0,0,1-.018.625,1.371,1.371,0,0,1-.444.553,6.336,6.336,0,0,1-.68.462,2.273,2.273,0,0,1,.68,1.675,3.565,3.565,0,0,1-.519,1.659A9.274,9.274,0,0,1,7.358,7.944a12.986,12.986,0,0,1-1.8,1.622,7,7,0,0,1-1.943,1.053,2.906,2.906,0,0,1-1.783.069A2.136,2.136,0,0,1,.55,9.334a2.9,2.9,0,0,1-.215-1.89A6.2,6.2,0,0,1,1.1,5.574,10.924,10.924,0,0,1,2.387,3.862,18.32,18.32,0,0,1,3.758,2.491,12.233,12.233,0,0,1,4.81,1.582,10.333,10.333,0,0,1,6.288.6,4.922,4.922,0,0,1,7.839.048,1.555,1.555,0,0,1,9.176.422ZM7.43,4.238h0a.813.813,0,0,0-.855-.5.463.463,0,0,0-.145.07.132.132,0,0,1-.106.036c-.309.215-.688.487-1.14.82a11.764,11.764,0,0,0-1.3,1.123,5.666,5.666,0,0,0-1,1.319,1.985,1.985,0,0,0-.268,1.3.141.141,0,0,1,.036.107,1.008,1.008,0,0,0,.961-.072,6.571,6.571,0,0,0,1.212-.748,10.53,10.53,0,0,0,1.106-.964c.334-.33.558-.556.677-.676.19-.285.368-.57.537-.856a2.2,2.2,0,0,0,.285-.961Z" transform="translate(37.617 3.294)"/><path class="b" d="M.306.007c.014.271.07.554.083.825Z" transform="translate(43.572 1.006)"/><path class="a" d="M.3.718c.017.276.067.549.083.825a.728.728,0,0,0,.715.715.724.724,0,0,0,.715-.715C1.8,1.266,1.749.994,1.732.718A.728.728,0,0,0,1.017,0,.724.724,0,0,0,.3.718Z" transform="translate(42.861 0.295)"/><path class="b" d="M1.122.032C.871.137.594.211.343.316Z" transform="translate(48.869 4.564)"/><path class="a" d="M1.642.066c-.256.1-.523.18-.779.284A.785.785,0,0,0,.437.679a.727.727,0,0,0-.072.551.722.722,0,0,0,.88.5c.256-.1.523-.18.779-.284a.785.785,0,0,0,.427-.329A.732.732,0,0,0,2.522.565.722.722,0,0,0,1.642.066Z" transform="translate(48.159 3.841)"/><path class="b" d="M.879,0C.689.2.519.433.332.628Z" transform="translate(47.328 0.705)"/><path class="a" d="M1.079.2C.888.4.723.627.532.828a.726.726,0,0,0,0,1.011.727.727,0,0,0,1.011,0c.19-.2.355-.423.546-.623A.725.725,0,0,0,2.09.2.727.727,0,0,0,1.079.2Z" transform="translate(46.622 0)"/><path class="a" d="M26.155,2.446H22.321q-1.885,0-3.832.052-3.9.1-7.766.277c-2.58.118-.354.056-2.954.258-.943.1-1.873.18-2.791.265s-1.848-.1-2.791.071c-.224.034-.47.084-.741.151a1.342,1.342,0,0,1-.738,0C.214,3.388-.021,3.143,0,2.789S.259,2.21.708,2.11A59.92,59.92,0,0,1,12.5.658L34.426.179a8.32,8.32,0,0,1,1.882.2,4.81,4.81,0,0,1,1.449.5,1.976,1.976,0,0,1,.907,1.058.962.962,0,0,1-.2,1.033,2.186,2.186,0,0,1-1.008.606,2.581,2.581,0,0,1-1.243.05A1.448,1.448,0,0,1,35.233,3a12.377,12.377,0,0,0-2.017-.378A20.034,20.034,0,0,0,31.063,2.5l-4.907-.052Zm9.524.236h0a.154.154,0,0,1-.1-.026.184.184,0,0,0-.1-.023A.324.324,0,0,0,35.68,2.682Z" transform="translate(0 25.438)"/><path class="c" d="M35.488,2.3q-1.564,1.312-3.076,2.6T29.437,7.543a4.834,4.834,0,0,1,1.413.2,3.066,3.066,0,0,1,1.083.5,1.93,1.93,0,0,1,.682,1.058,1.2,1.2,0,0,1-.154,1.033,1.626,1.626,0,0,1-.756.606,1.461,1.461,0,0,1-.932.05,1.122,1.122,0,0,1-.732-.63,7.143,7.143,0,0,0-1.511-.378,11.233,11.233,0,0,0-1.616-.126l-.5.454q-2.068,1.964-4.362,4.261a18.892,18.892,0,0,0-3.6,4.914A17.326,17.326,0,0,0,21.9,18.307q1.689-.779,3.4-1.386c.672-.235,7.013-3.686,7.717-3.754.235,0,1.045-.328,1.214-.328a1.842,1.842,0,0,1,1.008.328,1.386,1.386,0,0,1,.478.706,2.033,2.033,0,0,1-.28,1.262c-1.165,1.586-3.586,3.51-3.344,3.751.571.573,2.92-.705,3.793-1.006q1.662-.553,3.351-1.084a22.127,22.127,0,0,1,3.454-.782,3.059,3.059,0,0,1,1.084.1,2.142,2.142,0,0,1,.956.5,1.181,1.181,0,0,1,.4.831c.018.319-.194.647-.63.982a1.235,1.235,0,0,1-.73.253,6.132,6.132,0,0,0-.781.051c-.5.066-1.009.151-1.514.252s-.991.218-1.46.353q-1.513.4-3,.856t-2.95.959q-.856.3-1.99.679a3.328,3.328,0,0,1-2.092.077,2.045,2.045,0,0,1-1.209-1.261c-.4-.906,3.4-4.39,3.315-4.338a60.022,60.022,0,0,1-6.19,3.381q-1.31.5-2.62,1.058t-2.825,1.161a7.454,7.454,0,0,1-3.024.554q-1.666-.1-2.018-.907a2.684,2.684,0,0,1,.127-2.044,12.814,12.814,0,0,1,1.487-2.67A34.231,34.231,0,0,1,19.177,14.1q1.137-1.309,2.094-2.293c.636-.656,1.058-1.085,1.26-1.285l.706-.706H20.364q-1.415,0-2.872.05-2.925.1-5.824.278t-5.825.478c-.706.1-1.4.194-2.092.279a18.638,18.638,0,0,0-2.092.378,4.757,4.757,0,0,0-.554.151.776.776,0,0,1-.553,0,.7.7,0,0,1-.531-.732.689.689,0,0,1,.531-.681A67.637,67.637,0,0,1,13,8.024q6.4-.428,12.653-.53,1.313-1.21,2.622-2.368t2.672-2.32c.438-.4.95-.915,1.539-1.539A4.023,4.023,0,0,1,34.278.083a1.2,1.2,0,0,1,.883.026,1.238,1.238,0,0,1,.58.552,1.437,1.437,0,0,1,.151.833,1.334,1.334,0,0,1-.4.807Zm-5.242,8.168h0a.1.1,0,0,1-.077-.026.106.106,0,0,0-.075-.026.2.2,0,0,0,.151.052Z" transform="translate(2.79 1.842)"/><path class="c" d="M11.755,8.052q1.513-1.713,3.1-3.352t3.3-3.1a6.418,6.418,0,0,0,.555-.5A6.277,6.277,0,0,1,19.343.54a3.018,3.018,0,0,1,.7-.4,1.428,1.428,0,0,1,.732-.1,1.076,1.076,0,0,1,.706.327,1.344,1.344,0,0,1,.327.631,1.407,1.407,0,0,1-.024.705,1.127,1.127,0,0,1-.453.606,34.328,34.328,0,0,0-5.192,4.687q-2.373,2.622-4.587,5.294-1.313,1.662-2.6,3.377T6.411,19.143c-.4.572-.79,1.158-1.161,1.766s-.738,1.21-1.108,1.815l-.605.958a5.874,5.874,0,0,0,1.26-.757A12.613,12.613,0,0,0,6.109,21.74c.4-.419.787-.85,1.16-1.286q.856-.907,1.789-1.992A17.082,17.082,0,0,0,10.7,16.219a1.381,1.381,0,0,1-.505-.755,1.2,1.2,0,0,1,0-.958,1.422,1.422,0,0,1,.607-.682,1.765,1.765,0,0,1,.882-.227,1.236,1.236,0,0,1,.883.4,3.153,3.153,0,0,0,1.21.276c.436.018.858.044,1.26.077q1.309.1,2.572.074t2.57-.125a7.426,7.426,0,0,0,.959-.076A4.859,4.859,0,0,1,22.24,14.2a2.924,2.924,0,0,1,.982.251,1.256,1.256,0,0,1,.632.756,1.076,1.076,0,0,1-.53,1.487,6.418,6.418,0,0,1-2.191.555,17.244,17.244,0,0,1-2.647.05q-1.337-.074-1.841-.076H14.63a11.279,11.279,0,0,1-2.421-.252,15.862,15.862,0,0,1-1.867,3.377q-1.158,1.613-2.367,3.076c-.373.4-.79.857-1.262,1.361a10.833,10.833,0,0,1-1.536,1.362,6.416,6.416,0,0,1-1.741.907,2.794,2.794,0,0,1-1.814,0A1.786,1.786,0,0,1,.337,25.671a3.86,3.86,0,0,1,.176-1.99A15.68,15.68,0,0,1,2.6,19.469q1.387-1.987,2.8-3.8Q6.916,13.7,8.5,11.808l3.252-3.756Z" transform="translate(39.579 3.423)"/></g></svg>