<svg xmlns="http://www.w3.org/2000/svg" width="17.893" height="23" viewBox="0 0 17.893 23"><defs><style>.a{fill:#2f2d64;}</style></defs><g transform="translate(0)"><path class="a" d="M126.853,1.388H130.7v.647h1.388V1.3a1.3,1.3,0,0,0-1.3-1.3h-4.027a1.3,1.3,0,0,0-1.3,1.3v.737h1.388Zm0,0" transform="translate(-119.828 0)"/><path class="a" d="M54.134,167.75H41.1a.611.611,0,0,0-.609.661l1.09,13.473a1.447,1.447,0,0,0,1.442,1.331h9.189a1.447,1.447,0,0,0,1.442-1.332l1.09-13.472a.611.611,0,0,0-.609-.661Zm-9.877,14.028h-.044a.694.694,0,0,1-.692-.652l-.683-11.06a.694.694,0,0,1,1.386-.085l.683,11.06A.694.694,0,0,1,44.258,181.778Zm4.063-.693a.694.694,0,0,1-1.388,0v-11.06a.694.694,0,1,1,1.388,0Zm4.077-11.02-.652,11.06a.694.694,0,0,1-.692.653h-.041a.694.694,0,0,1-.652-.734l.652-11.06a.694.694,0,0,1,1.386.082Zm0,0" transform="translate(-38.671 -160.214)"/><path class="a" d="M17.864,78.181l-.456-1.367a.883.883,0,0,0-.837-.6H1.323a.883.883,0,0,0-.837.6L.03,78.181a.573.573,0,0,0,.543.754H17.32a.565.565,0,0,0,.3-.088.572.572,0,0,0,.24-.666Zm0,0" transform="translate(0 -72.788)"/></g></svg>