<svg xmlns="http://www.w3.org/2000/svg" xmlns:xlink="http://www.w3.org/1999/xlink" width="314" height="256" viewBox="0 0 314 256">
  <defs>
    <clipPath id="clip-Artboard_1">
      <rect width="314" height="256"/>
    </clipPath>
  </defs>
  <g id="Artboard_1" data-name="Artboard – 1" clip-path="url(#clip-Artboard_1)">
    <rect width="314" height="256" fill="#fff"/>
    <g id="Group_4470" data-name="Group 4470" transform="translate(14000.244 13636.969)">
      <g id="Group_4431" data-name="Group 4431" transform="translate(-13952.58 -13608.903)">
        <g id="Profile" transform="translate(0 0)">
          <path id="Union_1" data-name="Union 1" d="M0,155V135.627C0,114.31,34.875,96.873,77.5,96.873S155,114.31,155,135.627V155ZM38.746,38.755A38.75,38.75,0,1,1,77.5,77.5,38.754,38.754,0,0,1,38.746,38.755Z" transform="translate(0.336 -0.065)" fill="#2f2d64"/>
        </g>
        <circle id="Ellipse_112" data-name="Ellipse 112" cx="66.319" cy="66.319" r="66.319" transform="translate(86.365 67.899)" fill="#2f2d64"/>
      </g>
      <g id="servers" transform="translate(-13837.048 -13509.292)">
        <g id="Group_4451" data-name="Group 4451" transform="translate(0 0)">
          <g id="Group_4450" data-name="Group 4450">
            <path id="Path_1073" data-name="Path 1073" d="M76.211,75.552a5.089,5.089,0,0,0-9.855,0H43.1a5.089,5.089,0,0,0-3.636-3.636V64.1H69.993a6.369,6.369,0,0,0,6.361-6.361V50.107a6.338,6.338,0,0,0-2.584-5.089,6.338,6.338,0,0,0,2.584-5.089V32.3a6.338,6.338,0,0,0-2.584-5.089,6.338,6.338,0,0,0,2.584-5.089V14.485a6.369,6.369,0,0,0-6.361-6.361H6.382A6.369,6.369,0,0,0,.021,14.485v7.633A6.338,6.338,0,0,0,2.6,27.207,6.338,6.338,0,0,0,.021,32.3V39.93A6.338,6.338,0,0,0,2.6,45.019,6.338,6.338,0,0,0,.021,50.107v7.633A6.369,6.369,0,0,0,6.382,64.1H36.915v7.814a5.089,5.089,0,0,0-3.636,3.636H10.018a5.089,5.089,0,1,0,0,2.544H33.279a5.065,5.065,0,0,0,9.816,0H66.357a5.089,5.089,0,1,0,9.854-2.544Zm-71.1,3.817a2.544,2.544,0,1,1,2.544-2.544A2.544,2.544,0,0,1,5.109,79.369ZM2.565,22.118V14.485a3.817,3.817,0,0,1,3.817-3.817H69.993a3.817,3.817,0,0,1,3.817,3.817v7.633a3.817,3.817,0,0,1-3.817,3.817H6.382A3.817,3.817,0,0,1,2.565,22.118Zm0,17.811V32.3A3.817,3.817,0,0,1,6.382,28.48H69.993A3.817,3.817,0,0,1,73.81,32.3V39.93a3.817,3.817,0,0,1-3.817,3.817H6.382A3.817,3.817,0,0,1,2.565,39.93ZM6.382,61.557a3.817,3.817,0,0,1-3.817-3.817V50.107a3.817,3.817,0,0,1,3.817-3.817H69.993a3.817,3.817,0,0,1,3.817,3.817v7.633a3.817,3.817,0,0,1-3.817,3.817ZM38.187,79.369a2.544,2.544,0,1,1,2.544-2.544A2.544,2.544,0,0,1,38.187,79.369Zm33.078,0a2.544,2.544,0,1,1,2.544-2.544A2.544,2.544,0,0,1,71.265,79.369Z" transform="translate(0 -8.124)" fill="#fff" stroke="#fff" stroke-width="1"/>
          </g>
        </g>
        <g id="Group_4453" data-name="Group 4453" transform="translate(7.654 6.361)">
          <g id="Group_4452" data-name="Group 4452">
            <path id="Path_1074" data-name="Path 1074" d="M55.761,48.124H49.4A1.272,1.272,0,0,0,48.128,49.4v5.089A1.272,1.272,0,0,0,49.4,55.757h6.361a1.272,1.272,0,0,0,1.272-1.272V49.4A1.272,1.272,0,0,0,55.761,48.124Zm-1.272,5.089H50.672V50.668h3.817Z" transform="translate(-48.128 -48.124)" fill="#fff"/>
          </g>
        </g>
        <g id="Group_4455" data-name="Group 4455" transform="translate(7.654 24.172)">
          <g id="Group_4454" data-name="Group 4454">
            <path id="Path_1075" data-name="Path 1075" d="M55.761,160.124H49.4a1.272,1.272,0,0,0-1.272,1.272v5.089a1.272,1.272,0,0,0,1.272,1.272h6.361a1.272,1.272,0,0,0,1.272-1.272V161.4A1.272,1.272,0,0,0,55.761,160.124Zm-1.272,5.089H50.672v-2.544h3.817Z" transform="translate(-48.128 -160.124)" fill="#fff"/>
          </g>
        </g>
        <g id="Group_4457" data-name="Group 4457" transform="translate(7.654 41.983)">
          <g id="Group_4456" data-name="Group 4456">
            <path id="Path_1076" data-name="Path 1076" d="M55.761,272.124H49.4a1.272,1.272,0,0,0-1.272,1.272v5.089a1.272,1.272,0,0,0,1.272,1.272h6.361a1.272,1.272,0,0,0,1.272-1.272V273.4A1.272,1.272,0,0,0,55.761,272.124Zm-1.272,5.089H50.672v-2.545h3.817Z" transform="translate(-48.128 -272.124)" fill="#fff"/>
          </g>
        </g>
        <g id="Group_4459" data-name="Group 4459" transform="translate(53.454 5.089)">
          <g id="Group_4458" data-name="Group 4458">
            <path id="Path_1077" data-name="Path 1077" d="M350.122,40.124H337.4a1.272,1.272,0,1,0,0,2.544h12.722a1.272,1.272,0,0,0,0-2.544Z" transform="translate(-336.128 -40.124)" fill="#fff"/>
          </g>
        </g>
        <g id="Group_4461" data-name="Group 4461" transform="translate(53.454 10.178)">
          <g id="Group_4460" data-name="Group 4460">
            <path id="Path_1078" data-name="Path 1078" d="M350.122,72.124H337.4a1.272,1.272,0,1,0,0,2.544h12.722a1.272,1.272,0,0,0,0-2.544Z" transform="translate(-336.128 -72.124)" fill="#fff"/>
          </g>
        </g>
        <g id="Group_4463" data-name="Group 4463" transform="translate(53.454 22.9)">
          <g id="Group_4462" data-name="Group 4462">
            <path id="Path_1079" data-name="Path 1079" d="M350.122,152.124H337.4a1.272,1.272,0,1,0,0,2.544h12.722a1.272,1.272,0,0,0,0-2.544Z" transform="translate(-336.128 -152.124)" fill="#fff"/>
          </g>
        </g>
        <g id="Group_4465" data-name="Group 4465" transform="translate(53.454 27.989)">
          <g id="Group_4464" data-name="Group 4464">
            <path id="Path_1080" data-name="Path 1080" d="M350.122,184.124H337.4a1.272,1.272,0,1,0,0,2.544h12.722a1.272,1.272,0,1,0,0-2.544Z" transform="translate(-336.128 -184.124)" fill="#fff"/>
          </g>
        </g>
        <g id="Group_4467" data-name="Group 4467" transform="translate(53.454 40.711)">
          <g id="Group_4466" data-name="Group 4466">
            <path id="Path_1081" data-name="Path 1081" d="M350.122,264.124H337.4a1.272,1.272,0,1,0,0,2.544h12.722a1.272,1.272,0,1,0,0-2.544Z" transform="translate(-336.128 -264.124)" fill="#fff"/>
          </g>
        </g>
        <g id="Group_4469" data-name="Group 4469" transform="translate(53.454 45.8)">
          <g id="Group_4468" data-name="Group 4468">
            <path id="Path_1082" data-name="Path 1082" d="M350.122,296.124H337.4a1.272,1.272,0,1,0,0,2.544h12.722a1.272,1.272,0,1,0,0-2.544Z" transform="translate(-336.128 -296.124)" fill="#fff"/>
          </g>
        </g>
      </g>
    </g>
  </g>
</svg>
