<svg xmlns="http://www.w3.org/2000/svg" width="31.479" height="23.563" viewBox="0 0 31.479 23.563"><g id="Group_4697" data-name="Group 4697" transform="translate(-1573 -626)"><g id="Group_4696" data-name="Group 4696" transform="translate(15646.334 13188.999)"><path id="Subtraction_1" data-name="Subtraction 1" d="M11.039,13.039H2a2,2,0,0,1-2-2V2A2,2,0,0,1,2,0h9.04a2,2,0,0,1,2,2V4.424H11.3v4.1h1.739v2.517A2,2,0,0,1,11.039,13.039Z" transform="translate(-14073.334 -12552.476)" fill="#2f2d64"/><path id="Subtraction_2" data-name="Subtraction 2" d="M11.01,13.039H1.97a2,2,0,0,1-2-2V8.571l2.3-1.9L-.03,4.635V2a2,2,0,0,1,2-2h9.04a2,2,0,0,1,2,2v9.04A2,2,0,0,1,11.01,13.039Z" transform="translate(-14054.864 -12552.476)" fill="#2f2d64"/><path id="Path_1165" data-name="Path 1165" d="M15.524,71.691a.472.472,0,0,1,.3.108.331.331,0,0,1,.135.269.436.436,0,0,1-.041.168l-1.866,4.015a.439.439,0,0,1-.185.2.536.536,0,0,1-.531,0,.439.439,0,0,1-.186-.2L11.3,72.236a.421.421,0,0,1-.041-.161.335.335,0,0,1,.138-.276.5.5,0,0,1,.313-.108.411.411,0,0,1,.212.057.383.383,0,0,1,.152.172l1.548,3.442,1.549-3.442A.368.368,0,0,1,15.524,71.691Z" transform="translate(-14083.027 -12620.061)" fill="#fff"/><path id="Path_1166" data-name="Path 1166" d="M33.716,76.14q0,.357-.4.357H31.036q-.411,0-.411-.357t.411-.344h.7V72.725l-.647.4a.347.347,0,0,1-.168.054.3.3,0,0,1-.239-.121.419.419,0,0,1-.1-.269.338.338,0,0,1,.175-.3l1.044-.647a.748.748,0,0,1,.384-.121.41.41,0,0,1,.3.115.429.429,0,0,1,.114.317V75.8h.707Q33.716,75.8,33.716,76.14Z" transform="translate(-14096.956 -12620.077)" fill="#fff"/><path id="Path_1167" data-name="Path 1167" d="M86.55,71.727a.472.472,0,0,1,.3.108.331.331,0,0,1,.135.269.439.439,0,0,1-.041.168l-1.866,4.015a.441.441,0,0,1-.186.2.536.536,0,0,1-.531,0,.441.441,0,0,1-.185-.2l-1.86-4.014a.428.428,0,0,1-.041-.162.335.335,0,0,1,.14-.276.5.5,0,0,1,.313-.108.411.411,0,0,1,.212.057.38.38,0,0,1,.151.172L84.646,75.4l1.549-3.442a.368.368,0,0,1,.356-.229Z" transform="translate(-14134.207 -12620.087)" fill="#fff"/><path id="Path_1168" data-name="Path 1168" d="M103.947,76.107q0,.357-.4.357h-2.559a.366.366,0,0,1-.276-.1.357.357,0,0,1-.1-.259.513.513,0,0,1,.155-.363l1.537-1.65a2.661,2.661,0,0,0,.414-.569,1.134,1.134,0,0,0,.131-.515.628.628,0,0,0-.182-.485.737.737,0,0,0-.519-.168,1.421,1.421,0,0,0-.535.1,2.674,2.674,0,0,0-.522.286.834.834,0,0,1-.135.078.327.327,0,0,1-.135.03.246.246,0,0,1-.2-.108.4.4,0,0,1-.084-.256.385.385,0,0,1,.037-.175.448.448,0,0,1,.118-.142,2.34,2.34,0,0,1,.694-.374,2.4,2.4,0,0,1,.795-.138,1.661,1.661,0,0,1,1.108.35,1.172,1.172,0,0,1,.414.943,1.744,1.744,0,0,1-.175.771,3.418,3.418,0,0,1-.593.8l-1.165,1.239h1.775Q103.947,75.763,103.947,76.107Z" transform="translate(-14147.361 -12620.035)" fill="#fff"/><path id="Path_1169" data-name="Path 1169" d="M32.127,30.579c-.015-.153-.023-.307-.023-.465a4.675,4.675,0,1,1,9.351,0c0,.157-.008.312-.023.465h5.127V29.087a.571.571,0,0,0-.571-.571H44.606a7.939,7.939,0,0,0-1.164-2.806l.978-.978a.571.571,0,0,0,0-.808l-1.451-1.451a.571.571,0,0,0-.808,0l-.978.978a7.943,7.943,0,0,0-2.806-1.164V20.905a.572.572,0,0,0-.571-.571H35.753a.572.572,0,0,0-.571.571v1.381a7.941,7.941,0,0,0-2.806,1.164l-.978-.978a.571.571,0,0,0-.808,0l-1.451,1.451a.571.571,0,0,0,0,.808l.978.978a7.939,7.939,0,0,0-1.164,2.806H27.571a.571.571,0,0,0-.571.571v1.491Z" transform="translate(-14094.374 -12583.333)" fill="#2f2d64"/><path id="Path_1170" data-name="Path 1170" d="M54.122,69.3l-4.41-3.9v1.882l-4.335.018V71l4.335-.018v1.966Z" transform="translate(-14107.168 -12615.115)" fill="#2f2d64"/></g></g></svg>
